<?xml version="1.0" standalone="no"?>
<!DOCTYPE svg PUBLIC "-//W3C//DTD SVG 1.1//EN" "http://www.w3.org/Graphics/SVG/1.1/DTD/svg11.dtd" >
<svg>
<metadata>
Created by FontForge 20090914 at Sat Feb 27 09:02:02 2021
 By www-data
Copyright (c) 2018 by Alexander Slobzheninov. All rights reserved.
</metadata>
<defs>
<font id="ObjectSans-Slanted" horiz-adv-x="605" >
  <font-face 
    font-family="Object Sans Slanted"
    font-weight="402"
    font-style="oblique"
    font-stretch="normal"
    units-per-em="1000"
    panose-1="0 0 5 0 0 0 0 0 0 0"
    ascent="800"
    descent="-200"
    x-height="505"
    cap-height="705"
    bbox="-236 -268.001 1421 957"
    underline-thickness="50"
    underline-position="-25"
    unicode-range="U+000D-U+F6C3"
  />
<missing-glyph horiz-adv-x="0" 
 />
    <glyph glyph-name=".notdef" horiz-adv-x="0" 
 />
    <glyph glyph-name="NULL" horiz-adv-x="737" 
d="M175 705h546l-124 -705h-546zM533 67l100 572h-395l-100 -572h395z" />
    <glyph glyph-name="NULL" horiz-adv-x="737" 
d="M175 705h546l-124 -705h-546zM533 67l100 572h-395l-100 -572h395z" />
    <glyph glyph-name="nonmarkingreturn" unicode="&#xd;" horiz-adv-x="30" 
 />
    <glyph glyph-name="space" unicode=" " horiz-adv-x="250" 
 />
    <glyph glyph-name="exclam" unicode="!" horiz-adv-x="255" 
d="M129 520l33 185h92l-33 -185l-74 -304h-52zM49 0.5c-9.33301 9 -14.002 20.833 -14.002 35.5c0 18 5.83301 32.667 17.5 44s25.834 17 42.501 17c15.333 0 27.666 -4.5 36.999 -13.5s14 -20.833 14 -35.5c0 -18 -5.66699 -32.667 -17 -44s-25.666 -17 -42.999 -17
c-15.333 0 -27.666 4.5 -36.999 13.5z" />
    <glyph glyph-name="quotedbl" unicode="&#x22;" horiz-adv-x="331" 
d="M105 566l25 139h73l-25 -139l-39 -182h-58zM263 566l25 139h73l-25 -139l-39 -182h-58z" />
    <glyph glyph-name="numbersign" unicode="#" horiz-adv-x="951" 
d="M273 244h-224l11 61h239l66 147h-229l11 62h244l98 222h75l-98 -222h168l98 222h75l-98 -222h237l-11 -62h-254l-64 -147h243l-12 -61h-259l-107 -244h-74l108 244h-170l-108 -244h-74zM542 305l66 147h-170l-64 -147h168z" />
    <glyph glyph-name="dollar" unicode="$" horiz-adv-x="686" 
d="M567 493c2.66699 11.333 4.00098 23.665 4.00098 36.998c0 38.667 -13.833 68.334 -41.5 89.001s-67.167 31 -118.5 31c-57.333 0 -104 -11.833 -140 -35.5s-57.667 -55.5 -65 -95.5c-1.33301 -9.33301 -2 -16 -2 -20c0 -22.667 7.66699 -40.5 23 -53.5
s34.333 -22.5 57 -28.5s53.667 -12.333 93 -19c50 -8 91.833 -17.333 125.5 -28s62 -27.667 85 -51s34.5 -55 34.5 -95c0 -7.33301 -1.33301 -20.333 -4 -39c-11.333 -62 -41.666 -111.667 -90.999 -149s-113 -57.333 -191 -60l-17 -96h-85l18 99
c-64.667 8.66699 -114.667 30.834 -150 66.501s-53 81.834 -53 138.501c0 16.667 1.33301 32.667 4 48l90 -6c-2 -12.667 -3 -24.667 -3 -36c0 -43.333 15.167 -76.666 45.5 -99.999s74.166 -35 131.499 -35c58.667 0 106.5 12 143.5 36s59.167 57 66.5 99
c1.33301 10.667 2 17.667 2 21c0 23.333 -7.83301 41.666 -23.5 54.999s-34.834 23 -57.501 29s-55 12.667 -97 20c-72.667 10.667 -130.667 28.167 -174 52.5s-65 64.166 -65 119.499c0 7.33301 1.33301 20.333 4 39c10.667 58.667 39.334 106 86.001 142
s107 56.333 181 61l16 91h85l-16 -93c61.333 -8 108.666 -28.5 141.999 -61.5s50 -75.833 50 -128.5c0 -14 -1.66699 -30.333 -5 -49z" />
    <glyph glyph-name="percent" unicode="%" horiz-adv-x="1017" 
d="M146.5 387c-31.667 30 -47.5 69.999 -47.5 119.999c0 14.667 1.33301 28.667 4 42c10.667 58.667 37.334 106 80.001 142s93 54 151 54c54 0 96.667 -14.833 128 -44.5s47 -69.5 47 -119.5c0 -15.333 -1.33301 -29.666 -4 -42.999c-10 -58.667 -36.333 -106 -79 -142
s-93.334 -54 -152.001 -54c-53.333 0 -95.833 15 -127.5 45zM800 734.999h103l-645 -735h-104zM372.5 460.999c26.333 22.667 42.501 51.999 48.501 87.999c1.33301 5.33301 2 13.333 2 24c0 26.667 -8.33301 47.834 -25 63.501s-39.334 23.5 -68.001 23.5
c-26.667 0 -51.167 -6.33301 -73.5 -19s-40 -30 -53 -52s-19.5 -46.667 -19.5 -74c0 -26.667 8.5 -48 25.5 -64s39.833 -24 68.5 -24c36.667 0 68.167 11.333 94.5 34zM596.001 34.998c-31.333 30 -46.999 69.998 -46.999 119.998c0 14.667 1.33301 28.667 4 42
c6.66699 38.667 21 72.834 43 102.501s49.333 52.834 82 69.501s68 25 106 25c53.333 0 95.666 -14.833 126.999 -44.5s47 -69.5 47 -119.5c0 -16 -1.33301 -30.667 -4 -44c-10 -58.667 -36.333 -106 -79 -142s-93.334 -54 -152.001 -54c-53.333 0 -95.666 15 -126.999 45z
M801.002 94.4961c22 12.333 39.501 29.502 52.501 51.502s19.5 47 19.5 75c0 27.333 -8.33301 48.833 -25 64.5s-39.667 23.5 -69 23.5c-35.333 0 -66.333 -11.5 -93 -34.5s-43.334 -52.5 -50.001 -88.5c-1.33301 -10.667 -2 -18.334 -2 -23.001
c0 -26.667 8.5 -47.834 25.5 -63.501s39.833 -23.5 68.5 -23.5c26.667 0 51 6.16699 73 18.5z" />
    <glyph glyph-name="ampersand" unicode="&#x26;" horiz-adv-x="776" 
d="M138.5 -3c-31 14.667 -54.999 35 -71.999 61s-25.5 56 -25.5 90c0 11.333 1 23 3 35c8.66699 49.333 28.5 89 59.5 119s72.167 56.667 123.5 80c-29.333 42 -44 85 -44 129c0 7.33301 1.33301 19.666 4 36.999c6 33.333 19.667 63.333 41 90s48.166 47.5 80.499 62.5
s66.833 22.5 103.5 22.5c35.333 0 66.666 -7 93.999 -21s48.5 -33.167 63.5 -57.5s22.5 -52.166 22.5 -83.499c0 -11.333 -1 -23 -3 -35l-86 5c1.33301 9.33301 2 16.333 2 21c0 27.333 -9 49.333 -27 66s-41.333 25 -70 25c-24.667 0 -47.667 -5.83301 -69 -17.5
s-38.166 -27.667 -50.499 -48s-18.5 -42.833 -18.5 -67.5c0 -39.333 17 -77.333 51 -114l195 -206c40 42 75 93 105 153l86 -6c-40.667 -80 -88 -147 -142 -201l126 -136h-120l-72 75c-40 -32 -81.667 -56.667 -125 -74s-86 -26 -128 -26c-40.667 0 -76.5 7.33301 -107.5 22
zM449.001 131l-172 189.999c-41.333 -14.667 -74.166 -33.5 -98.499 -56.5s-39.5 -53.167 -45.5 -90.5c-1.33301 -9.33301 -2 -16 -2 -20c0 -29.333 12 -53.166 36 -71.499s55.667 -27.5 95 -27.5c61.333 0 123.666 25.333 186.999 76z" />
    <glyph glyph-name="quotesingle" unicode="'" horiz-adv-x="174" 
d="M106 566l24 139h73l-24 -139l-40 -182h-58z" />
    <glyph glyph-name="parenleft" unicode="(" horiz-adv-x="309" 
d="M69 -40.5c-16 56.333 -24 117.833 -24 184.5c0 46.667 4 93.334 12 140.001c15.333 88.667 44.833 174.834 88.5 258.501s93.167 149.167 148.5 196.5l89 -4c-61.333 -51.333 -114.833 -118.333 -160.5 -201s-76.5 -169.667 -92.5 -261c-8 -46 -12 -91 -12 -135
c0 -65.333 8.66699 -125.833 26 -181.5s42 -101.834 74 -138.501l-81 4c-29.333 35.333 -52 81.166 -68 137.499z" />
    <glyph glyph-name="parenright" unicode=")" horiz-adv-x="308" 
d="M-66 -178c61.333 50 114.831 116.166 160.498 198.499s76.834 170.166 93.501 263.499c7.33301 40.667 11 84.334 11 131.001c0 65.333 -8.5 126.166 -25.5 182.499s-41.5 103.5 -73.5 141.5l81 -4c28.667 -35.333 51.167 -81.333 67.5 -138s24.5 -117.667 24.5 -183
c0 -48.667 -4.33301 -95.667 -13 -141c-15.333 -89.333 -44.666 -175.666 -87.999 -258.999s-93 -148.666 -149 -195.999z" />
    <glyph glyph-name="asterisk" unicode="*" horiz-adv-x="514" 
d="M261 436l-161 -87l-22 53l163 83l-135 84l40 53l132 -87l28 170h62l-33 -170l161 87l22 -53l-163 -84l135 -83l-40 -53l-132 87l-28 -171h-62z" />
    <glyph glyph-name="plus" unicode="+" horiz-adv-x="572" 
d="M257 326h-193l13 75h193l31 178h86l-32 -178h192l-13 -75h-192l-33 -187h-86z" />
    <glyph glyph-name="comma" unicode="," horiz-adv-x="213" 
d="M-19 -128l70.001 117c-10.667 2.66699 -19.334 8.33398 -26.001 17.001s-10 19 -10 31c0 17.333 5.83301 31.666 17.5 42.999s25.5 17 41.5 17s28.667 -4.66699 38 -14s14 -21.333 14 -36c0 -4.66699 -0.333008 -8 -1 -10c-2 -12 -7.66699 -25.333 -17 -40l-85 -135z" />
    <glyph glyph-name="hyphen" unicode="-" horiz-adv-x="512" 
d="M68 349h410l-13 -75h-410z" />
    <glyph glyph-name="period" unicode="." horiz-adv-x="211" 
d="M27 0.5c-9.33301 9 -13.998 20.833 -13.998 35.5c0 18 5.66699 32.667 17 44s25.666 17 42.999 17c15.333 0 27.666 -4.5 36.999 -13.5s14 -20.833 14 -35.5c0 -18 -5.83301 -32.667 -17.5 -44s-25.834 -17 -42.501 -17c-15.333 0 -27.666 4.5 -36.999 13.5z" />
    <glyph glyph-name="slash" unicode="/" horiz-adv-x="408" 
d="M393 705h84l-466 -935h-84z" />
    <glyph glyph-name="zero" unicode="0" horiz-adv-x="729" 
d="M187.5 11c-37.667 24 -66.3311 57.499 -85.998 100.499s-29.5 93.167 -29.5 150.5c0 31.333 3 63.333 9 96c12.667 72 36.167 136.167 70.5 192.5s76.833 100.333 127.5 132s105.667 47.5 165 47.5c51.333 0 95.833 -12 133.5 -36s66.334 -57.667 86.001 -101
s29.5 -93.666 29.5 -150.999c0 -30 -3 -61.667 -9 -95c-12.667 -72 -36.334 -136.167 -71.001 -192.5s-77.334 -100.333 -128.001 -132s-105.334 -47.5 -164.001 -47.5c-51.333 0 -95.833 12 -133.5 36zM445.003 93.999c37.333 26 68.999 61.8311 94.999 107.498
s44.333 97.834 55 156.501c5.33301 30.667 8 58.667 8 84c0 63.333 -14.333 113.833 -43 151.5s-68.667 56.5 -120 56.5c-43.333 0 -83.666 -12.833 -120.999 -38.5s-69 -61.5 -95 -107.5s-44 -98.333 -54 -157c-5.33301 -32 -8 -60.333 -8 -85
c0 -63.333 14.333 -113.666 43 -150.999s68.667 -56 120 -56c42.667 0 82.667 13 120 39z" />
    <glyph glyph-name="one" unicode="1" horiz-adv-x="398" 
d="M270 579h-9l-185 -124l18 107l216 143h74l-125 -705h-91z" />
    <glyph glyph-name="two" unicode="2" horiz-adv-x="601" 
d="M25 49l343.999 285.001c35.333 28 62 50.5 80 67.5s33.167 36.667 45.5 59s18.5 47.166 18.5 74.499c0 34 -11.167 61.667 -33.5 83s-51.5 32 -87.5 32c-31.333 0 -61 -7.83301 -89 -23.5s-52.167 -37.5 -72.5 -65.5s-34.166 -59 -41.499 -93l-87 6
c8.66699 49.333 27 93.5 55 132.5s62.833 69.333 104.5 91s86.167 32.5 133.5 32.5c41.333 0 78 -7.83301 110 -23.5s56.667 -37.5 74 -65.5s26 -60 26 -96c0 -8.66699 -1.33301 -22.334 -4 -41.001c-6.66699 -38 -24.667 -74.667 -54 -110s-74 -77.666 -134 -126.999
l-224 -177l-2 -10h328l-15 -80h-483z" />
    <glyph glyph-name="three" unicode="3" horiz-adv-x="604" 
d="M142.5 3.5c-34.333 19 -61.001 45.333 -80.001 79s-28.5 72.167 -28.5 115.5c0 13.333 1 27 3 41l91 -6c-2 -12.667 -3 -25 -3 -37c0 -42 12.667 -76 38 -102s58.666 -39 99.999 -39c48.667 0 91.834 14.667 129.501 44s60.834 66.666 69.501 111.999
c1.33301 12 2 20.333 2 25c0 36.667 -12.667 66.334 -38 89.001s-59 34 -101 34c-12.667 0 -25.834 -1.33301 -39.501 -4s-24.834 -6 -33.501 -10l-18 68l223 202l3 10h-315l14 80h454l-10 -61l-237 -212c55.333 -5.33301 100.5 -25.5 135.5 -60.5s52.5 -78.5 52.5 -130.5
c0 -15.333 -1.33301 -29.333 -4 -42c-7.33301 -42.667 -24.666 -81 -51.999 -115s-61.666 -60.667 -102.999 -80s-86 -29 -134 -29c-44.667 0 -84.167 9.5 -118.5 28.5z" />
    <glyph glyph-name="four" unicode="4" horiz-adv-x="611" 
d="M363 156h-348l9 58l387 491h140l-83 -469h87l-14 -80h-87l-28 -156h-91zM376 236l67 377h-9l-294 -377h236z" />
    <glyph glyph-name="five" unicode="5" horiz-adv-x="628" 
d="M157.5 3.5c-34.333 19 -60.9971 45.3359 -79.9971 79.0029s-28.5 72.167 -28.5 115.5c0 13.333 1 27 3 41l91 -6c-2 -12.667 -3 -25 -3 -37c0 -42 12.667 -76 38 -102s58.666 -39 99.999 -39c35.333 0 68.5 8.16699 99.5 24.5s55.667 38.833 74 67.5s27.5 60 27.5 94
c0 38 -13.667 68.5 -41 91.5s-66.333 34.5 -117 34.5h-187l97 338h365l-14 -80h-291l-50 -178h98c47.333 0 88.166 -8.33301 122.499 -25s60.666 -39.834 78.999 -69.501s27.5 -63.834 27.5 -102.501c0 -17.333 -1.33301 -33 -4 -47
c-7.33301 -43.333 -24.833 -82.333 -52.5 -117s-62 -61.834 -103 -81.501s-85.167 -29.5 -132.5 -29.5c-44.667 0 -84.167 9.5 -118.5 28.5z" />
    <glyph glyph-name="six" unicode="6" horiz-adv-x="634" 
d="M151.5 1c-35.667 17.333 -63.1689 41.1641 -82.502 71.4971s-29 63.833 -29 100.5c0 12.667 1 25.334 3 38.001c11.333 62.667 47.333 126.667 108 192l287 302h112l-261 -273c22 8.66699 47.333 13 76 13c42.667 0 80.334 -8.16699 113.001 -24.5s57.834 -39 75.501 -68
s26.5 -62.5 26.5 -100.5c0 -15.333 -1.33301 -29.666 -4 -42.999c-8 -45.333 -26.333 -85.666 -55 -120.999s-64.5 -63 -107.5 -83s-89.5 -30 -139.5 -30c-46 0 -86.833 8.66699 -122.5 26zM373.998 76.498c30 14.333 54.833 34.1689 74.5 59.502s32.167 53.666 37.5 84.999
c2 9.33301 3 18.333 3 27c0 36.667 -13.333 65.834 -40 87.501s-61.667 32.5 -105 32.5c-38 0 -73.333 -8.33301 -106 -25s-58.667 -39.334 -78 -68.001s-29 -60.334 -29 -95.001c0 -36.667 13.333 -66.667 40 -90s62 -35 106 -35c34.667 0 67 7.16699 97 21.5z" />
    <glyph glyph-name="seven" unicode="7" horiz-adv-x="518" 
d="M453 625h-367l14 80h477l-8 -54l-391 -651h-100z" />
    <glyph glyph-name="eight" unicode="8" horiz-adv-x="661" 
d="M162.5 -1c-36.333 15.333 -64.499 36.6689 -84.499 64.002s-30 58.666 -30 93.999c0 10.667 1 22 3 34c8 44 28.167 82.667 60.5 116s70.833 55 115.5 65l6 10c-26.667 10 -48.667 27.333 -66 52s-26 52.667 -26 84c0 9.33301 1 19 3 29c6 35.333 21.5 67 46.5 95
s56.667 49.833 95 65.5s79.833 23.5 124.5 23.5c42 0 79 -6.83301 111 -20.5s56.833 -32.834 74.5 -57.501s26.5 -53 26.5 -85c0 -10 -1 -20.667 -3 -32c-6.66699 -34.667 -23.334 -66.5 -50.001 -95.5s-57 -49.167 -91 -60.5l-7 -10
c35.333 -8.66699 63.833 -27.167 85.5 -55.5s32.5 -61.5 32.5 -99.5c0 -11.333 -1 -23 -3 -35c-6.66699 -39.333 -24 -74.5 -52 -105.5s-63.333 -55.167 -106 -72.5s-89.334 -26 -140.001 -26c-47.333 0 -89.166 7.66699 -125.499 23zM441.001 431.503
c26.667 13 48.002 30.5 64.002 52.5s24 46.333 24 73c0 28 -11.333 50.667 -34 68s-52.334 26 -89.001 26c-44 0 -82.333 -11.667 -115 -35s-52.334 -53 -59.001 -89c-1.33301 -8 -2 -14 -2 -18c0 -28.667 11.333 -52 34 -70s52.667 -27 90 -27c31.333 0 60.333 6.5 87 19.5
zM391.003 78.0029c30.667 14.667 55.167 34.666 73.5 59.999s27.5 53.333 27.5 84c0 32.667 -13 59.167 -39 79.5s-60.333 30.5 -103 30.5c-36 0 -69.5 -7.33301 -100.5 -22s-55.5 -34.5 -73.5 -59.5s-27 -52.833 -27 -83.5c0 -33.333 13 -60.166 39 -80.499
s60.333 -30.5 103 -30.5c36 0 69.333 7.33301 100 22z" />
    <glyph glyph-name="nine" unicode="9" horiz-adv-x="633" 
d="M518 705.5c35.333 -17 62.668 -40.498 82.001 -70.498s29 -63.667 29 -101c0 -12 -1 -24.667 -3 -38c-10.667 -60 -46.667 -124 -108 -192l-286 -303h-113l261 275c-23.333 -10 -48.666 -15 -75.999 -15c-42.667 0 -80.334 8.16699 -113.001 24.5
s-57.834 39.166 -75.501 68.499s-26.5 63 -26.5 101c0 15.333 1.33301 29.666 4 42.999c8 44.667 26.333 84.667 55 120s64.5 63 107.5 83s89.5 30 139.5 30c46.667 0 87.667 -8.5 123 -25.5zM295.002 630.002c-30 -14 -55 -33.667 -75 -59s-32.667 -53.666 -38 -84.999
c-1.33301 -6 -2 -14.667 -2 -26c0 -36.667 13.333 -66.167 40 -88.5s61.667 -33.5 105 -33.5c34.667 0 67.167 7 97.5 21s55.333 33.167 75 57.5s32.167 51.5 37.5 81.5c1.33301 6 2 15 2 27c0 37.333 -13.167 67.666 -39.5 90.999s-61.5 35 -105.5 35
c-34.667 0 -67 -7 -97 -21z" />
    <glyph glyph-name="colon" unicode=":" horiz-adv-x="211" 
d="M95 385c-9.33301 9.33301 -14 21.667 -14 37c0 4 0.333008 7.33301 1 10c3.33301 14.667 10.333 26.5 21 35.5s23.334 13.5 38.001 13.5c15.333 0 27.666 -4.5 36.999 -13.5s14 -20.833 14 -35.5c0 -18 -5.66699 -32.667 -17 -44s-25.333 -17 -42 -17
c-16 0 -28.667 4.66699 -38 14zM28 0.500977c-9.33301 9 -13.998 20.833 -13.998 35.5c0 18 5.66699 32.667 17 44s25.666 17 42.999 17c14.667 0 26.667 -4.5 36 -13.5s14 -20.167 14 -33.5c0 -6 -0.333008 -10.333 -1 -13c-2.66699 -14.667 -9.33398 -26.667 -20.001 -36
s-23.334 -14 -38.001 -14c-15.333 0 -27.666 4.5 -36.999 13.5z" />
    <glyph glyph-name="semicolon" unicode=";" horiz-adv-x="213" 
d="M97 384.5c-9.33301 9 -14 20.5 -14 34.5c0 18 5.5 32.833 16.5 44.5s25.167 17.5 42.5 17.5c15.333 0 27.666 -4.5 36.999 -13.5s14 -20.833 14 -35.5c0 -18 -5.66699 -32.667 -17 -44s-25.666 -17 -42.999 -17c-14.667 0 -26.667 4.5 -36 13.5zM-18 -128l70 116.998
c-11.333 2.66699 -20.333 8.33398 -27 17.001s-10 19 -10 31c0 4.66699 0.333008 8.33398 1 11.001c3.33301 14.667 10.333 26.5 21 35.5s23.334 13.5 38.001 13.5c15.333 0 27.666 -4.5 36.999 -13.5s14 -20.833 14 -35.5c0 -4.66699 -0.333008 -8.33398 -1 -11.001
c-2 -11.333 -7.33301 -24.666 -16 -39.999l-85 -135z" />
    <glyph glyph-name="less" unicode="&#x3c;" horiz-adv-x="437" 
d="M22 302l16 98l409 204l-14 -83l-339 -165l-3 -9l281 -165l-13 -83z" />
    <glyph glyph-name="equal" unicode="=" horiz-adv-x="572" 
d="M95 505h470l-13 -75h-470zM51 254h470l-13 -75h-470z" />
    <glyph glyph-name="greater" unicode="&#x3e;" horiz-adv-x="435" 
d="M38 182l339 165l3 9l-281 165l14 83l335 -204l-16 -98l-407 -203z" />
    <glyph glyph-name="question" unicode="?" horiz-adv-x="570" 
d="M263 308c21.333 30 51.334 57.999 90.001 83.999c39.333 22.667 69.833 45.834 91.5 69.501s32.5 53.5 32.5 89.5c0 29.333 -10.333 53.166 -31 71.499s-48 27.5 -82 27.5c-45.333 0 -84.833 -15.667 -118.5 -47s-54.167 -70.666 -61.5 -117.999l-91 5
c8.66699 46.667 26 88.167 52 124.5s58.5 64.666 97.5 84.999s81.5 30.5 127.5 30.5c38.667 0 73 -7.5 103 -22.5s53.333 -35.833 70 -62.5s25 -56.667 25 -90c0 -12 -1 -24 -3 -36c-6.66699 -38.667 -23.167 -72.667 -49.5 -102s-60.833 -57.666 -103.5 -84.999
c-34 -18.667 -59.333 -39 -76 -61s-28.334 -52.667 -35.001 -92l-83 5c8.66699 52.667 23.667 94 45 124zM197.001 -0.500977c-9.33301 9 -14 20.5 -14 34.5c0 18 5.66699 32.833 17 44.5s25.333 17.5 42 17.5c15.333 0 27.666 -4.5 36.999 -13.5s14 -20.833 14 -35.5
c0 -18 -5.66699 -32.667 -17 -44s-25.666 -17 -42.999 -17c-14.667 0 -26.667 4.5 -36 13.5z" />
    <glyph glyph-name="at" unicode="@" horiz-adv-x="1011" 
d="M217 -137c-54.667 30 -96.833 71.999 -126.5 125.999s-44.5 116 -44.5 186c0 33.333 2.66699 63.666 8 90.999c14.667 82 47 155.667 97 221s112.333 116.333 187 153s154.667 55 240 55c77.333 0 145.5 -15 204.5 -45s104.5 -72 136.5 -126s48 -116 48 -186
c0 -25.333 -2.66699 -53.333 -8 -84c-15.333 -85.333 -41.166 -150.166 -77.499 -194.499s-82.833 -66.5 -139.5 -66.5c-36.667 0 -64.667 8.83301 -84 26.5s-29.333 42.5 -30 74.5l-10 -6c-22.667 -33.333 -51.834 -59 -87.501 -77s-74.834 -27 -117.501 -27
c-49.333 0 -88.666 11.667 -117.999 35s-44 54.333 -44 93c0 12 0.666992 21 2 27c8 45.333 33.667 82 77 110s102.333 46 177 54l144 16l4 26c2 10 3 19.333 3 28c0 28 -9.5 48.333 -28.5 61s-47.167 19 -84.5 19c-86.667 0 -135.334 -34 -146.001 -102l-83 6
c9.33301 53.333 34.5 95.166 75.5 125.499s92.5 45.5 154.5 45.5c60 0 107.333 -13.833 142 -41.5s52 -65.167 52 -112.5c0 -11.333 -1 -23.666 -3 -36.999l-37 -206c-1.33301 -10.667 -2 -18 -2 -22c0 -32.667 16 -49 48 -49c32.667 0 60 17.167 82 51.5
s39 85.833 51 154.5c4 24 6 47 6 69c0 56.667 -12.667 106.834 -38 150.501s-61.333 77.667 -108 102s-101 36.5 -163 36.5c-72 0 -139.5 -16 -202.5 -48s-115.667 -76 -158 -132s-69.833 -119.333 -82.5 -190c-4.66699 -25.333 -7 -51 -7 -77
c0 -56.667 11.5 -106.667 34.5 -150s56 -77 99 -101s92.833 -36 149.5 -36c27.333 0 55.333 3.5 84 10.5s52.334 15.167 71.001 24.5l-9 -77c-21.333 -10 -45.5 -17.5 -72.5 -22.5s-52.167 -7.5 -75.5 -7.5c-72 0 -135.333 15 -190 45zM523.001 73.999
c28.667 14 52.668 32.833 72.001 56.5s31.333 49.5 36 77.5l8 45l-138 -15c-54.667 -6 -96.334 -20 -125.001 -42s-43 -48.333 -43 -79c0 -20.667 9 -36.5 27 -47.5s41.333 -16.5 70 -16.5c33.333 0 64.333 7 93 21z" />
    <glyph glyph-name="A" unicode="A" horiz-adv-x="713" 
d="M375 705h124l140 -705h-87l-32 158h-359l-88 -158h-88zM507 233l-78 392h-9l-219 -392h306z" />
    <glyph glyph-name="B" unicode="B" horiz-adv-x="697" 
d="M174 705h305.001c38 0 71.667 -6.83301 101 -20.5s52.166 -32.667 68.499 -57s24.5 -52.5 24.5 -84.5c0 -10.667 -1 -21.667 -3 -33c-5.33301 -32 -19.666 -61.167 -42.999 -87.5s-50.666 -44.166 -81.999 -53.499l-7 -10c30 -8.66699 53.833 -25.5 71.5 -50.5
s26.5 -54.167 26.5 -87.5c0 -12.667 -0.666992 -22.334 -2 -29.001c-6.66699 -36.667 -22.834 -69.5 -48.501 -98.5s-58.334 -51.833 -98.001 -68.5s-82.5 -25 -128.5 -25h-309zM415.001 402c29.333 0 57 5.83105 83 17.498s46.667 27.834 62 48.501s23 43.334 23 68.001
c0 26.667 -11.333 48.167 -34 64.5s-52.667 24.5 -90 24.5h-208l-39 -223h203zM355.001 79.998c48 0 90.168 12.168 126.501 36.501s58.166 54.833 65.499 91.5c0.666992 3.33301 1 8.66602 1 15.999c0 29.333 -13.167 53 -39.5 71s-61.5 27 -105.5 27h-205l-42 -242h199z
" />
    <glyph glyph-name="C" unicode="C" horiz-adv-x="803" 
d="M210.5 13.5c-47 25.667 -83.3359 61.6689 -109.003 108.002s-38.5 99.5 -38.5 159.5c0 26 2.33301 51.667 7 77c12.667 71.333 39.5 135.166 80.5 191.499s91.5 100.5 151.5 132.5s124.333 48 193 48c53.333 0 101.833 -11.167 145.5 -33.5s78.667 -53.333 105 -93
s40.833 -83.834 43.5 -132.501l-88 -6c-2.66699 35.333 -13.334 67.166 -32.001 95.499s-43.5 50.333 -74.5 66s-64.833 23.5 -101.5 23.5c-53.333 0 -103.666 -13 -150.999 -39s-87.166 -62.167 -119.499 -108.5s-53.5 -98.166 -63.5 -155.499
c-3.33301 -17.333 -5 -37.666 -5 -60.999c0 -45.333 9 -85.5 27 -120.5s43.833 -62.167 77.5 -81.5s72.834 -29 117.501 -29c38 0 76 8 114 24s71.833 38 101.5 66s52.5 59.333 68.5 94l85 -23c-20 -46 -49.333 -87.333 -88 -124s-82.667 -65.334 -132 -86.001
s-99.666 -31 -150.999 -31c-62 0 -116.5 12.833 -163.5 38.5z" />
    <glyph glyph-name="D" unicode="D" horiz-adv-x="779" 
d="M174 705l225.003 0.000976562c71.333 0 133.5 -11.833 186.5 -35.5s93.667 -57.334 122 -101.001s42.5 -94.834 42.5 -153.501c0 -21.333 -2 -44 -6 -68c-12.667 -69.333 -40.334 -130.166 -83.001 -182.499s-96.834 -92.833 -162.501 -121.5s-138.834 -43 -219.501 -43
h-229zM288.003 80.001c62.667 0 120.001 11.333 172.001 34s95.167 55 129.5 97s56.166 91 65.499 147c3.33301 21.333 5 39 5 53c0 66.667 -24.167 119 -72.5 157s-114.5 57 -198.5 57h-137l-96 -545h132z" />
    <glyph glyph-name="E" unicode="E" horiz-adv-x="639" 
d="M175 705h484l-14 -80h-393l-39 -220h352l-14 -80h-352l-42 -245h402l-15 -80h-494z" />
    <glyph glyph-name="F" unicode="F" horiz-adv-x="576" 
d="M175 705h449l-14 -80h-358l-39 -220h318l-14 -80h-318l-57 -325h-91z" />
    <glyph glyph-name="G" unicode="G" horiz-adv-x="852" 
d="M216.5 14c-49 26 -86.833 62.335 -113.5 109.002s-40 100 -40 160c0 26 2.33301 51 7 75c12.667 71.333 40 135.166 82 191.499s94.333 100.5 157 132.5s130 48 202 48c49.333 0 94.833 -9 136.5 -27s76 -42.833 103 -74.5s43.5 -66.834 49.5 -105.501l-86 -22
c-6.66699 44 -29.5 79.833 -68.5 107.5s-85.167 41.5 -138.5 41.5c-56.667 0 -109.5 -13 -158.5 -39s-90.167 -62 -123.5 -108s-55.333 -98 -66 -156c-3.33301 -22 -5 -41.333 -5 -58c0 -46 9.83301 -86.667 29.5 -122s47.5 -62.833 83.5 -82.5s77.667 -29.5 125 -29.5
c50.667 0 99.167 11.167 145.5 33.5s85.5 52.833 117.5 91.5s53 81.667 63 129l-351 -2l14 81l441 -3c-8.66699 -78.667 -33 -149.167 -73 -211.5s-91.5 -111 -154.5 -146s-131.833 -52.5 -206.5 -52.5c-65.333 0 -122.5 13 -171.5 39z" />
    <glyph glyph-name="H" unicode="H" horiz-adv-x="752" 
d="M174 705h91l-52 -297h381l52 297h91l-124 -705h-91l58 328h-381l-58 -328h-91z" />
    <glyph glyph-name="I" unicode="I" horiz-adv-x="281" 
d="M174 705h92l-124 -705h-92z" />
    <glyph glyph-name="J" unicode="J" horiz-adv-x="473" 
d="M61.5 -14c-23 4 -44.1641 9 -63.4971 15l8 76c17.333 -4.66699 35.666 -8.66699 54.999 -12s35.666 -5 48.999 -5c43.333 0 81.166 14.167 113.499 42.5s52.5 65.833 60.5 112.5l87 490h91l-88 -496c-8 -45.333 -23.833 -85.333 -47.5 -120s-53 -61.5 -88 -80.5
s-72.833 -28.5 -113.5 -28.5c-19.333 0 -40.5 2 -63.5 6z" />
    <glyph glyph-name="K" unicode="K" horiz-adv-x="633" 
d="M175 705h91l-54 -308h9l346 308h116l-390 -341l273 -364h-113l-242 331h-11l-58 -331h-92z" />
    <glyph glyph-name="L" unicode="L" horiz-adv-x="572" 
d="M174 705h92l-110 -625h355l-14 -80h-447z" />
    <glyph glyph-name="M" unicode="M" horiz-adv-x="953" 
d="M174 705h143l131 -578h10l335 578h144l-124 -705h-91l104 590h-9l-342 -590h-87l-133 589h-10l-104 -589h-91z" />
    <glyph glyph-name="N" unicode="N" horiz-adv-x="755" 
d="M175 705h130l230 -585h11l103 585h91l-125 -705h-129l-230 585h-11l-103 -585h-92z" />
    <glyph glyph-name="O" unicode="O" horiz-adv-x="864" 
d="M216.5 13c-49 25.333 -86.834 61.167 -113.501 107.5s-40 99.833 -40 160.5c0 26 2.33301 51.667 7 77c12.667 72 39.834 136.167 81.501 192.5s93.834 100.333 156.501 132s130.334 47.5 203.001 47.5c65.333 0 122.666 -12.833 171.999 -38.5s87.333 -61.667 114 -108
s40 -99.833 40 -160.5c0 -26.667 -2.33301 -52 -7 -76c-12.667 -72 -40 -136.167 -82 -192.5s-94.333 -100.333 -157 -132s-130.334 -47.5 -203.001 -47.5c-65.333 0 -122.5 12.667 -171.5 38zM550.499 94.001c49.667 26 91.167 62 124.5 108s55 98 65 156
c3.33301 17.333 5 37.333 5 60c0 46 -9.66699 86.5 -29 121.5s-46.833 62.167 -82.5 81.5s-77.834 29 -126.501 29c-56.667 0 -109.667 -13 -159 -39s-90.666 -62 -123.999 -108s-55 -98 -65 -156c-3.33301 -17.333 -5 -37.333 -5 -60c0 -46 9.66699 -86.5 29 -121.5
s47 -62.167 83 -81.5s78 -29 126 -29c56 0 108.833 13 158.5 39z" />
    <glyph glyph-name="P" unicode="P" horiz-adv-x="671" 
d="M175 705l277.998 -0.000976562c68.667 0 122.834 -15.833 162.501 -47.5s59.5 -75.167 59.5 -130.5c0 -15.333 -1.33301 -29.666 -4 -42.999c-12.667 -64.667 -45.167 -116 -97.5 -154s-116.166 -57 -191.499 -57h-195l-48 -273h-89zM390.998 353.999
c51.333 0 94.168 12.667 128.501 38s55.166 59.666 62.499 102.999c1.33301 6 2 14.333 2 25c0 32.667 -12 58.334 -36 77.001s-58.333 28 -103 28h-195l-48 -271h189z" />
    <glyph glyph-name="Q" unicode="Q" horiz-adv-x="865" 
d="M216.5 13.5c-49 25.667 -86.8311 61.666 -113.498 107.999s-40 99.833 -40 160.5c0 26.667 2.33301 52 7 76c12.667 72 40 136.167 82 192.5s94.167 100.333 156.5 132s129.833 47.5 202.5 47.5c65.333 0 122.666 -12.667 171.999 -38s87.333 -61.166 114 -107.499
s40 -99.833 40 -160.5c0 -26 -2.33301 -51.667 -7 -77c-9.33301 -49.333 -25.333 -95 -48 -137s-51.334 -79.333 -86.001 -112l93 -98h-115l-43 46c-74 -47.333 -155 -71 -243 -71c-65.333 0 -122.5 12.833 -171.5 38.5zM573.002 106.999l-200 212h115l152 -159
c25.333 26.667 46.833 56.834 64.5 90.501s29.5 69.5 35.5 107.5c4 21.333 6 41.666 6 60.999c0 46 -9.83301 86.333 -29.5 121s-47.5 61.667 -83.5 81s-78 29 -126 29c-56.667 0 -109.5 -13 -158.5 -39s-90.167 -62 -123.5 -108s-55.333 -98 -66 -156
c-3.33301 -22 -5 -41.667 -5 -59c0 -46 9.66699 -86.5 29 -121.5s47 -62.333 83 -82s78 -29.5 126 -29.5c64.667 0 125 17.333 181 52z" />
    <glyph glyph-name="R" unicode="R" horiz-adv-x="709" 
d="M174 705h306c67.333 0 120.833 -16 160.5 -48s59.5 -75.333 59.5 -130c0 -14.667 -1.33301 -28.667 -4 -42c-6.66699 -38.667 -22 -73 -46 -103s-54.333 -53.833 -91 -71.5s-76.667 -27.5 -120 -29.5h-16l206 -281h-112l-196 276h-131l-48 -276h-92zM417 356
c50.667 0 93.334 12.667 128.001 38s55.667 59.333 63 102c2 9.33301 3 18 3 26c0 32.667 -12.333 58 -37 76s-59.334 27 -104.001 27h-218l-48 -269h213z" />
    <glyph glyph-name="S" unicode="S" horiz-adv-x="686" 
d="M118.5 30.5c-46.333 37 -69.499 87.8311 -69.499 152.498c0 17.333 1.33301 33.666 4 48.999l90 -6c-2 -12.667 -3 -24.667 -3 -36c0 -43.333 15.167 -76.666 45.5 -99.999s74.166 -35 131.499 -35c58.667 0 106.5 12 143.5 36s59.167 57 66.5 99
c1.33301 10.667 2 17.667 2 21c0 23.333 -7.83301 41.666 -23.5 54.999s-34.834 23 -57.501 29s-55 12.667 -97 20c-72.667 10.667 -130.667 28.167 -174 52.5s-65 64.166 -65 119.499c0 7.33301 1.33301 20.333 4 39c11.333 62.667 43.166 112.334 95.499 149.001
s119.833 55 202.5 55c77.333 0 137.666 -17.167 180.999 -51.5s65 -81.5 65 -141.5c0 -14 -1.66699 -30.333 -5 -49l-87 5c2.66699 16 4 27.667 4 35c0 39.333 -14 69.5 -42 90.5s-67.667 31.5 -119 31.5c-58 0 -105 -11.833 -141 -35.5s-57.333 -55.5 -64 -95.5
c-1.33301 -9.33301 -2 -16 -2 -20c0 -22.667 7.66699 -40.5 23 -53.5s34.333 -22.5 57 -28.5s53.667 -12.333 93 -19c50 -8 91.833 -17.333 125.5 -28s61.834 -27.667 84.501 -51s34 -54.666 34 -93.999c0 -13.333 -1.33301 -26.666 -4 -39.999
c-11.333 -65.333 -43.666 -116.666 -96.999 -153.999s-122.333 -56 -207 -56c-83.333 0 -148.166 18.5 -194.499 55.5z" />
    <glyph glyph-name="T" unicode="T" horiz-adv-x="582" 
d="M311 625h-234l14 80h559l-14 -80h-234l-110 -625h-91z" />
    <glyph glyph-name="U" unicode="U" horiz-adv-x="757" 
d="M205 5.5c-37.333 20.333 -66.168 48.667 -86.501 85s-30.5 77.833 -30.5 124.5c0 22.667 1.66699 42.334 5 59.001l76 431h91l-77 -437c-2.66699 -14 -4 -29.667 -4 -47c0 -50 14.5 -90.167 43.5 -120.5s67.833 -45.5 116.5 -45.5c38.667 0 75.167 9.5 109.5 28.5
s63 45.167 86 78.5s38.167 70.666 45.5 111.999l76 431h91l-77 -437c-10 -56.667 -31 -107.167 -63 -151.5s-71.667 -79 -119 -104s-98.333 -37.5 -153 -37.5c-49.333 0 -92.666 10.167 -129.999 30.5z" />
    <glyph glyph-name="V" unicode="V" horiz-adv-x="702" 
d="M110 705h91l112 -637h10l336 637h95l-376 -705h-142z" />
    <glyph glyph-name="W" unicode="W" horiz-adv-x="1088" 
d="M129 705h86l69 -628h10l271 628h118l48 -628h10l291 628h89l-329 -705h-140l-42 595h-10l-251 -595h-140z" />
    <glyph glyph-name="X" unicode="X" horiz-adv-x="711" 
d="M314 373l-184 332h101l146 -279h10l251 279h105l-310 -332l193 -373h-100l-157 313h-10l-262 -313h-104z" />
    <glyph glyph-name="Y" unicode="Y" horiz-adv-x="660" 
d="M287 258l-176 447h94l137 -360h9l260 360h100l-333 -447l-46 -258h-91z" />
    <glyph glyph-name="Z" unicode="Z" horiz-adv-x="656" 
d="M11 42l515 573l3 10h-404l14 80h538l-7 -41l-515 -574l-2 -10h424l-15 -80h-558z" />
    <glyph glyph-name="bracketleft" unicode="[" horiz-adv-x="434" 
d="M180 735h326l-11 -62h-246l-139 -792h246l-11 -61h-326z" />
    <glyph glyph-name="backslash" unicode="\" horiz-adv-x="407" 
d="M229 -230l-136 935h80l136 -935h-80z" />
    <glyph glyph-name="bracketright" unicode="]" horiz-adv-x="433" 
d="M-63 -180l10 61h246l140 792h-246l11 62h326l-161 -915h-326z" />
    <glyph glyph-name="asciicircum" unicode="^" horiz-adv-x="571" 
d="M316 705h98l134 -305h-81l-105 251h-10l-192 -251h-86z" />
    <glyph glyph-name="underscore" unicode="_" horiz-adv-x="500" 
d="M-45 0h500l-12 -70h-500z" />
    <glyph glyph-name="grave" unicode="`" horiz-adv-x="302" 
d="M137 735h92l82 -142h-85z" />
    <glyph glyph-name="a" unicode="a" horiz-adv-x="670" 
d="M152 8c-33.333 18.667 -59.167 44.834 -77.5 78.501s-27.5 72.167 -27.5 115.5c0 16 1.66699 34.667 5 56c8.66699 51.333 27.5 97.166 56.5 137.499s64.833 72 107.5 95s88.667 34.5 138 34.5c80.667 0 139 -35 175 -105l11 3l15 82h83l-90 -505h-83l15 83l-8 -3
c-57.333 -66.667 -125.333 -100 -204 -100c-44 0 -82.667 9.33301 -116 28zM384.999 81.5c32.667 17.667 60 41.8311 82 72.498s36.333 65.334 43 104.001c2.66699 12.667 4 26.334 4 41.001c0 45.333 -13.833 81.833 -41.5 109.5s-64.5 41.5 -110.5 41.5
c-36.667 0 -71.334 -8.66699 -104.001 -26s-60 -41.5 -82 -72.5s-36.333 -65.833 -43 -104.5c-2.66699 -12.667 -4 -26 -4 -40c0 -45.333 13.833 -82 41.5 -110s64.5 -42 110.5 -42c36.667 0 71.334 8.83301 104.001 26.5z" />
    <glyph glyph-name="b" unicode="b" horiz-adv-x="666" 
d="M204.5 6.5c-29 17.667 -50.498 42.167 -64.498 73.5l-11 -2l-14 -78h-83l130 735h83l-54 -305l8 3c23.333 30 52.333 52.833 87 68.5s72 23.5 112 23.5c43.333 0 81.666 -9.33301 114.999 -28s59.333 -45 78 -79s28 -72.667 28 -116
c0 -15.333 -1.66699 -33.666 -5 -54.999c-8.66699 -50.667 -27.834 -96.334 -57.501 -137.001s-66.167 -72.5 -109.5 -95.5s-89 -34.5 -137 -34.5c-41.333 0 -76.5 8.83301 -105.5 26.5zM407.502 81.5c32.333 17.667 59.666 42 81.999 73s36.833 65.5 43.5 103.5
c2 13.333 3 26.333 3 39c0 45.333 -13.667 82.166 -41 110.499s-64 42.5 -110 42.5c-36.667 0 -71.167 -9 -103.5 -27s-59.666 -42.5 -81.999 -73.5s-36.833 -65.167 -43.5 -102.5c-2.66699 -12.667 -4 -25.667 -4 -39c0 -45.333 13.833 -82.166 41.5 -110.499
s64.5 -42.5 110.5 -42.5c36.667 0 71.167 8.83301 103.5 26.5z" />
    <glyph glyph-name="c" unicode="c" horiz-adv-x="612" 
d="M153 8c-34 18.667 -60.1631 44.667 -78.4961 78s-27.5 71.666 -27.5 114.999c0 21.333 1.66699 40.333 5 57c8.66699 51.333 27.667 97.166 57 137.499s65.666 72 108.999 95s89.666 34.5 138.999 34.5c41.333 0 78.666 -8.16699 111.999 -24.5s59.166 -39 77.499 -68
s27.5 -61.167 27.5 -96.5l-80 -5c-2.66699 36 -17 64.833 -43 86.5s-58 32.5 -96 32.5c-34.667 0 -67.667 -8.66699 -99 -26s-58 -41.5 -80 -72.5s-36.667 -65.833 -44 -104.5c-2 -14 -3 -27.333 -3 -40c0 -46 13.167 -82.833 39.5 -110.5s61.166 -41.5 104.499 -41.5
c41.333 0 79.833 11.5 115.5 34.5s61.5 52.5 77.5 88.5l80 -17c-13.333 -35.333 -34.166 -66.666 -62.499 -93.999s-61 -48.666 -98 -63.999s-75.167 -23 -114.5 -23c-44.667 0 -84 9.33301 -118 28z" />
    <glyph glyph-name="d" unicode="d" horiz-adv-x="666" 
d="M153.5 8.5c-33.667 19 -59.834 45.499 -78.501 79.499s-28 72.667 -28 116c0 14.667 1.66699 32.667 5 54c8.66699 50.667 27.834 96.334 57.501 137.001s66 72.5 109 95.5s88.5 34.5 136.5 34.5c41.333 0 77 -8.66699 107 -26s51.333 -41 64 -71l12 2l54 305h83
l-130 -735h-83l14 78l-9 -3c-23.333 -30.667 -52 -54.167 -86 -70.5s-71.333 -24.5 -112 -24.5c-43.333 0 -81.833 9.5 -115.5 28.5zM385 81.999c32.667 18 60.165 42.5 82.498 73.5s36.5 65.167 42.5 102.5c2.66699 12.667 4 26 4 40c0 44.667 -13.833 81.167 -41.5 109.5
s-64.5 42.5 -110.5 42.5c-36.667 0 -71.167 -9 -103.5 -27s-59.666 -42.5 -81.999 -73.5s-36.833 -65.167 -43.5 -102.5c-2.66699 -18.667 -4 -32 -4 -40c0 -44.667 14 -81.167 42 -109.5s64.667 -42.5 110 -42.5c36.667 0 71.334 9 104.001 27z" />
    <glyph glyph-name="e" unicode="e" horiz-adv-x="635" 
d="M157.5 8.5c-35 19 -61.999 45.833 -80.999 80.5s-28.5 74.334 -28.5 119.001c0 16 1.66699 35 5 57c8.66699 50 27.667 94.667 57 134s66 70.166 110 92.499s91.333 33.5 142 33.5c45.333 0 85.166 -9.16699 119.499 -27.5s60.833 -44 79.5 -77s28 -71.167 28 -114.5
c0 -14.667 -1.66699 -32.667 -5 -54c-1.33301 -11.333 -3.33301 -21.333 -6 -30h-448c-2.66699 -51.333 10 -92 38 -122s67 -45 117 -45c38.667 0 75.334 9.16699 110.001 27.5s62.667 42.833 84 73.5l65 -40c-28 -43.333 -65.333 -76.833 -112 -100.5
s-97.334 -35.5 -152.001 -35.5c-46.667 0 -87.5 9.5 -122.5 28.5zM505.001 301c1.33301 45.333 -11.667 81.5 -39 108.5s-64.333 40.5 -111 40.5c-47.333 0 -90.333 -14.333 -129 -43s-65.667 -66 -81 -112z" />
    <glyph glyph-name="f" unicode="f" horiz-adv-x="373" 
d="M156 439l-82.001 0.000976562l11 66h82l18 104c8 44.667 26 80.167 54 106.5s61.667 39.5 101 39.5c27.333 0 53.333 -4.33301 78 -13l-8 -70c-17.333 5.33301 -34 8 -50 8c-23.333 0 -43.666 -7.83301 -60.999 -23.5s-28.333 -35.834 -33 -60.501l-16 -91h127l-11 -66
h-127l-78 -439h-83z" />
    <glyph glyph-name="g" unicode="g" horiz-adv-x="666" 
d="M77 -204c-41.333 30.667 -65.6689 72.3311 -73.002 124.998l85 25c6.66699 -39.333 23.334 -69.333 50.001 -90s61.667 -31 105 -31c56.667 0 105 17 145 51s65.333 79.333 76 136l11 65l-9 -2c-56.667 -58.667 -122 -88 -196 -88c-44.667 0 -84 9.16699 -118 27.5
s-60.167 43.833 -78.5 76.5s-27.5 70.334 -27.5 113.001c0 14.667 1.66699 32.667 5 54c8.66699 50.667 27.667 96.167 57 136.5s65.333 72 108 95s88.667 34.5 138 34.5c40.667 0 75.334 -8.16699 104.001 -24.5s51.667 -39.166 69 -68.499l12 2l13 72h82l-88 -499
c-9.33301 -52 -28.166 -97.167 -56.499 -135.5s-64.333 -68 -108 -89s-91.834 -31.5 -144.501 -31.5c-66 0 -119.667 15.333 -161 46zM385.997 85.4971c32.667 17 60 40.667 82 71s36 64.166 42 101.499c2.66699 12.667 4 26.334 4 41.001
c0 45.333 -13.833 81.833 -41.5 109.5s-64.5 41.5 -110.5 41.5c-36.667 0 -71.334 -8.66699 -104.001 -26s-60 -41.5 -82 -72.5s-36.333 -65.833 -43 -104.5c-2.66699 -17.333 -4 -30.333 -4 -39c0 -44 14 -79.667 42 -107s65 -41 111 -41c36.667 0 71.334 8.5 104.001 25.5
z" />
    <glyph glyph-name="h" unicode="h" horiz-adv-x="606" 
d="M162 735h82.998l-51 -294l8 2c22.667 26.667 48.5 47 77.5 61s59.833 21 92.5 21c56 0 100 -16.333 132 -49s48 -75.667 48 -129c0 -16.667 -1.33301 -32 -4 -46l-54 -301h-83l55 306c2 12 3 23.333 3 34c0 34 -9.5 60.833 -28.5 80.5s-46.167 29.5 -81.5 29.5
c-29.333 0 -57.666 -7 -84.999 -21s-50.666 -33 -69.999 -57s-31.333 -50.667 -36 -80l-52 -292h-83z" />
    <glyph glyph-name="i" unicode="i" horiz-adv-x="253" 
d="M153.5 615c-9.66699 9.33301 -14.499 21.667 -14.499 37c0 20 6 36.167 18 48.5s27.667 18.5 47 18.5c16.667 0 30 -5 40 -15s15 -22.667 15 -38c0 -18.667 -6.5 -34.167 -19.5 -46.5s-28.5 -18.5 -46.5 -18.5c-16.667 0 -29.834 4.66699 -39.501 14zM130.001 505.001h83
l-89 -505h-83z" />
    <glyph glyph-name="j" unicode="j" horiz-adv-x="264" 
d="M155.5 615c-9.66699 9.33301 -14.499 21.666 -14.499 36.999c0 20 6.16699 36.167 18.5 48.5s27.5 18.5 45.5 18.5c16.667 0 30 -4.83301 40 -14.5s15 -22.167 15 -37.5c0 -19.333 -6.33301 -35.166 -19 -47.499s-28.334 -18.5 -47.001 -18.5
c-16 0 -28.833 4.66699 -38.5 14zM-132.999 -211l6.99902 68.999c16 -5.33301 36.333 -8 61 -8c24 0 45 7.83301 63 23.5s29 35.5 33 59.5l101 572h83l-102 -577c-8.66699 -45.333 -27.667 -82.166 -57 -110.499s-63 -42.5 -101 -42.5c-33.333 0 -62.666 4.66699 -87.999 14
z" />
    <glyph glyph-name="k" unicode="k" horiz-adv-x="503" 
d="M162 735h83l-78 -446h9l254 216h112l-293 -242l207 -263h-109l-179 235h-10l-42 -235h-83z" />
    <glyph glyph-name="l" unicode="l" horiz-adv-x="236" 
d="M162 735h83l-130 -735h-83z" />
    <glyph glyph-name="m" unicode="m" horiz-adv-x="928" 
d="M122 505l79.999 -0.000976562l-12 -67l8 3c19.333 26.667 42.833 47.334 70.5 62.001s57.5 22 89.5 22c35.333 0 66.666 -9.33301 93.999 -28s45.666 -43 54.999 -73l11 6c22 30 48.667 53.167 80 69.5s65.333 24.5 102 24.5c52.667 0 94.667 -16.5 126 -49.5
s47 -75.833 47 -128.5c0 -16.667 -1.33301 -32.667 -4 -48l-53 -298h-83l54 305c2 12 3 23 3 33c0 34 -9.33301 61.167 -28 81.5s-43.667 30.5 -75 30.5c-41.333 0 -78.166 -14.333 -110.499 -43s-52.166 -64.667 -59.499 -108l-53 -299h-83l54 305c2 13.333 3 25.333 3 36
c0 34 -8.83301 60.667 -26.5 80s-42.5 29 -74.5 29c-42.667 0 -79.667 -14 -111 -42s-50.666 -64.333 -57.999 -109l-53 -299h-83z" />
    <glyph glyph-name="n" unicode="n" 
d="M122 505l83.001 0.000976562l-12 -69l9 3c22 28 47.667 49.167 77 63.5s60 21.5 92 21.5c56 0 100 -16.333 132 -49s48 -75.334 48 -128.001c0 -16.667 -1.33301 -32.667 -4 -48l-53 -299h-83l54 304c2 12 3 23.667 3 35c0 34 -9.5 60.833 -28.5 80.5
s-46.167 29.5 -81.5 29.5c-28.667 0 -56.834 -7 -84.501 -21s-51 -33 -70 -57s-30.833 -50.333 -35.5 -79l-52 -292h-83z" />
    <glyph glyph-name="o" unicode="o" horiz-adv-x="642" 
d="M155 8c-34.667 18.667 -61.499 44.667 -80.499 78s-28.5 72 -28.5 116c0 15.333 1.66699 34 5 56c9.33301 52 28.833 98.167 58.5 138.5s66.5 71.833 110.5 94.5s92 34 144 34c46.667 0 87.5 -9.33301 122.5 -28s62 -44.834 81 -78.501s28.5 -72.5 28.5 -116.5
c0 -15.333 -1.66699 -33.666 -5 -54.999c-9.33301 -52 -28.833 -98.167 -58.5 -138.5s-66.667 -71.833 -111 -94.5s-92.5 -34 -144.5 -34c-46.667 0 -87.334 9.33301 -122.001 28zM384.001 81.5c32.667 17.667 60 41.832 82 72.499s36.333 65.334 43 104.001
c2.66699 12.667 4 26.334 4 41.001c0 45.333 -13.833 81.833 -41.5 109.5s-64.5 41.5 -110.5 41.5c-36.667 0 -71.334 -8.66699 -104.001 -26s-60 -41.5 -82 -72.5s-36.333 -65.833 -43 -104.5c-2.66699 -12.667 -4 -26.334 -4 -41.001
c0 -45.333 13.833 -81.833 41.5 -109.5s64.5 -41.5 110.5 -41.5c36.667 0 71.334 8.83301 104.001 26.5z" />
    <glyph glyph-name="p" unicode="p" horiz-adv-x="666" 
d="M513 496.5c34 -19 60.332 -45.499 78.999 -79.499s28 -73 28 -117c0 -15.333 -1.66699 -33 -5 -53c-9.33301 -50.667 -28.833 -96.334 -58.5 -137.001s-66 -72.5 -109 -95.5s-88.5 -34.5 -136.5 -34.5c-41.333 0 -76.833 8.66699 -106.5 26s-51.167 41.333 -64.5 72
l-11 -3l-54 -305h-83l130 735h83l-14 -77l8 3c24 30.667 52.833 54 86.5 70s70.834 24 111.501 24c43.333 0 82 -9.5 116 -28.5zM281.499 423.001c-32.333 -18 -59.668 -42.501 -82.001 -73.501s-36.833 -65.167 -43.5 -102.5c-2.66699 -12.667 -4 -25.667 -4 -39
c0 -45.333 13.833 -82.166 41.5 -110.499s64.5 -42.5 110.5 -42.5c36.667 0 71.334 9 104.001 27s60.167 42.5 82.5 73.5s36.5 65.167 42.5 102.5c2.66699 18.667 4 32 4 40c0 44.667 -14 81.167 -42 109.5s-64.667 42.5 -110 42.5c-36.667 0 -71.167 -9 -103.5 -27z" />
    <glyph glyph-name="q" unicode="q" horiz-adv-x="666" 
d="M462 498.5c29.333 -17.667 50.665 -42.167 63.998 -73.5l12 3l14 77h83l-130 -735h-83l54 305l-9 -3c-23.333 -30 -52.166 -52.833 -86.499 -68.5s-71.833 -23.5 -112.5 -23.5c-43.333 0 -81.666 9.5 -114.999 28.5s-59.333 45.333 -78 79s-28 72.167 -28 115.5
c0 15.333 1.66699 33.666 5 54.999c8.66699 50.667 27.834 96.334 57.501 137.001s66.167 72.5 109.5 95.5s89 34.5 137 34.5c41.333 0 76.666 -8.83301 105.999 -26.5zM257.999 423.5c-32.667 -17.667 -60 -42.001 -82 -73.001s-36.333 -65.5 -43 -103.5
c-2.66699 -12.667 -4 -25.667 -4 -39c0 -45.333 13.833 -82.166 41.5 -110.499s64.5 -42.5 110.5 -42.5c36.667 0 71.334 9 104.001 27s60.167 42.5 82.5 73.5s36.5 65.167 42.5 102.5c2.66699 12.667 4 26 4 40c0 44.667 -13.833 81.167 -41.5 109.5
s-64.5 42.5 -110.5 42.5c-36.667 0 -71.334 -8.83301 -104.001 -26.5z" />
    <glyph glyph-name="r" unicode="r" horiz-adv-x="394" 
d="M122 505h81.001l-13 -68l9 2c15.333 22.667 36.5 41 63.5 55s54.167 21 81.5 21c12 0 23.5 -1.5 34.5 -4.5s19.833 -6.5 26.5 -10.5l-8 -74c-21.333 9.33301 -44.333 14 -69 14c-39.333 0 -74.333 -16 -105 -48s-50.334 -73 -59.001 -123l-48 -269h-83z" />
    <glyph glyph-name="s" unicode="s" horiz-adv-x="545" 
d="M90 21c-35.333 27.333 -53.002 65.3301 -53.002 113.997c0 8.66699 1.33301 21.667 4 39l79 -6c-1.33301 -10.667 -2 -18 -2 -22c0 -30 11.167 -53.5 33.5 -70.5s53.833 -25.5 94.5 -25.5c40 0 73.167 8.16699 99.5 24.5s41.833 38.5 46.5 66.5
c0.666992 3.33301 1 8 1 14c0 20 -8.5 33.5 -25.5 40.5s-43.833 13.167 -80.5 18.5l-21 3c-54.667 5.33301 -99 17.166 -133 35.499s-51 48.833 -51 91.5c0 9.33301 1 19 3 29c8.66699 46.667 33.334 83.667 74.001 111s91 41 151 41c58 0 104 -13 138 -39
s51 -60.667 51 -104c0 -9.33301 -1 -19.666 -3 -30.999l-80 6c0.666992 4 1 9.66699 1 17c0 25.333 -9.83301 45.166 -29.5 59.499s-46.5 21.5 -80.5 21.5c-42 0 -76.667 -9.5 -104 -28.5s-41 -44.167 -41 -75.5c0 -14.667 5.5 -25.667 16.5 -33
s22.833 -12.166 35.5 -14.499s37 -6.16602 73 -11.499c55.333 -6.66699 100 -19.167 134 -37.5s51 -49.166 51 -92.499c0 -9.33301 -1 -19.666 -3 -30.999c-8.66699 -48 -33 -85.167 -73 -111.5s-91.667 -39.5 -155 -39.5c-65.333 0 -115.666 13.667 -150.999 41z" />
    <glyph glyph-name="t" unicode="t" horiz-adv-x="391" 
d="M129 13c-21.333 21.333 -32.001 50.333 -32.001 87c0 11.333 1 22.333 3 33l55 306h-82l11 66h82l47 163h66l-30 -163h129l-11 -66h-129l-55 -308c-1.33301 -9.33301 -2 -16.333 -2 -21c0 -18 5.33301 -32.333 16 -43s25.334 -16 44.001 -16c21.333 0 43 3.33301 65 10
l-8 -68c-11.333 -4 -24.5 -7 -39.5 -9s-28.5 -3 -40.5 -3c-38 0 -67.667 10.667 -89 32z" />
    <glyph glyph-name="u" unicode="u" 
d="M483 0l-82.998 -0.000976562l13 69l-9 -3c-22 -27.333 -47.667 -48.166 -77 -62.499s-60 -21.5 -92 -21.5c-56.667 0 -100.834 16.167 -132.501 48.5s-47.5 74.833 -47.5 127.5c0 17.333 1.33301 33.666 4 48.999l52 298h83l-53 -304c-2.66699 -17.333 -4 -29.333 -4 -36
c0 -33.333 9.66699 -59.666 29 -78.999s46.666 -29 81.999 -29c29.333 0 57.5 6.83301 84.5 20.5s50 32.5 69 56.5s31.167 50.667 36.5 80l52 291h83z" />
    <glyph glyph-name="v" unicode="v" horiz-adv-x="526" 
d="M57 505h84l83 -439h10l239 439h86l-281 -505h-118z" />
    <glyph glyph-name="w" unicode="w" horiz-adv-x="840" 
d="M67 505h81l66 -423h9l188 423h106l41 -424h9l213 424h83l-258 -505h-119l-33 409h-10l-178 -409h-118z" />
    <glyph glyph-name="x" unicode="x" horiz-adv-x="512" 
d="M206 263l-136 242h87l105 -188h9l172 188h91l-224 -242l142 -263h-90l-109 206h-9l-182 -206h-94z" />
    <glyph glyph-name="y" unicode="y" horiz-adv-x="533" 
d="M-33 -207l9.00195 71c20.667 -9.33301 41 -14 61 -14c20.667 0 39 5.33301 55 16s29.667 24 41 40s25 37.333 41 64l20 33l-135 502h85l103 -395h9l219 395h90l-291 -516c-28.667 -50 -52.334 -88.667 -71.001 -116s-41 -50.333 -67 -69s-55.667 -28 -89 -28
c-28.667 0 -55.334 5.66699 -80.001 17z" />
    <glyph glyph-name="z" unicode="z" horiz-adv-x="520" 
d="M-7 36l378 385l3 9h-300l13 75h436l-6 -36l-377 -384l-3 -10h319l-13 -75h-456z" />
    <glyph glyph-name="braceleft" unicode="{" horiz-adv-x="347" 
d="M93.5 -154c-17.667 17.333 -26.5029 39.999 -26.5029 67.999c0 4.66699 0.666992 12.334 2 23.001l42 242c0.666992 4 1 9.33301 1 16c0 14.667 -4.33301 26 -13 34s-21 12 -37 12h-13l15 83h8c18.667 0 35.334 6.33301 50.001 19s23.667 28.667 27 48l41 233
c6 34 20.833 61 44.5 81s52.5 30 86.5 30h99l-11 -62h-56c-21.333 0 -40.166 -7.16699 -56.499 -21.5s-26.5 -32.166 -30.5 -53.499l-40 -221c-4.66699 -26.667 -15.667 -47.834 -33 -63.501s-39.333 -24.5 -66 -26.5l-8 -9c22.667 -1.33301 40.834 -8.83301 54.501 -22.5
s20.5 -31.167 20.5 -52.5c0 -4 -0.666992 -10.667 -2 -20l-41 -232c-0.666992 -3.33301 -1 -8.66602 -1 -15.999c0 -16.667 5 -29.834 15 -39.501s24.333 -14.5 43 -14.5h62l-12 -61h-94c-29.333 0 -52.833 8.66699 -70.5 26z" />
    <glyph glyph-name="bar" unicode="|" horiz-adv-x="269" 
d="M180 735h79l-170 -965h-79z" />
    <glyph glyph-name="braceright" unicode="}" horiz-adv-x="346" 
d="M-64 -180l10.001 61.0039h57c21.333 0 40.333 7.16699 57 21.5s26.667 32.166 30 53.499l41 232c4.66699 26.667 16 48 34 64s40 24.667 66 26l8 9c-23.333 2 -41.833 9.83301 -55.5 23.5s-20.5 31.5 -20.5 53.5c0 3.33301 0.666992 9.66602 2 18.999l39 221
c0.666992 3.33301 1 8.66602 1 15.999c0 16.667 -5 29.667 -15 39s-24.333 14 -43 14h-60l10 62h94c30 0 53.833 -8.66699 71.5 -26s26.5 -40 26.5 -68c0 -4.66699 -0.666992 -12.334 -2 -23.001l-42 -233c-0.666992 -3.33301 -1 -8 -1 -14
c0 -14.667 4.5 -26.167 13.5 -34.5s21.5 -12.5 37.5 -12.5h13l-14 -83h-8c-18.667 0 -35.334 -6.33301 -50.001 -19s-24 -28.667 -28 -48l-42 -242c-6 -34 -21 -61.167 -45 -81.5s-52.667 -30.5 -86 -30.5h-99z" />
    <glyph glyph-name="asciitilde" unicode="~" horiz-adv-x="662" 
d="M398 231.5c-20 10.333 -43.665 25.5 -70.998 45.5c-24.667 18 -45 31.333 -61 40s-32.333 13 -49 13c-20.667 0 -42.334 -6.33301 -65.001 -19s-43 -29 -61 -49l-30 55c21.333 26 47.666 46.833 78.999 62.5s60 23.5 86 23.5c23.333 0 44.833 -5.16699 64.5 -15.5
s43.5 -25.833 71.5 -46.5c24.667 -18 44.667 -31.167 60 -39.5s31 -12.5 47 -12.5c20.667 0 42 6.16699 64 18.5s41.333 28.5 58 48.5l31 -55c-21.333 -26 -47 -46.667 -77 -62s-57.667 -23 -83 -23c-22.667 0 -44 5.16699 -64 15.5z" />
    <glyph glyph-name="exclamdown" unicode="&#xa1;" horiz-adv-x="255" 
d="M118 392.5c-9.33301 9 -14 20.501 -14 34.501c0 18 5.66699 32.667 17 44s25.666 17 42.999 17c15.333 0 27.5 -4.33301 36.5 -13s13.5 -20.334 13.5 -35.001c0 -17.333 -5.5 -31.833 -16.5 -43.5s-25.167 -17.5 -42.5 -17.5c-15.333 0 -27.666 4.5 -36.999 13.5z
M28 -44.999l75 304h51l-34 -304l-32 -185h-92z" />
    <glyph glyph-name="cent" unicode="&#xa2;" horiz-adv-x="612" 
d="M256 424c-31.333 -17.333 -57.999 -41.502 -79.999 -72.502s-36.333 -65.833 -43 -104.5c-2.66699 -13.333 -4 -27.333 -4 -42c0 -45.333 13.167 -81.666 39.5 -108.999s61.166 -41 104.499 -41c41.333 0 79.833 11.5 115.5 34.5s61.5 52.5 77.5 88.5l80 -16
c-18 -47.333 -48.667 -87.166 -92 -119.499s-91.666 -52.166 -144.999 -59.499l-16 -92h-84l16 93c-54.667 8.66699 -98 32.5 -130 71.5s-48 87.5 -48 145.5c0 21.333 1.66699 40.333 5 57c8 46.667 24.833 89.167 50.5 127.5s57.5 69.5 95.5 93.5s79 38.667 123 44l15 86
h84l-15 -88c50.667 -9.33301 91.667 -30.833 123 -64.5s46.666 -73.834 45.999 -120.501l-80 -5c-2.66699 36 -17 64.833 -43 86.5s-58 32.5 -96 32.5c-34.667 0 -67.667 -8.66699 -99 -26z" />
    <glyph glyph-name="sterling" unicode="&#xa3;" horiz-adv-x="612" 
d="M20 96c24 4 44.999 12.501 62.999 25.501s34.667 34.833 50 65.5s27.666 73 36.999 127l-98 -3l13 75h100l25 149c6.66699 38 20.834 71.667 42.501 101s48.334 52.333 80.001 69s65.5 25 101.5 25c52.667 0 94.834 -16.833 126.501 -50.5s47.5 -77.5 47.5 -131.5
c0 -14.667 -0.666992 -26 -2 -34l-79 5c1.33301 12 2 21 2 27c0 34 -8.83301 61.167 -26.5 81.5s-41.167 30.5 -70.5 30.5c-33.333 0 -62.833 -12.333 -88.5 -37s-41.834 -55.334 -48.501 -92.001l-25 -143h249l-13 -75l-253 -3
c-10.667 -49.333 -23.167 -88.833 -37.5 -118.5s-29.833 -52 -46.5 -67s-36.667 -27.833 -60 -38.5l-5 -9h423l-13 -75h-508z" />
    <glyph glyph-name="currency" unicode="&#xa4;" horiz-adv-x="732" 
d="M8 6l112 89c-18.667 33.333 -28 71 -28 113c0 18 1.33301 34.667 4 50c10 58.667 35.667 110.334 77 155.001l-76 86l59 54l79 -89c50.667 32.667 107.667 49 171 49c64 0 117.667 -17.333 161 -52l114 91l42 -54l-111 -89c18.667 -32 28 -69.333 28 -112
c0 -18 -1.33301 -34.667 -4 -50c-11.333 -60.667 -37.333 -112.334 -78 -155.001l79 -86l-58 -53l-80 89c-53.333 -32.667 -111.333 -49 -174 -49c-65.333 0 -118.333 17.333 -159 52l-113 -92zM430.5 85.5c32.333 17 59.334 40.5 81.001 70.5s35.834 64 42.501 102
c2.66699 12.667 4 26 4 40c0 44.667 -13.833 80.5 -41.5 107.5s-64.834 40.5 -111.501 40.5c-36 0 -70.167 -8.66699 -102.5 -26s-59.5 -41 -81.5 -71s-36.333 -64 -43 -102c-2 -12.667 -3 -25.667 -3 -39c0 -44.667 13.5 -80.5 40.5 -107.5s63.833 -40.5 110.5 -40.5
c37.333 0 72.166 8.5 104.499 25.5z" />
    <glyph glyph-name="yen" unicode="&#xa5;" horiz-adv-x="691" 
d="M270 80h-236l12 67h236l15 78h-237l11 66h215l-165 414h101l134 -364h10l260 365l106 -1l-310 -414h212l-11 -66h-235l-14 -78h234l-12 -67h-235l-14 -80h-91z" />
    <glyph glyph-name="brokenbar" unicode="&#xa6;" horiz-adv-x="267" 
d="M179 735h79l-72 -409h-78zM81 179h79l-72 -409h-79z" />
    <glyph glyph-name="section" unicode="&#xa7;" horiz-adv-x="600" 
d="M136 -134.5c-29.333 13.667 -51.9971 32.6621 -67.9971 56.9951s-24 51.833 -24 82.5c0 10 1 20.333 3 31l82 -5c-0.666992 -4 -1 -9.33301 -1 -16c0 -27.333 10.5 -49.166 31.5 -65.499s48.833 -24.5 83.5 -24.5c26.667 0 51 5 73 15s39.5 23.833 52.5 41.5
s19.5 36.834 19.5 57.501c0 19.333 -6.5 34.333 -19.5 45s-29 18.5 -48 23.5s-45.167 10.167 -78.5 15.5c-56.667 9.33301 -101.167 22.833 -133.5 40.5s-48.5 46.167 -48.5 85.5c0 10.667 0.666992 19 2 25c5.33301 30.667 21 57.834 47 81.501s57.667 38.834 95 45.501
c-20.667 7.33301 -37.5 21 -50.5 41s-19.5 43 -19.5 69c0 10 1 19.333 3 28c6 32 19.833 60.5 41.5 85.5s48.834 44.667 81.501 59s67.667 21.5 105 21.5s70.166 -7 98.499 -21s50.166 -33.333 65.499 -58s23 -52.667 23 -84c0 -6 -0.666992 -15 -2 -27l-83 6
c1.33301 8 2 14 2 18c0 26 -10 46.833 -30 62.5s-46.333 23.5 -79 23.5c-39.333 0 -72.5 -9.83301 -99.5 -29.5s-40.5 -43.834 -40.5 -72.501c0 -17.333 6.33301 -31 19 -41s27.334 -17.5 44.001 -22.5s43.667 -11.833 81 -20.5c38.667 -7.33301 70.667 -15.166 96 -23.499
s46.666 -20.666 63.999 -36.999s26 -38.166 26 -65.499c0 -11.333 -0.666992 -20 -2 -26c-5.33301 -30 -21.333 -56.833 -48 -80.5s-59.334 -38.834 -98.001 -45.501c23.333 -7.33301 42.166 -21.333 56.499 -42s21.5 -44.667 21.5 -72c0 -5.33301 -0.666992 -13.333 -2 -24
c-6 -34 -20.5 -64.5 -43.5 -91.5s-51.667 -48.167 -86 -63.5s-71.5 -23 -111.5 -23c-38 0 -71.667 6.83301 -101 20.5zM418.503 221.995c29.667 20.667 44.502 45.667 44.502 75c0 19.333 -7.16699 34 -21.5 44s-29.333 16.667 -45 20s-39.834 7 -72.501 11l-15.5 2
c-5 0.666992 -9.16699 1 -12.5 1c-38.667 -2 -72.334 -12.333 -101.001 -31s-45 -39.667 -49 -63c-1.33301 -8 -2 -13.333 -2 -16c0 -18 6.5 -31.833 19.5 -41.5s28 -16.5 45 -20.5s39.833 -8 68.5 -12c6 0 11.667 -0.5 17 -1.5s9.66602 -1.5 12.999 -1.5
c44.667 2 81.834 13.333 111.501 34z" />
    <glyph glyph-name="dieresis" unicode="&#xa8;" horiz-adv-x="451" 
d="M136 614.5c-9.33301 9 -14 20.165 -14 33.498c0 6 0.333008 10.333 1 13c2 14.667 8.33301 26.334 19 35.001s23.667 13 39 13s27.666 -4.5 36.999 -13.5s14 -20.5 14 -34.5c0 -17.333 -5.66699 -31.666 -17 -42.999s-25.666 -17 -42.999 -17
c-14.667 0 -26.667 4.5 -36 13.5zM374.5 614.498c-9 9 -13.499 20.5 -13.499 34.5c0 18 5.66699 32.5 17 43.5s25.333 16.5 42 16.5c16 0 28.667 -4.5 38 -13.5s14 -20.833 14 -35.5l-1 -10c-3.33301 -14.667 -10.333 -26.5 -21 -35.5s-23.334 -13.5 -38.001 -13.5
c-16 0 -28.5 4.5 -37.5 13.5z" />
    <glyph glyph-name="copyright" unicode="&#xa9;" horiz-adv-x="928" 
d="M212 -111c-53.333 27.333 -94.5 65.833 -123.5 115.5s-43.5 107.167 -43.5 172.5c0 24.667 2.66699 52 8 82c13.333 76 42.666 144.333 87.999 205s101.833 108.167 169.5 142.5s140.5 51.5 218.5 51.5c71.333 0 133.5 -13.667 186.5 -41s94 -66 123 -116
s43.5 -107.333 43.5 -172c0 -28 -2.33301 -55 -7 -81c-14 -77.333 -43.667 -146.333 -89 -207s-101.666 -108 -168.999 -142s-140.333 -51 -219 -51c-70.667 0 -132.667 13.667 -186 41zM589 -50.5c59.333 30.333 108.836 72.502 148.503 126.502s65.5 115 77.5 183
c4 23.333 6 46 6 68c0 53.333 -11.833 100.833 -35.5 142.5s-57.334 74 -101.001 97s-94.834 34.5 -153.501 34.5c-68 0 -131.833 -15.333 -191.5 -46s-109.334 -72.834 -149.001 -126.501s-65.5 -113.834 -77.5 -180.501c-4 -24 -6 -47.333 -6 -70
c0 -54.667 11.833 -102.667 35.5 -144s57.5 -73.333 101.5 -96s95.333 -34 154 -34c68 0 131.667 15.167 191 45.5zM307.003 10.502c-34.667 18.333 -61.3379 44.168 -80.0049 77.501s-28 71.666 -28 114.999c0 15.333 1.66699 33.666 5 54.999
c8.66699 51.333 27.834 97 57.501 137s66.334 71.333 110.001 94s91.167 34 142.5 34c38.667 0 73.834 -8 105.501 -24s57 -38 76 -66s29.167 -59.333 30.5 -94l-58 -6c-4 38.667 -20.667 70 -50 94s-65 36 -107 36c-38.667 0 -75.167 -9.16699 -109.5 -27.5
s-63.166 -44 -86.499 -77s-38.666 -70.167 -45.999 -111.5c-2.66699 -13.333 -4 -27.666 -4 -42.999c0 -48.667 14.833 -88 44.5 -118s69.5 -45 119.5 -45c46 0 89.833 14 131.5 42s71.167 63 88.5 105l50 -19c-14 -36 -35 -68.167 -63 -96.5s-60.167 -50.333 -96.5 -66
s-73.5 -23.5 -111.5 -23.5c-46 0 -86.333 9.16699 -121 27.5z" />
    <glyph glyph-name="guillemotleft" unicode="&#xab;" horiz-adv-x="636" 
d="M48 253l244 252h101l-248 -252l157 -253h-97zM286 253l243 252h102l-248 -252l156 -253h-97z" />
    <glyph glyph-name="logicalnot" unicode="&#xac;" horiz-adv-x="645" 
d="M524 286h-467l13 70h533l-51 -286h-65z" />
    <glyph glyph-name="registered" unicode="&#xae;" horiz-adv-x="928" 
d="M212 -111c-53.333 27.333 -94.5 66 -123.5 116s-43.5 107.333 -43.5 172c0 24.667 2.66699 52 8 82c13.333 76 42.666 144.333 87.999 205s101.833 108.167 169.5 142.5s140.5 51.5 218.5 51.5c71.333 0 133.5 -13.667 186.5 -41s94 -66 123 -116
s43.5 -107.333 43.5 -172c0 -28 -2.33301 -55 -7 -81c-14 -77.333 -43.667 -146.333 -89 -207s-101.666 -108 -168.999 -142s-140.333 -51 -219 -51c-70.667 0 -132.667 13.667 -186 41zM589 -50.5c59.333 30.333 108.836 72.502 148.503 126.502s65.5 115 77.5 183
c4 23.333 6 46 6 68c0 53.333 -11.833 100.833 -35.5 142.5s-57.334 74 -101.001 97s-94.834 34.5 -153.501 34.5c-68 0 -131.833 -15.333 -191.5 -46s-109.334 -72.834 -149.001 -126.501s-65.5 -113.834 -77.5 -180.501c-4 -24 -6 -47.333 -6 -70
c0 -54.667 11.833 -102.667 35.5 -144s57.5 -73.333 101.5 -96s95.333 -34 154 -34c68 0 131.667 15.167 191 45.5zM340.003 506.002l215.001 -0.000976562c40.667 0 74 -12 100 -36s39 -55 39 -93c0 -31.333 -8.33301 -59.666 -25 -84.999s-39.334 -45.333 -68.001 -60
s-59.667 -22 -93 -22h-7l125 -200h-79l-117 198h-77l-35 -198h-65zM503.004 262.001c31.333 0 58.833 9.16895 82.5 27.502s38.167 42.166 43.5 71.499c0.666992 3.33301 1 8.66602 1 15.999c0 22.667 -8 40.5 -24 53.5s-37.667 19.5 -65 19.5h-146l-33 -188h141z" />
    <glyph glyph-name="macron" unicode="&#xaf;" horiz-adv-x="411" 
d="M125 668h310l-13 -66h-310z" />
    <glyph glyph-name="degree" unicode="&#xb0;" horiz-adv-x="503" 
d="M146 390c-31.333 28.667 -46.998 67.334 -46.998 116.001c0 14.667 1.33301 28.334 4 41.001c10 57.333 35.833 103.166 77.5 137.499s92.167 51.5 151.5 51.5c53.333 0 95.666 -14.5 126.999 -43.5s47 -67.833 47 -116.5c0 -14.667 -1.33301 -28.334 -4 -41.001
c-10 -56.667 -35.833 -102.167 -77.5 -136.5s-91.834 -51.5 -150.501 -51.5c-54 0 -96.667 14.333 -128 43zM383.002 445c30.667 26 49.668 60 57.001 102c1.33301 6.66699 2 15.667 2 27c0 32 -9.66699 57.167 -29 75.5s-46.333 27.5 -81 27.5
c-42.667 0 -79.334 -13 -110.001 -39s-49.667 -60.333 -57 -103c-2 -10 -3 -19.333 -3 -28c0 -31.333 10 -56 30 -74s47.333 -27 82 -27c42 0 78.333 13 109 39z" />
    <glyph glyph-name="plusminus" unicode="&#xb1;" horiz-adv-x="570" 
d="M269 409h-191l14 77h191l21 117h85l-20 -117h191l-14 -77h-191l-21 -125h-86zM39 188h468l-13 -77h-468z" />
    <glyph glyph-name="acute" unicode="&#xb4;" horiz-adv-x="301" 
d="M109 593l132 142h96l-139 -142h-89z" />
    <glyph glyph-name="uni00B5" unicode="&#xb5;" horiz-adv-x="588" 
d="M121 505h83.002l-52 -294c-2 -12.667 -3 -25 -3 -37c0 -33.333 9.33301 -58.833 28 -76.5s44.667 -26.5 78 -26.5c24 0 47.833 6 71.5 18s44.167 29 61.5 51s28.666 47.333 33.999 76l52 289h83l-90 -505h-81l15 72c-20 -24.667 -43.333 -43.167 -70 -55.5
s-54.334 -18.5 -83.001 -18.5s-53.5 5.83301 -74.5 17.5s-35.833 29.5 -44.5 53.5l-47 -255h-83z" />
    <glyph glyph-name="paragraph" unicode="&#xb6;" horiz-adv-x="718" 
d="M289 324c-60 0 -107.502 14.333 -142.502 43s-52.5 67 -52.5 115c0 8 1.33301 20.667 4 38c10.667 56 38.834 100.833 84.501 134.5s101.834 50.5 168.501 50.5h367l-11 -64h-93l-153 -863h-75l153 863h-122l-152 -863h-75z" />
    <glyph glyph-name="periodcentered" unicode="&#xb7;" horiz-adv-x="212" 
d="M71 244.5c-9.33301 9 -14 20.167 -14 33.5c0 18 5.66699 32.667 17 44s25.333 17 42 17c16 0 28.667 -4.5 38 -13.5s14 -20.833 14 -35.5l-1 -10c-3.33301 -14.667 -10.5 -26.5 -21.5 -35.5s-23.833 -13.5 -38.5 -13.5s-26.667 4.5 -36 13.5z" />
    <glyph glyph-name="cedilla" unicode="&#xb8;" horiz-adv-x="312" 
d="M7.5 -210.5c-18.333 14.333 -27.833 32.167 -28.5 53.5l53 7c0 -12 3.83301 -21.5 11.5 -28.5s18.167 -10.5 31.5 -10.5c17.333 0 32.5 5.83301 45.5 17.5s19.5 25.5 19.5 41.5c0 11.333 -4.83301 20.5 -14.5 27.5s-22.834 10.5 -39.501 10.5h-54l35 112h61l-25 -69
c26.667 0 48.334 -7.5 65.001 -22.5s25 -34.167 25 -57.5c0 -30 -10.833 -54.667 -32.5 -74s-49.167 -29 -82.5 -29c-28.667 0 -52.167 7.16699 -70.5 21.5z" />
    <glyph glyph-name="guillemotright" unicode="&#xbb;" horiz-adv-x="635" 
d="M254 253l-157 252h96l157 -252l-244 -253h-101zM491 253l-157 252h97l156 -252l-243 -253h-101z" />
    <glyph glyph-name="questiondown" unicode="&#xbf;" horiz-adv-x="517" 
d="M266.5 416.5c-9 9 -13.499 20.5 -13.499 34.5c0 18 5.66699 32.667 17 44s25.333 17 42 17c15.333 0 27.666 -4.5 36.999 -13.5s14 -20.5 14 -34.5c0 -18 -5.66699 -32.667 -17 -44s-25.333 -17 -42 -17c-16 0 -28.5 4.5 -37.5 13.5zM69.001 -209
c-30 15.333 -53.333 36.3359 -70 63.0029s-25 56.667 -25 90c0 12 1 24 3 36c6.66699 38.667 23.167 72.667 49.5 102s60.833 57.666 103.5 84.999c34 18.667 59.333 39 76 61s28.334 52.667 35.001 92l83 -5c-8.66699 -53.333 -23.5 -94.833 -44.5 -124.5
s-51.167 -57.5 -90.5 -83.5c-34.667 -19.333 -62.334 -39.5 -83.001 -60.5s-33.667 -46.167 -39 -75.5c-1.33301 -5.33301 -2 -13.333 -2 -24c0 -28.667 10.333 -52.167 31 -70.5s48 -27.5 82 -27.5c45.333 0 84.833 15.667 118.5 47s54.167 70.666 61.5 117.999l91 -5
c-8.66699 -46.667 -26 -88.334 -52 -125.001s-58.5 -65.167 -97.5 -85.5s-81.5 -30.5 -127.5 -30.5c-38.667 0 -73 7.66699 -103 23z" />
    <glyph glyph-name="Agrave" unicode="&#xc0;" horiz-adv-x="713" 
d="M401 788l-89 113h101l85 -113h-97zM375 705h124l140 -705h-87l-32 158h-359l-88 -158h-88zM507 233l-78 392h-9l-219 -392h306z" />
    <glyph glyph-name="Aacute" unicode="&#xc1;" horiz-adv-x="713" 
d="M529 901h105l-129 -113h-101zM375 705h124l140 -705h-87l-32 158h-359l-88 -158h-88zM507 233l-78 392h-9l-219 -392h306z" />
    <glyph glyph-name="Acircumflex" unicode="&#xc2;" horiz-adv-x="713" 
d="M521 901l96 -113h-83l-64 62h-10l-85 -62h-87l135 113h98zM375 705h124l140 -705h-87l-32 158h-359l-88 -158h-88zM507 233l-78 392h-9l-219 -392h306z" />
    <glyph glyph-name="Atilde" unicode="&#xc3;" horiz-adv-x="713" 
d="M474.5 807c-11.667 6 -23.833 14.667 -36.5 26c-8 7.33301 -15.167 12.833 -21.5 16.5s-13.5 5.5 -21.5 5.5c-13.333 0 -26.5 -4.5 -39.5 -13.5s-24.5 -20.5 -34.5 -34.5l-41 37c13.333 20.667 30.333 36.834 51 48.501s42.667 17.5 66 17.5
c18 0 32.5 -2.83301 43.5 -8.5s23.5 -13.834 37.5 -24.501c8.66699 -8 16.5 -14 23.5 -18s15.167 -6 24.5 -6c14.667 0 28.5 4.66699 41.5 14s24.167 21 33.5 35l41 -37c-13.333 -20.667 -30.5 -37 -51.5 -49s-43.833 -18 -68.5 -18c-20 0 -35.833 3 -47.5 9zM375.001 705
h124l140 -705h-87l-32 158h-359l-88 -158h-88zM507.001 233l-78 392h-9l-219 -392h306z" />
    <glyph glyph-name="Adieresis" unicode="&#xc4;" horiz-adv-x="713" 
d="M302.5 804.5c-9.66699 9.66699 -14.5 22.499 -14.5 38.499c0 19.333 6.16699 35 18.5 47s27.833 18 46.5 18c16.667 0 29.834 -4.66699 39.501 -14s14.5 -21.666 14.5 -36.999c0 -19.333 -6.33301 -35.333 -19 -48s-28 -19 -46 -19
c-16.667 0 -29.834 4.83301 -39.501 14.5zM533.5 803.999c-9.66699 9.33301 -14.499 21.666 -14.499 36.999c0 20 6.16699 36.167 18.5 48.5s27.5 18.5 45.5 18.5c16.667 0 30 -4.66699 40 -14s15 -21.666 15 -36.999c0 -19.333 -6.33301 -35.333 -19 -48s-28 -19 -46 -19
c-16.667 0 -29.834 4.66699 -39.501 14zM375.001 704.999h124l140 -705h-87l-32 158h-359l-88 -158h-88zM507.001 232.999l-78 392h-9l-219 -392h306z" />
    <glyph glyph-name="Aring" unicode="&#xc5;" horiz-adv-x="713" 
d="M389.5 791.5c-16.333 15 -24.499 34.5 -24.499 58.5c0 30.667 10.667 56.167 32 76.5s48 30.5 80 30.5c26.667 0 48 -7.5 64 -22.5s24 -34.5 24 -58.5c0 -30 -10.833 -55.333 -32.5 -76s-47.834 -31 -78.501 -31c-26.667 0 -48.167 7.5 -64.5 22.5zM500.001 830
c14 14 20.999 30.667 20.999 50c0 11.333 -3.83301 20.333 -11.5 27s-17.5 10 -29.5 10c-19.333 0 -36 -6.66699 -50 -20s-21 -30 -21 -50c0 -11.333 3.83301 -20.5 11.5 -27.5s17.834 -10.5 30.501 -10.5c18.667 0 35 7 49 21zM375 705h124l140 -705h-87l-32 158h-359
l-88 -158h-88zM507 233l-78 392h-9l-219 -392h306z" />
    <glyph glyph-name="AE" unicode="&#xc6;" horiz-adv-x="930" 
d="M467 705h492l-14 -80h-327l-40 -224h288l-13 -75h-288l-43 -246h336l-14 -80h-427l24 142h-255l-98 -142h-104zM454 217l73 417h-8l-283 -417h218z" />
    <glyph glyph-name="Ccedilla" unicode="&#xc7;" horiz-adv-x="803" 
d="M490.5 79c37.667 16 71.3311 38 100.998 66s52.5 59.333 68.5 94l85 -23c-19.333 -44.667 -47.333 -84.834 -84 -120.501s-78.667 -64.167 -126 -85.5s-95.666 -33 -144.999 -35l-10 -24c26.667 0 48.667 -7.66699 66 -23s26 -34.666 26 -57.999
c0 -29.333 -11.167 -53.666 -33.5 -72.999s-50.166 -29 -83.499 -29c-28 0 -51.333 7.16699 -70 21.5s-28.334 32.166 -29.001 53.499l54 7c0 -12 3.83301 -21.5 11.5 -28.5s17.834 -10.5 30.501 -10.5c17.333 0 32.5 5.66699 45.5 17s19.5 25 19.5 41
c0 12 -4.66699 21.5 -14 28.5s-22.333 10.5 -39 10.5h-54l22 69c-54.667 5.33301 -102.167 21.5 -142.5 48.5s-71.333 62.333 -93 106s-32.5 93.167 -32.5 148.5c0 26.667 2.33301 52.667 7 78c12.667 71.333 39.334 135.166 80.001 191.499s91 100.5 151 132.5
s124.667 48 194 48c52.667 0 100.834 -11.333 144.501 -34s78.667 -53.667 105 -93s41.166 -83.333 44.499 -132l-89 -6c-2 35.333 -12.5 67.166 -31.5 95.499s-44 50.333 -75 66s-64.833 23.5 -101.5 23.5c-53.333 0 -103.666 -13 -150.999 -39s-87 -62 -119 -108
s-53 -98 -63 -156c-4 -22 -6 -43 -6 -63c0 -45.333 9.16699 -85.166 27.5 -119.499s44.166 -61.166 77.499 -80.499s72.666 -29 117.999 -29c38 0 75.833 8 113.5 24z" />
    <glyph glyph-name="Egrave" unicode="&#xc8;" horiz-adv-x="639" 
d="M383 788l-90 113h101l86 -113h-97zM175 705h484l-14 -80h-393l-39 -220h353l-14 -80h-353l-42 -245h402l-15 -80h-493z" />
    <glyph glyph-name="Eacute" unicode="&#xc9;" horiz-adv-x="639" 
d="M510 901h105l-129 -113h-100zM175 705h484l-14 -80h-393l-39 -220h353l-14 -80h-353l-42 -245h402l-15 -80h-493z" />
    <glyph glyph-name="Ecircumflex" unicode="&#xca;" horiz-adv-x="639" 
d="M502 901l96 -113h-82l-65 62h-9l-86 -62h-86l134 113h98zM175 705h484l-14 -80h-393l-39 -220h353l-14 -80h-353l-42 -245h402l-15 -80h-493z" />
    <glyph glyph-name="Edieresis" unicode="&#xcb;" horiz-adv-x="639" 
d="M283.5 804.5c-9.66699 9.66699 -14.498 22.499 -14.498 38.499c0 19.333 6.16699 35 18.5 47s27.833 18 46.5 18c16.667 0 30 -4.83301 40 -14.5s15 -22.167 15 -37.5c0 -19.333 -6.33301 -35.166 -19 -47.499s-28.334 -18.5 -47.001 -18.5
c-16.667 0 -29.834 4.83301 -39.501 14.5zM514.502 803.999c-9.66699 9.33301 -14.5 21.666 -14.5 36.999c0 20 6 36.167 18 48.5s27.667 18.5 47 18.5c16.667 0 29.834 -4.66699 39.501 -14s14.5 -21.666 14.5 -36.999c0 -19.333 -6.33301 -35.333 -19 -48s-28 -19 -46 -19
c-16.667 0 -29.834 4.66699 -39.501 14zM175.002 704.999h484l-14 -80h-393l-39 -220h353l-14 -80h-353l-42 -245h402l-15 -80h-493z" />
    <glyph glyph-name="Igrave" unicode="&#xcc;" horiz-adv-x="281" 
d="M185 788l-90 113h101l85 -113h-96zM175 705h91l-124 -705h-91z" />
    <glyph glyph-name="Iacute" unicode="&#xcd;" horiz-adv-x="281" 
d="M312 901h105l-129 -113h-100zM175 705h91l-124 -705h-91z" />
    <glyph glyph-name="Icircumflex" unicode="&#xce;" horiz-adv-x="281" 
d="M303 901l96 -113h-82l-65 62h-9l-86 -62h-86l134 113h98zM175 705h91l-124 -705h-91z" />
    <glyph glyph-name="Idieresis" unicode="&#xcf;" horiz-adv-x="281" 
d="M85.5 804.5c-9.66699 9.66699 -14.498 22.499 -14.498 38.499c0 19.333 6.16699 35 18.5 47s27.833 18 46.5 18c16.667 0 30 -4.83301 40 -14.5s15 -22.167 15 -37.5c0 -19.333 -6.33301 -35.166 -19 -47.499s-28.334 -18.5 -47.001 -18.5
c-16.667 0 -29.834 4.83301 -39.501 14.5zM316.502 803.999c-9.66699 9.33301 -14.499 21.666 -14.499 36.999c0 20 6.16699 36.167 18.5 48.5s27.5 18.5 45.5 18.5c16.667 0 30 -4.66699 40 -14s15 -21.666 15 -36.999c0 -19.333 -6.33301 -35.333 -19 -48s-28 -19 -46 -19
c-16.667 0 -29.834 4.66699 -39.501 14zM175.003 704.999h91l-124 -705h-91z" />
    <glyph glyph-name="Ntilde" unicode="&#xd1;" horiz-adv-x="755" 
d="M514.5 807c-11.667 6 -23.834 14.667 -36.501 26c-8 7.33301 -15.167 12.833 -21.5 16.5s-13.5 5.5 -21.5 5.5c-13.333 0 -26.5 -4.5 -39.5 -13.5s-24.5 -20.5 -34.5 -34.5l-40 37c12.667 20.667 29.334 36.834 50.001 48.501s42.667 17.5 66 17.5
c18 0 32.5 -2.83301 43.5 -8.5s23.5 -13.834 37.5 -24.501c8.66699 -8 16.5 -14 23.5 -18s15.167 -6 24.5 -6c14.667 0 28.5 4.66699 41.5 14s24.167 21 33.5 35l42 -37c-14 -20.667 -31.5 -37 -52.5 -49s-43.833 -18 -68.5 -18c-20 0 -35.833 3 -47.5 9zM175 705h130
l230 -585h11l103 585h91l-125 -705h-129l-230 585h-11l-103 -585h-92z" />
    <glyph glyph-name="Ograve" unicode="&#xd2;" horiz-adv-x="864" 
d="M476 788l-90 113h101l85 -113h-96zM216.5 13c-49 25.333 -86.834 61.167 -113.501 107.5s-40 99.833 -40 160.5c0 26 2.33301 51.667 7 77c12.667 72 39.834 136.167 81.501 192.5s93.834 100.333 156.501 132s130.334 47.5 203.001 47.5
c65.333 0 122.666 -12.833 171.999 -38.5s87.333 -61.667 114 -108s40 -99.833 40 -160.5c0 -26.667 -2.33301 -52 -7 -76c-12.667 -72 -40 -136.167 -82 -192.5s-94.333 -100.333 -157 -132s-130.334 -47.5 -203.001 -47.5c-65.333 0 -122.5 12.667 -171.5 38z
M550.499 94.001c49.667 26 91.167 62 124.5 108s55 98 65 156c3.33301 17.333 5 37.333 5 60c0 46 -9.66699 86.5 -29 121.5s-46.833 62.167 -82.5 81.5s-77.834 29 -126.501 29c-56.667 0 -109.667 -13 -159 -39s-90.666 -62 -123.999 -108s-55 -98 -65 -156
c-3.33301 -17.333 -5 -37.333 -5 -60c0 -46 9.66699 -86.5 29 -121.5s47 -62.167 83 -81.5s78 -29 126 -29c56 0 108.833 13 158.5 39z" />
    <glyph glyph-name="Oacute" unicode="&#xd3;" horiz-adv-x="864" 
d="M603 901h105l-129 -113h-100zM216.5 13c-49 25.333 -86.834 61.167 -113.501 107.5s-40 99.833 -40 160.5c0 26 2.33301 51.667 7 77c12.667 72 39.834 136.167 81.501 192.5s93.834 100.333 156.501 132s130.334 47.5 203.001 47.5
c65.333 0 122.666 -12.833 171.999 -38.5s87.333 -61.667 114 -108s40 -99.833 40 -160.5c0 -26.667 -2.33301 -52 -7 -76c-12.667 -72 -40 -136.167 -82 -192.5s-94.333 -100.333 -157 -132s-130.334 -47.5 -203.001 -47.5c-65.333 0 -122.5 12.667 -171.5 38z
M550.499 94.001c49.667 26 91.167 62 124.5 108s55 98 65 156c3.33301 17.333 5 37.333 5 60c0 46 -9.66699 86.5 -29 121.5s-46.833 62.167 -82.5 81.5s-77.834 29 -126.501 29c-56.667 0 -109.667 -13 -159 -39s-90.666 -62 -123.999 -108s-55 -98 -65 -156
c-3.33301 -17.333 -5 -37.333 -5 -60c0 -46 9.66699 -86.5 29 -121.5s47 -62.167 83 -81.5s78 -29 126 -29c56 0 108.833 13 158.5 39z" />
    <glyph glyph-name="Ocircumflex" unicode="&#xd4;" horiz-adv-x="864" 
d="M595 901l96 -113h-83l-64 62h-9l-86 -62h-87l135 113h98zM216.5 13c-49 25.333 -86.834 61.167 -113.501 107.5s-40 99.833 -40 160.5c0 26 2.33301 51.667 7 77c12.667 72 39.834 136.167 81.501 192.5s93.834 100.333 156.501 132s130.334 47.5 203.001 47.5
c65.333 0 122.666 -12.833 171.999 -38.5s87.333 -61.667 114 -108s40 -99.833 40 -160.5c0 -26.667 -2.33301 -52 -7 -76c-12.667 -72 -40 -136.167 -82 -192.5s-94.333 -100.333 -157 -132s-130.334 -47.5 -203.001 -47.5c-65.333 0 -122.5 12.667 -171.5 38z
M550.499 94.001c49.667 26 91.167 62 124.5 108s55 98 65 156c3.33301 17.333 5 37.333 5 60c0 46 -9.66699 86.5 -29 121.5s-46.833 62.167 -82.5 81.5s-77.834 29 -126.501 29c-56.667 0 -109.667 -13 -159 -39s-90.666 -62 -123.999 -108s-55 -98 -65 -156
c-3.33301 -17.333 -5 -37.333 -5 -60c0 -46 9.66699 -86.5 29 -121.5s47 -62.167 83 -81.5s78 -29 126 -29c56 0 108.833 13 158.5 39z" />
    <glyph glyph-name="Otilde" unicode="&#xd5;" horiz-adv-x="864" 
d="M548.5 807c-11.667 6 -23.834 14.667 -36.501 26c-8 7.33301 -15.167 12.833 -21.5 16.5s-13.5 5.5 -21.5 5.5c-13.333 0 -26.5 -4.5 -39.5 -13.5s-24.5 -20.5 -34.5 -34.5l-40 37c12.667 20.667 29.334 36.834 50.001 48.501s42.667 17.5 66 17.5
c18 0 32.5 -2.83301 43.5 -8.5s23.5 -13.834 37.5 -24.501c8.66699 -8 16.5 -14 23.5 -18s15.167 -6 24.5 -6c14.667 0 28.5 4.66699 41.5 14s24.167 21 33.5 35l42 -37c-14 -20.667 -31.5 -37 -52.5 -49s-43.833 -18 -68.5 -18c-20 0 -35.833 3 -47.5 9zM216.5 13
c-49 25.333 -86.834 61.167 -113.501 107.5s-40 99.833 -40 160.5c0 26 2.33301 51.667 7 77c12.667 72 39.834 136.167 81.501 192.5s93.834 100.333 156.501 132s130.334 47.5 203.001 47.5c65.333 0 122.666 -12.833 171.999 -38.5s87.333 -61.667 114 -108
s40 -99.833 40 -160.5c0 -26.667 -2.33301 -52 -7 -76c-12.667 -72 -40 -136.167 -82 -192.5s-94.333 -100.333 -157 -132s-130.334 -47.5 -203.001 -47.5c-65.333 0 -122.5 12.667 -171.5 38zM550.499 94.001c49.667 26 91.167 62 124.5 108s55 98 65 156
c3.33301 17.333 5 37.333 5 60c0 46 -9.66699 86.5 -29 121.5s-46.833 62.167 -82.5 81.5s-77.834 29 -126.501 29c-56.667 0 -109.667 -13 -159 -39s-90.666 -62 -123.999 -108s-55 -98 -65 -156c-3.33301 -17.333 -5 -37.333 -5 -60c0 -46 9.66699 -86.5 29 -121.5
s47 -62.167 83 -81.5s78 -29 126 -29c56 0 108.833 13 158.5 39z" />
    <glyph glyph-name="Odieresis" unicode="&#xd6;" horiz-adv-x="864" 
d="M376.5 804.5c-9.66699 9.66699 -14.498 22.499 -14.498 38.499c0 19.333 6.16699 35 18.5 47s27.833 18 46.5 18c16.667 0 30 -4.83301 40 -14.5s15 -22.167 15 -37.5c0 -19.333 -6.33301 -35.166 -19 -47.499s-28.334 -18.5 -47.001 -18.5
c-16.667 0 -29.834 4.83301 -39.501 14.5zM607.502 803.999c-9.66699 9.33301 -14.499 21.666 -14.499 36.999c0 20 6.16699 36.167 18.5 48.5s27.5 18.5 45.5 18.5c16.667 0 30 -4.66699 40 -14s15 -21.666 15 -36.999c0 -19.333 -6.33301 -35.333 -19 -48s-28 -19 -46 -19
c-16.667 0 -29.834 4.66699 -39.501 14zM216.503 12.999c-49 25.333 -86.834 61.167 -113.501 107.5s-40 99.833 -40 160.5c0 26 2.33301 51.667 7 77c12.667 72 39.834 136.167 81.501 192.5s93.834 100.333 156.501 132s130.334 47.5 203.001 47.5
c65.333 0 122.666 -12.833 171.999 -38.5s87.333 -61.667 114 -108s40 -99.833 40 -160.5c0 -26.667 -2.33301 -52 -7 -76c-12.667 -72 -40 -136.167 -82 -192.5s-94.333 -100.333 -157 -132s-130.334 -47.5 -203.001 -47.5c-65.333 0 -122.5 12.667 -171.5 38zM550.502 94
c49.667 26 91.167 62 124.5 108s55 98 65 156c3.33301 17.333 5 37.333 5 60c0 46 -9.66699 86.5 -29 121.5s-46.833 62.167 -82.5 81.5s-77.834 29 -126.501 29c-56.667 0 -109.667 -13 -159 -39s-90.666 -62 -123.999 -108s-55 -98 -65 -156
c-3.33301 -17.333 -5 -37.333 -5 -60c0 -46 9.66699 -86.5 29 -121.5s47 -62.167 83 -81.5s78 -29 126 -29c56 0 108.833 13 158.5 39z" />
    <glyph glyph-name="multiply" unicode="&#xd7;" horiz-adv-x="399" 
d="M50 247l119 107l-81 108l57 50l80 -106l116 106l44 -50l-119 -108l81 -107l-57 -50l-80 106l-117 -106z" />
    <glyph glyph-name="Oslash" unicode="&#xd8;" horiz-adv-x="845" 
d="M189 28c-40 26 -71.001 61 -93.001 105s-33 93.667 -33 149c0 26.667 2.33301 52 7 76c12.667 71.333 39.667 135.166 81 191.499s92.5 100.5 153.5 132.5s126.5 48 196.5 48c52.667 0 99.667 -9.33301 141 -28l110 158h87l-134 -194
c35.333 -26.667 62.833 -61 82.5 -103s29.5 -88.667 29.5 -140c0 -26.667 -2.33301 -52 -7 -76c-12.667 -71.333 -39.667 -135.166 -81 -191.499s-92.666 -100.5 -153.999 -132.5s-127 -48 -197 -48c-44 0 -85.333 7 -124 21l-94 -136h-87zM598.999 630
c-32 13.333 -65.667 19.999 -101 19.999c-54.667 0 -106 -13 -154 -39s-88.333 -62.167 -121 -108.5s-54 -98.166 -64 -155.499c-3.33301 -17.333 -5 -37.333 -5 -60c0 -39.333 7 -74.833 21 -106.5s34 -58.167 60 -79.5zM535.499 93.999
c47.667 26 87.832 62.002 120.499 108.002s54 98 64 156c4 21.333 6 42 6 62c0 35.333 -5.83301 67.666 -17.5 96.999s-28.5 54.666 -50.5 75.999l-360 -525c26 -8.66699 54 -13 84 -13c54.667 0 105.834 13 153.501 39z" />
    <glyph glyph-name="Ugrave" unicode="&#xd9;" horiz-adv-x="757" 
d="M424 788l-90 113h101l86 -113h-97zM206 5c-37.333 20 -66.333 48.168 -87 84.501s-31 77.833 -31 124.5c0 19.333 2 39.333 6 60l76 431h91l-78 -437c-2.66699 -14 -4 -29.333 -4 -46c0 -50.667 14.5 -91.167 43.5 -121.5s68.167 -45.5 117.5 -45.5
c38.667 0 75 9.5 109 28.5s62.667 45.167 86 78.5s38.666 70.666 45.999 111.999l75 431h91l-77 -437c-10 -56.667 -31 -107.167 -63 -151.5s-71.5 -79 -118.5 -104s-97.833 -37.5 -152.5 -37.5c-49.333 0 -92.666 10 -129.999 30z" />
    <glyph glyph-name="Uacute" unicode="&#xda;" horiz-adv-x="757" 
d="M552 901h105l-130 -113h-100zM206 5c-37.333 20 -66.333 48.168 -87 84.501s-31 77.833 -31 124.5c0 19.333 2 39.333 6 60l76 431h91l-78 -437c-2.66699 -14 -4 -29.333 -4 -46c0 -50.667 14.5 -91.167 43.5 -121.5s68.167 -45.5 117.5 -45.5c38.667 0 75 9.5 109 28.5
s62.667 45.167 86 78.5s38.666 70.666 45.999 111.999l75 431h91l-77 -437c-10 -56.667 -31 -107.167 -63 -151.5s-71.5 -79 -118.5 -104s-97.833 -37.5 -152.5 -37.5c-49.333 0 -92.666 10 -129.999 30z" />
    <glyph glyph-name="Ucircumflex" unicode="&#xdb;" horiz-adv-x="757" 
d="M543 901l96 -113h-82l-64 62h-10l-86 -62h-86l135 113h97zM206 5c-37.333 20 -66.333 48.168 -87 84.501s-31 77.833 -31 124.5c0 19.333 2 39.333 6 60l76 431h91l-78 -437c-2.66699 -14 -4 -29.333 -4 -46c0 -50.667 14.5 -91.167 43.5 -121.5
s68.167 -45.5 117.5 -45.5c38.667 0 75 9.5 109 28.5s62.667 45.167 86 78.5s38.666 70.666 45.999 111.999l75 431h91l-77 -437c-10 -56.667 -31 -107.167 -63 -151.5s-71.5 -79 -118.5 -104s-97.833 -37.5 -152.5 -37.5c-49.333 0 -92.666 10 -129.999 30z" />
    <glyph glyph-name="Udieresis" unicode="&#xdc;" horiz-adv-x="757" 
d="M325.5 804c-9.66699 9.33301 -14.499 21.666 -14.499 36.999c0 20 6.16699 36.167 18.5 48.5s27.5 18.5 45.5 18.5c16.667 0 30 -4.66699 40 -14s15 -21.666 15 -36.999c0 -19.333 -6.33301 -35.333 -19 -48s-28 -19 -46 -19c-16.667 0 -29.834 4.66699 -39.501 14z
M555.501 804.5c-9.66699 9.66699 -14.499 22.5 -14.499 38.5c0 19.333 6.16699 35 18.5 47s27.833 18 46.5 18c16.667 0 30 -5 40 -15s15 -22.667 15 -38c0 -18.667 -6.5 -34.167 -19.5 -46.5s-28.5 -18.5 -46.5 -18.5c-16.667 0 -29.834 4.83301 -39.501 14.5zM206.002 5
c-37.333 20 -66.333 48.168 -87 84.501s-31 77.833 -31 124.5c0 19.333 2 39.333 6 60l76 431h91l-78 -437c-2.66699 -14 -4 -29.333 -4 -46c0 -50.667 14.5 -91.167 43.5 -121.5s68.167 -45.5 117.5 -45.5c38.667 0 75 9.5 109 28.5s62.667 45.167 86 78.5
s38.666 70.666 45.999 111.999l75 431h91l-77 -437c-10 -56.667 -31 -107.167 -63 -151.5s-71.5 -79 -118.5 -104s-97.833 -37.5 -152.5 -37.5c-49.333 0 -92.666 10 -129.999 30z" />
    <glyph glyph-name="Yacute" unicode="&#xdd;" horiz-adv-x="660" 
d="M503 901h104l-129 -113h-100zM287 258l-176 447h94l137 -360h9l260 360h100l-333 -447l-46 -258h-91z" />
    <glyph glyph-name="germandbls" unicode="&#xdf;" horiz-adv-x="664" 
d="M222 2l9.99707 83.998c16.667 -9.33301 36 -17 58 -23s42.667 -9 62 -9c42.667 0 79.167 12.833 109.5 38.5s49.833 60.5 58.5 104.5c1.33301 6.66699 2 16.334 2 29.001c0 34.667 -11.5 62 -34.5 82s-58.5 30 -106.5 30h-47l15 74h41c22.667 0 43.834 6 63.501 18
s35.334 28.5 47.001 49.5s17.5 43.833 17.5 68.5c0 28.667 -10.667 51.667 -32 69s-49.666 26 -84.999 26c-46 0 -86.5 -16.167 -121.5 -48.5s-56.833 -74.5 -65.5 -126.5l-83 -468h-91l85 483c8 46.667 25.333 88.167 52 124.5s60 64.666 100 84.999s83 30.5 129 30.5
c40 0 75.5 -7 106.5 -21s55 -33.667 72 -59s25.5 -54.333 25.5 -87c0 -10.667 -1 -22 -3 -34c-5.33301 -33.333 -18.5 -62.333 -39.5 -87s-46.167 -41.667 -75.5 -51l-7 -9c37.333 -7.33301 67.5 -25.666 90.5 -54.999s34.5 -64.666 34.5 -105.999
c0 -11.333 -1 -23.666 -3 -36.999c-6.66699 -38 -22.334 -72.333 -47.001 -103s-55 -54.834 -91 -72.501s-74 -26.5 -114 -26.5c-43.333 0 -87.666 9 -132.999 27z" />
    <glyph glyph-name="agrave" unicode="&#xe0;" horiz-adv-x="670" 
d="M261 735h92l82 -142h-85zM152 8c-33.333 18.667 -59.167 44.834 -77.5 78.501s-27.5 72.167 -27.5 115.5c0 16 1.66699 34.667 5 56c8.66699 51.333 27.5 97.166 56.5 137.499s64.833 72 107.5 95s88.667 34.5 138 34.5c80.667 0 139 -35 175 -105l11 3l15 82h83
l-90 -505h-83l15 83l-8 -3c-57.333 -66.667 -125.333 -100 -204 -100c-44 0 -82.667 9.33301 -116 28zM384.999 81.5c32.667 17.667 60 41.8311 82 72.498s36.333 65.334 43 104.001c2.66699 12.667 4 26.334 4 41.001c0 45.333 -13.833 81.833 -41.5 109.5
s-64.5 41.5 -110.5 41.5c-36.667 0 -71.334 -8.66699 -104.001 -26s-60 -41.5 -82 -72.5s-36.333 -65.833 -43 -104.5c-2.66699 -12.667 -4 -26 -4 -40c0 -45.333 13.833 -82 41.5 -110s64.5 -42 110.5 -42c36.667 0 71.334 8.83301 104.001 26.5z" />
    <glyph glyph-name="aacute" unicode="&#xe1;" horiz-adv-x="670" 
d="M341 593l132 142h96l-139 -142h-89zM152 8c-33.333 18.667 -59.167 44.834 -77.5 78.501s-27.5 72.167 -27.5 115.5c0 16 1.66699 34.667 5 56c8.66699 51.333 27.5 97.166 56.5 137.499s64.833 72 107.5 95s88.667 34.5 138 34.5c80.667 0 139 -35 175 -105l11 3l15 82
h83l-90 -505h-83l15 83l-8 -3c-57.333 -66.667 -125.333 -100 -204 -100c-44 0 -82.667 9.33301 -116 28zM384.999 81.5c32.667 17.667 60 41.8311 82 72.498s36.333 65.334 43 104.001c2.66699 12.667 4 26.334 4 41.001c0 45.333 -13.833 81.833 -41.5 109.5
s-64.5 41.5 -110.5 41.5c-36.667 0 -71.334 -8.66699 -104.001 -26s-60 -41.5 -82 -72.5s-36.333 -65.833 -43 -104.5c-2.66699 -12.667 -4 -26 -4 -40c0 -45.333 13.833 -82 41.5 -110s64.5 -42 110.5 -42c36.667 0 71.334 8.83301 104.001 26.5z" />
    <glyph glyph-name="acircumflex" unicode="&#xe2;" horiz-adv-x="670" 
d="M368 735h93l89 -142h-79l-59 86h-10l-91 -86h-82zM152 8c-33.333 18.667 -59.167 44.834 -77.5 78.501s-27.5 72.167 -27.5 115.5c0 16 1.66699 34.667 5 56c8.66699 51.333 27.5 97.166 56.5 137.499s64.833 72 107.5 95s88.667 34.5 138 34.5
c80.667 0 139 -35 175 -105l11 3l15 82h83l-90 -505h-83l15 83l-8 -3c-57.333 -66.667 -125.333 -100 -204 -100c-44 0 -82.667 9.33301 -116 28zM384.999 81.5c32.667 17.667 60 41.8311 82 72.498s36.333 65.334 43 104.001c2.66699 12.667 4 26.334 4 41.001
c0 45.333 -13.833 81.833 -41.5 109.5s-64.5 41.5 -110.5 41.5c-36.667 0 -71.334 -8.66699 -104.001 -26s-60 -41.5 -82 -72.5s-36.333 -65.833 -43 -104.5c-2.66699 -12.667 -4 -26 -4 -40c0 -45.333 13.833 -82 41.5 -110s64.5 -42 110.5 -42
c36.667 0 71.334 8.83301 104.001 26.5z" />
    <glyph glyph-name="atilde" unicode="&#xe3;" horiz-adv-x="670" 
d="M412 602c-12 6 -24 14.332 -36 24.999c-9.33301 8 -17.333 13.833 -24 17.5s-14.334 5.5 -23.001 5.5c-13.333 0 -26.166 -3.5 -38.499 -10.5s-22.5 -16.167 -30.5 -27.5l-41 37c13.333 20.667 30.666 36.834 51.999 48.501s43.333 17.5 66 17.5
c18 0 32.5 -2.83301 43.5 -8.5s23.167 -14.167 36.5 -25.5c10.667 -8 19.334 -14 26.001 -18s14.667 -6 24 -6c14.667 0 28.5 4 41.5 12s23.167 17.667 30.5 29l41 -38c-13.333 -20.667 -30.5 -37 -51.5 -49s-44.167 -18 -69.5 -18c-19.333 0 -35 3 -47 9zM152 7.99902
c-33.333 18.667 -59.167 44.834 -77.5 78.501s-27.5 72.167 -27.5 115.5c0 16 1.66699 34.667 5 56c8.66699 51.333 27.5 97.166 56.5 137.499s64.833 72 107.5 95s88.667 34.5 138 34.5c80.667 0 139 -35 175 -105l11 3l15 82h83l-90 -505h-83l15 83l-8 -3
c-57.333 -66.667 -125.333 -100 -204 -100c-44 0 -82.667 9.33301 -116 28zM384.999 81.499c32.667 17.667 60 41.8311 82 72.498s36.333 65.334 43 104.001c2.66699 12.667 4 26.334 4 41.001c0 45.333 -13.833 81.833 -41.5 109.5s-64.5 41.5 -110.5 41.5
c-36.667 0 -71.334 -8.66699 -104.001 -26s-60 -41.5 -82 -72.5s-36.333 -65.833 -43 -104.5c-2.66699 -12.667 -4 -26 -4 -40c0 -45.333 13.833 -82 41.5 -110s64.5 -42 110.5 -42c36.667 0 71.334 8.83301 104.001 26.5z" />
    <glyph glyph-name="adieresis" unicode="&#xe4;" horiz-adv-x="670" 
d="M239 614.5c-9.33301 9 -14 20.833 -14 35.5c0 17.333 5.66699 31.5 17 42.5s25.666 16.5 42.999 16.5c14.667 0 26.667 -4.33301 36 -13s14 -20 14 -34c0 -17.333 -5.66699 -31.833 -17 -43.5s-25.333 -17.5 -42 -17.5c-15.333 0 -27.666 4.5 -36.999 13.5zM478 614.5
c-9.33301 9 -14 20.832 -14 35.499c0 17.333 5.66699 31.5 17 42.5s25.666 16.5 42.999 16.5c14.667 0 26.834 -4.5 36.501 -13.5s14.5 -20.5 14.5 -34.5c0 -17.333 -5.66699 -31.666 -17 -42.999s-25.333 -17 -42 -17c-16 0 -28.667 4.5 -38 13.5zM152 7.99902
c-33.333 18.667 -59.167 44.834 -77.5 78.501s-27.5 72.167 -27.5 115.5c0 16 1.66699 34.667 5 56c8.66699 51.333 27.5 97.166 56.5 137.499s64.833 72 107.5 95s88.667 34.5 138 34.5c80.667 0 139 -35 175 -105l11 3l15 82h83l-90 -505h-83l15 83l-8 -3
c-57.333 -66.667 -125.333 -100 -204 -100c-44 0 -82.667 9.33301 -116 28zM384.999 81.499c32.667 17.667 60 41.8311 82 72.498s36.333 65.334 43 104.001c2.66699 12.667 4 26.334 4 41.001c0 45.333 -13.833 81.833 -41.5 109.5s-64.5 41.5 -110.5 41.5
c-36.667 0 -71.334 -8.66699 -104.001 -26s-60 -41.5 -82 -72.5s-36.333 -65.833 -43 -104.5c-2.66699 -12.667 -4 -26 -4 -40c0 -45.333 13.833 -82 41.5 -110s64.5 -42 110.5 -42c36.667 0 71.334 8.83301 104.001 26.5z" />
    <glyph glyph-name="aring" unicode="&#xe5;" horiz-adv-x="670" 
d="M322.5 612.5c-17.667 16.333 -26.499 37.833 -26.499 64.5c0 34 12 62.333 36 85s53.333 34 88 34c29.333 0 52.666 -8.16699 69.999 -24.5s26 -37.833 26 -64.5c0 -34 -12 -62.333 -36 -85s-53 -34 -87 -34c-29.333 0 -52.833 8.16699 -70.5 24.5zM448.001 652
c16.667 16 24.999 35.333 24.999 58c0 14 -4.5 25.167 -13.5 33.5s-21.167 12.5 -36.5 12.5c-20.667 0 -38.667 -6.5 -54 -19.5s-24.666 -29.833 -27.999 -50.5c-0.666992 -2.66699 -1 -6.66699 -1 -12c0 -14 4.33301 -25.167 13 -33.5s21 -12.5 37 -12.5
c22 0 41.333 8 58 24zM152 8c-33.333 18.667 -59.167 44.834 -77.5 78.501s-27.5 72.167 -27.5 115.5c0 16 1.66699 34.667 5 56c8.66699 51.333 27.5 97.166 56.5 137.499s64.833 72 107.5 95s88.667 34.5 138 34.5c80.667 0 139 -35 175 -105l11 3l15 82h83l-90 -505h-83
l15 83l-8 -3c-57.333 -66.667 -125.333 -100 -204 -100c-44 0 -82.667 9.33301 -116 28zM384.999 81.5c32.667 17.667 60 41.8311 82 72.498s36.333 65.334 43 104.001c2.66699 12.667 4 26.334 4 41.001c0 45.333 -13.833 81.833 -41.5 109.5s-64.5 41.5 -110.5 41.5
c-36.667 0 -71.334 -8.66699 -104.001 -26s-60 -41.5 -82 -72.5s-36.333 -65.833 -43 -104.5c-2.66699 -12.667 -4 -26 -4 -40c0 -45.333 13.833 -82 41.5 -110s64.5 -42 110.5 -42c36.667 0 71.334 8.83301 104.001 26.5z" />
    <glyph glyph-name="ae" unicode="&#xe6;" horiz-adv-x="952" 
d="M429 500c32 -18 53.335 -41.999 64.002 -71.999c59.333 64.667 128.666 97 207.999 97c62.667 0 112.667 -19.667 150 -59s56 -91 56 -155c0 -22 -1.66699 -41.667 -5 -59c-1.33301 -10 -3.33301 -19.667 -6 -29h-406c-2.66699 -50.667 8.16602 -91.334 32.499 -122.001
s58.166 -46 101.499 -46c32.667 0 64.167 8.83301 94.5 26.5s56.166 42.167 77.499 73.5l64 -40c-26 -40 -60.167 -72.5 -102.5 -97.5s-85.833 -37.5 -130.5 -37.5c-50 0 -92.5 13.333 -127.5 40s-57.5 61.334 -67.5 104.001c-21.333 -43.333 -54.5 -77.5 -99.5 -102.5
s-94.5 -37.5 -148.5 -37.5c-52 0 -93.333 11.667 -124 35s-46 54.666 -46 93.999c0 11.333 0.666992 20 2 26c8.66699 45.333 34.834 82 78.501 110s102.834 46 177.501 54l146 15l4 26c1.33301 10.667 2 18 2 22c0 27.333 -10 48.5 -30 63.5s-48 22.5 -84 22.5
c-37.333 0 -70 -9.66699 -98 -29s-44.333 -43.333 -49 -72l-83 5c6 33.333 20 63 42 89s49.5 46.167 82.5 60.5s68.833 21.5 107.5 21.5c46 0 85 -9 117 -27zM580.002 407.001c-34 -28.667 -59 -66.333 -75 -113l318 6c1.33301 46 -9.5 82.5 -32.5 109.5
s-55.167 40.5 -96.5 40.5c-42 0 -80 -14.333 -114 -43zM148.002 200.002c-28.667 -19.333 -45.666 -42.999 -50.999 -70.999c-0.666992 -2.66699 -1 -6.33398 -1 -11.001c0 -20.667 9.16699 -36.834 27.5 -48.501s42.166 -17.5 71.499 -17.5c34 0 65.5 7 94.5 21
s53.167 33 72.5 57s31.333 50 36 78l8 45l-140 -16c-50 -5.33301 -89.333 -17.666 -118 -36.999z" />
    <glyph glyph-name="ccedilla" unicode="&#xe7;" horiz-adv-x="612" 
d="M256 424c-31.333 -17.333 -57.9912 -41.501 -79.9912 -72.501s-36.333 -65.833 -43 -104.5c-2.66699 -13.333 -4 -27.333 -4 -42c0 -45.333 13.167 -81.666 39.5 -108.999s61.166 -41 104.499 -41c41.333 0 79.833 11.5 115.5 34.5s61.5 52.5 77.5 88.5l80 -16
c-19.333 -50.667 -52.833 -92.667 -100.5 -126s-99.834 -51.666 -156.501 -54.999l-11 -30c26.667 0 48.5 -7.66699 65.5 -23s25.5 -34.666 25.5 -57.999c0 -29.333 -11.167 -53.666 -33.5 -72.999s-49.833 -29 -82.5 -29c-28 0 -51.333 7.16699 -70 21.5
s-28.334 32.166 -29.001 53.499l54 7c0 -12 3.83301 -21.5 11.5 -28.5s17.5 -10.5 29.5 -10.5c16 0 30.167 5 42.5 15s20.166 22.333 23.499 37c2 13.333 -1.83301 24.166 -11.5 32.499s-23.834 12.5 -42.501 12.5h-54l23 75c-56 8 -100.5 31.667 -133.5 71
s-49.5 88.333 -49.5 147c0 16 1.66699 35 5 57c8.66699 51.333 27.667 97.166 57 137.499s65.666 72 108.999 95s89.666 34.5 138.999 34.5c41.333 0 78.666 -8.16699 111.999 -24.5s59.166 -39 77.499 -68s27.5 -61.167 27.5 -96.5l-80 -5c-2.66699 36 -17 64.833 -43 86.5
s-58 32.5 -96 32.5c-34.667 0 -67.667 -8.66699 -99 -26z" />
    <glyph glyph-name="egrave" unicode="&#xe8;" horiz-adv-x="635" 
d="M250 735h92l82 -142h-85zM158.5 9c-35 19.333 -62.1689 46.168 -81.502 80.501s-29 73.833 -29 118.5c0 16 1.66699 35 5 57c8.66699 50 27.834 94.667 57.501 134s66.5 70.166 110.5 92.499s91.333 33.5 142 33.5c45.333 0 85.166 -9.33301 119.499 -28
s60.833 -44.5 79.5 -77.5s28 -71.167 28 -114.5c0 -15.333 -1.66699 -33 -5 -53c-2 -12 -4.33301 -22 -7 -30h-447c-2.66699 -50.667 9.83301 -91.167 37.5 -121.5s66.5 -45.5 116.5 -45.5c38.667 0 75.334 9.16699 110.001 27.5s63 42.833 85 73.5l64 -40
c-28 -43.333 -65.167 -76.833 -111.5 -100.5s-97.166 -35.5 -152.499 -35.5c-46 0 -86.5 9.66699 -121.5 29zM504.998 301.002c1.33301 45.333 -11.5 81.5 -38.5 108.5s-63.833 40.5 -110.5 40.5c-47.333 0 -90.5 -14.333 -129.5 -43s-66.167 -66 -81.5 -112z" />
    <glyph glyph-name="eacute" unicode="&#xe9;" horiz-adv-x="635" 
d="M330 593l133 142h95l-139 -142h-89zM158.5 9c-35 19.333 -62.1689 46.168 -81.502 80.501s-29 73.833 -29 118.5c0 16 1.66699 35 5 57c8.66699 50 27.834 94.667 57.501 134s66.5 70.166 110.5 92.499s91.333 33.5 142 33.5c45.333 0 85.166 -9.33301 119.499 -28
s60.833 -44.5 79.5 -77.5s28 -71.167 28 -114.5c0 -15.333 -1.66699 -33 -5 -53c-2 -12 -4.33301 -22 -7 -30h-447c-2.66699 -50.667 9.83301 -91.167 37.5 -121.5s66.5 -45.5 116.5 -45.5c38.667 0 75.334 9.16699 110.001 27.5s63 42.833 85 73.5l64 -40
c-28 -43.333 -65.167 -76.833 -111.5 -100.5s-97.166 -35.5 -152.499 -35.5c-46 0 -86.5 9.66699 -121.5 29zM504.998 301.002c1.33301 45.333 -11.5 81.5 -38.5 108.5s-63.833 40.5 -110.5 40.5c-47.333 0 -90.5 -14.333 -129.5 -43s-66.167 -66 -81.5 -112z" />
    <glyph glyph-name="ecircumflex" unicode="&#xea;" horiz-adv-x="635" 
d="M357 735h93l90 -142h-80l-59 86h-9l-92 -86h-82zM158.5 9c-35 19.333 -62.1689 46.168 -81.502 80.501s-29 73.833 -29 118.5c0 16 1.66699 35 5 57c8.66699 50 27.834 94.667 57.501 134s66.5 70.166 110.5 92.499s91.333 33.5 142 33.5
c45.333 0 85.166 -9.33301 119.499 -28s60.833 -44.5 79.5 -77.5s28 -71.167 28 -114.5c0 -15.333 -1.66699 -33 -5 -53c-2 -12 -4.33301 -22 -7 -30h-447c-2.66699 -50.667 9.83301 -91.167 37.5 -121.5s66.5 -45.5 116.5 -45.5c38.667 0 75.334 9.16699 110.001 27.5
s63 42.833 85 73.5l64 -40c-28 -43.333 -65.167 -76.833 -111.5 -100.5s-97.166 -35.5 -152.499 -35.5c-46 0 -86.5 9.66699 -121.5 29zM504.998 301.002c1.33301 45.333 -11.5 81.5 -38.5 108.5s-63.833 40.5 -110.5 40.5c-47.333 0 -90.5 -14.333 -129.5 -43
s-66.167 -66 -81.5 -112z" />
    <glyph glyph-name="edieresis" unicode="&#xeb;" horiz-adv-x="635" 
d="M228 614.5c-9.33301 9 -14 20.833 -14 35.5c0 17.333 5.66699 31.5 17 42.5s25.666 16.5 42.999 16.5c14.667 0 26.667 -4.33301 36 -13s14 -20 14 -34c0 -5.33301 -0.333008 -9.33301 -1 -12c-2 -14.667 -8.33301 -26.5 -19 -35.5s-23.667 -13.5 -39 -13.5
s-27.666 4.5 -36.999 13.5zM468 614.5c-9.33301 9 -14 20.833 -14 35.5c0 17.333 5.66699 31.5 17 42.5s25.666 16.5 42.999 16.5c14.667 0 26.667 -4.33301 36 -13s14 -20 14 -34c0 -17.333 -5.66699 -31.833 -17 -43.5s-25.333 -17.5 -42 -17.5
c-15.333 0 -27.666 4.5 -36.999 13.5zM158.5 9c-35 19.333 -62.1689 46.168 -81.502 80.501s-29 73.833 -29 118.5c0 16 1.66699 35 5 57c8.66699 50 27.834 94.667 57.501 134s66.5 70.166 110.5 92.499s91.333 33.5 142 33.5c45.333 0 85.166 -9.33301 119.499 -28
s60.833 -44.5 79.5 -77.5s28 -71.167 28 -114.5c0 -15.333 -1.66699 -33 -5 -53c-2 -12 -4.33301 -22 -7 -30h-447c-2.66699 -50.667 9.83301 -91.167 37.5 -121.5s66.5 -45.5 116.5 -45.5c38.667 0 75.334 9.16699 110.001 27.5s63 42.833 85 73.5l64 -40
c-28 -43.333 -65.167 -76.833 -111.5 -100.5s-97.166 -35.5 -152.499 -35.5c-46 0 -86.5 9.66699 -121.5 29zM504.998 301.002c1.33301 45.333 -11.5 81.5 -38.5 108.5s-63.833 40.5 -110.5 40.5c-47.333 0 -90.5 -14.333 -129.5 -43s-66.167 -66 -81.5 -112z" />
    <glyph glyph-name="igrave" unicode="&#xec;" horiz-adv-x="235" 
d="M50 735h92l82 -142h-85zM121 505h83l-89 -505h-83z" />
    <glyph glyph-name="iacute" unicode="&#xed;" horiz-adv-x="235" 
d="M130 593l133 142h96l-140 -142h-89zM121 505h83l-89 -505h-83z" />
    <glyph glyph-name="icircumflex" unicode="&#xee;" horiz-adv-x="235" 
d="M157 735h93l90 -142h-80l-59 86h-9l-92 -86h-82zM121 505h83l-89 -505h-83z" />
    <glyph glyph-name="idieresis" unicode="&#xef;" horiz-adv-x="235" 
d="M28 614.5c-9.33301 9 -14.002 20.832 -14.002 35.499c0 17.333 5.66699 31.5 17 42.5s25.666 16.5 42.999 16.5c14.667 0 26.834 -4.5 36.501 -13.5s14.5 -20.5 14.5 -34.5c0 -17.333 -5.66699 -31.666 -17 -42.999s-25.666 -17 -42.999 -17
c-15.333 0 -27.666 4.5 -36.999 13.5zM267.998 614.499c-9.33301 9 -14 20.833 -14 35.5c0 17.333 5.66699 31.5 17 42.5s25.666 16.5 42.999 16.5c14.667 0 26.667 -4.33301 36 -13s14 -20 14 -34c0 -17.333 -5.66699 -31.833 -17 -43.5s-25.333 -17.5 -42 -17.5
c-15.333 0 -27.666 4.5 -36.999 13.5zM120.998 504.999h83l-89 -505h-83z" />
    <glyph glyph-name="ntilde" unicode="&#xf1;" 
d="M403 602c-12 6 -23.998 14.333 -35.998 25c-9.33301 8 -17.333 13.833 -24 17.5s-14.334 5.5 -23.001 5.5c-12.667 0 -25.167 -3.5 -37.5 -10.5s-22.5 -16.167 -30.5 -27.5l-41 37c12.667 20 29.667 36 51 48s43.333 18 66 18c17.333 0 31.666 -2.83301 42.999 -8.5
s24 -14.167 38 -25.5c9.33301 -8 17.5 -14 24.5 -18s15.167 -6 24.5 -6c14.667 0 28.5 4 41.5 12s23.167 17.667 30.5 29l42 -38c-14 -20.667 -31.5 -37 -52.5 -49s-44.167 -18 -69.5 -18c-19.333 0 -35 3 -47 9zM122.002 505l83.001 0.000976562l-12 -69l9 3
c22 28 47.667 49.167 77 63.5s60 21.5 92 21.5c56 0 100 -16.333 132 -49s48 -75.334 48 -128.001c0 -16.667 -1.33301 -32.667 -4 -48l-53 -299h-83l54 304c2 12 3 23.667 3 35c0 34 -9.5 60.833 -28.5 80.5s-46.167 29.5 -81.5 29.5c-28.667 0 -56.834 -7 -84.501 -21
s-51 -33 -70 -57s-30.833 -50.333 -35.5 -79l-52 -292h-83z" />
    <glyph glyph-name="ograve" unicode="&#xf2;" horiz-adv-x="642" 
d="M252 735h93l81 -142h-85zM155 8c-34.667 18.667 -61.499 44.668 -80.499 78.001s-28.5 71.666 -28.5 114.999c0 21.333 1.66699 40.333 5 57c9.33301 52 28.833 98.167 58.5 138.5s66.5 71.833 110.5 94.5s92 34 144 34c46.667 0 87.5 -9.33301 122.5 -28
s62 -44.834 81 -78.501s28.5 -72.5 28.5 -116.5c0 -15.333 -1.66699 -33.666 -5 -54.999c-9.33301 -52 -28.833 -98.167 -58.5 -138.5s-66.667 -71.833 -111 -94.5s-92.5 -34 -144.5 -34c-46.667 0 -87.334 9.33301 -122.001 28zM384.001 81.501
c32.667 17.667 60 41.832 82 72.499s36.333 65.334 43 104.001c2.66699 12.667 4 26.334 4 41.001c0 45.333 -13.833 81.833 -41.5 109.5s-64.5 41.5 -110.5 41.5c-36.667 0 -71.334 -8.66699 -104.001 -26s-60 -41.5 -82 -72.5s-36.333 -65.833 -43 -104.5
c-2.66699 -12.667 -4 -26.334 -4 -41.001c0 -45.333 13.833 -81.833 41.5 -109.5s64.5 -41.5 110.5 -41.5c36.667 0 71.334 8.83301 104.001 26.5z" />
    <glyph glyph-name="oacute" unicode="&#xf3;" horiz-adv-x="642" 
d="M333 593l132 142h96l-140 -142h-88zM155 8c-34.667 18.667 -61.499 44.668 -80.499 78.001s-28.5 71.666 -28.5 114.999c0 21.333 1.66699 40.333 5 57c9.33301 52 28.833 98.167 58.5 138.5s66.5 71.833 110.5 94.5s92 34 144 34c46.667 0 87.5 -9.33301 122.5 -28
s62 -44.834 81 -78.501s28.5 -72.5 28.5 -116.5c0 -15.333 -1.66699 -33.666 -5 -54.999c-9.33301 -52 -28.833 -98.167 -58.5 -138.5s-66.667 -71.833 -111 -94.5s-92.5 -34 -144.5 -34c-46.667 0 -87.334 9.33301 -122.001 28zM384.001 81.501
c32.667 17.667 60 41.832 82 72.499s36.333 65.334 43 104.001c2.66699 12.667 4 26.334 4 41.001c0 45.333 -13.833 81.833 -41.5 109.5s-64.5 41.5 -110.5 41.5c-36.667 0 -71.334 -8.66699 -104.001 -26s-60 -41.5 -82 -72.5s-36.333 -65.833 -43 -104.5
c-2.66699 -12.667 -4 -26.334 -4 -41.001c0 -45.333 13.833 -81.833 41.5 -109.5s64.5 -41.5 110.5 -41.5c36.667 0 71.334 8.83301 104.001 26.5z" />
    <glyph glyph-name="ocircumflex" unicode="&#xf4;" horiz-adv-x="642" 
d="M360 735h93l89 -142h-79l-59 86h-10l-91 -86h-83zM155 8c-34.667 18.667 -61.499 44.668 -80.499 78.001s-28.5 71.666 -28.5 114.999c0 21.333 1.66699 40.333 5 57c9.33301 52 28.833 98.167 58.5 138.5s66.5 71.833 110.5 94.5s92 34 144 34
c46.667 0 87.5 -9.33301 122.5 -28s62 -44.834 81 -78.501s28.5 -72.5 28.5 -116.5c0 -15.333 -1.66699 -33.666 -5 -54.999c-9.33301 -52 -28.833 -98.167 -58.5 -138.5s-66.667 -71.833 -111 -94.5s-92.5 -34 -144.5 -34c-46.667 0 -87.334 9.33301 -122.001 28z
M384.001 81.501c32.667 17.667 60 41.832 82 72.499s36.333 65.334 43 104.001c2.66699 12.667 4 26.334 4 41.001c0 45.333 -13.833 81.833 -41.5 109.5s-64.5 41.5 -110.5 41.5c-36.667 0 -71.334 -8.66699 -104.001 -26s-60 -41.5 -82 -72.5s-36.333 -65.833 -43 -104.5
c-2.66699 -12.667 -4 -26.334 -4 -41.001c0 -45.333 13.833 -81.833 41.5 -109.5s64.5 -41.5 110.5 -41.5c36.667 0 71.334 8.83301 104.001 26.5z" />
    <glyph glyph-name="otilde" unicode="&#xf5;" horiz-adv-x="642" 
d="M404 602c-12 6 -24 14.333 -36 25c-9.33301 8 -17.333 13.833 -24 17.5s-14.334 5.5 -23.001 5.5c-13.333 0 -26.166 -3.5 -38.499 -10.5s-22.5 -16.167 -30.5 -27.5l-41 37c12.667 20.667 29.667 36.834 51 48.501s43.666 17.5 66.999 17.5
c17.333 0 31.333 -2.83301 42 -8.5s23 -13.834 37 -24.501c10.667 -8.66699 19.5 -15 26.5 -19s15.167 -6 24.5 -6c14.667 0 28.5 4 41.5 12s23.167 17.667 30.5 29l41 -38c-13.333 -20.667 -30.666 -37 -51.999 -49s-44.333 -18 -69 -18c-19.333 0 -35 3 -47 9zM155 8
c-34.667 18.667 -61.499 44.668 -80.499 78.001s-28.5 71.666 -28.5 114.999c0 21.333 1.66699 40.333 5 57c9.33301 52 28.833 98.167 58.5 138.5s66.5 71.833 110.5 94.5s92 34 144 34c46.667 0 87.5 -9.33301 122.5 -28s62 -44.834 81 -78.501s28.5 -72.5 28.5 -116.5
c0 -15.333 -1.66699 -33.666 -5 -54.999c-9.33301 -52 -28.833 -98.167 -58.5 -138.5s-66.667 -71.833 -111 -94.5s-92.5 -34 -144.5 -34c-46.667 0 -87.334 9.33301 -122.001 28zM384.001 81.501c32.667 17.667 60 41.832 82 72.499s36.333 65.334 43 104.001
c2.66699 12.667 4 26.334 4 41.001c0 45.333 -13.833 81.833 -41.5 109.5s-64.5 41.5 -110.5 41.5c-36.667 0 -71.334 -8.66699 -104.001 -26s-60 -41.5 -82 -72.5s-36.333 -65.833 -43 -104.5c-2.66699 -12.667 -4 -26.334 -4 -41.001
c0 -45.333 13.833 -81.833 41.5 -109.5s64.5 -41.5 110.5 -41.5c36.667 0 71.334 8.83301 104.001 26.5z" />
    <glyph glyph-name="odieresis" unicode="&#xf6;" horiz-adv-x="642" 
d="M230 615c-9.33301 9.33301 -14 21.332 -14 35.999l1 10c3.33301 14.667 10.333 26.334 21 35.001s23.667 13 39 13c14.667 0 26.667 -4.33301 36 -13s14 -20 14 -34c0 -17.333 -5.66699 -31.833 -17 -43.5s-25.333 -17.5 -42 -17.5c-16 0 -28.667 4.66699 -38 14z
M470 614.499c-9.33301 9 -14 20.833 -14 35.5c0 17.333 5.66699 31.5 17 42.5s25.666 16.5 42.999 16.5c14.667 0 26.667 -4.33301 36 -13s14 -20 14 -34c0 -5.33301 -0.333008 -9.33301 -1 -12c-2 -14.667 -8.33301 -26.5 -19 -35.5s-23.667 -13.5 -39 -13.5
s-27.666 4.5 -36.999 13.5zM155 7.99902c-34.667 18.667 -61.499 44.668 -80.499 78.001s-28.5 71.666 -28.5 114.999c0 21.333 1.66699 40.333 5 57c9.33301 52 28.833 98.167 58.5 138.5s66.5 71.833 110.5 94.5s92 34 144 34c46.667 0 87.5 -9.33301 122.5 -28
s62 -44.834 81 -78.501s28.5 -72.5 28.5 -116.5c0 -15.333 -1.66699 -33.666 -5 -54.999c-9.33301 -52 -28.833 -98.167 -58.5 -138.5s-66.667 -71.833 -111 -94.5s-92.5 -34 -144.5 -34c-46.667 0 -87.334 9.33301 -122.001 28zM384.001 81.5
c32.667 17.667 60 41.832 82 72.499s36.333 65.334 43 104.001c2.66699 12.667 4 26.334 4 41.001c0 45.333 -13.833 81.833 -41.5 109.5s-64.5 41.5 -110.5 41.5c-36.667 0 -71.334 -8.66699 -104.001 -26s-60 -41.5 -82 -72.5s-36.333 -65.833 -43 -104.5
c-2.66699 -12.667 -4 -26.334 -4 -41.001c0 -45.333 13.833 -81.833 41.5 -109.5s64.5 -41.5 110.5 -41.5c36.667 0 71.334 8.83301 104.001 26.5z" />
    <glyph glyph-name="divide" unicode="&#xf7;" horiz-adv-x="552" 
d="M289 500.5c-8 7.66699 -12 18.168 -12 31.501c0 15.333 5 28.166 15 38.499s22.667 15.5 38 15.5c14 0 25.167 -4 33.5 -12s12.5 -18.667 12.5 -32c0 -15.333 -5.16699 -28 -15.5 -38s-22.833 -15 -37.5 -15s-26 3.83301 -34 11.5zM75 386.001h450l-13 -75h-450z
M219.5 107.501c-8.33301 8.33301 -12.5 19.167 -12.5 32.5c0 4 0.333008 7.33301 1 10c2.66699 12.667 8.66699 22.834 18 30.501s20.666 11.5 33.999 11.5s24.333 -4 33 -12s13 -18.333 13 -31c0 -4.66699 -0.333008 -8.33398 -1 -11.001c-2 -12.667 -7.66699 -23 -17 -31
s-20.666 -12 -33.999 -12c-14.667 0 -26.167 4.16699 -34.5 12.5z" />
    <glyph glyph-name="oslash" unicode="&#xf8;" horiz-adv-x="648" 
d="M466 508l63.999 91.999h81l-88 -125c24.667 -19.333 43.834 -43.666 57.501 -72.999s20.5 -62.333 20.5 -99c0 -16 -1.66699 -34.667 -5 -56c-8.66699 -51.333 -28 -97.333 -58 -138s-67.333 -72.334 -112 -95.001s-93 -34 -145 -34c-30.667 0 -57.667 4 -81 12l-50 -72
h-81l71 99c-30 19.333 -53 44.5 -69 75.5s-24 66.833 -24 107.5c0 15.333 1.66699 34 5 56c8.66699 51.333 28 97.333 58 138s67.333 72.334 112 95.001s93 34 145 34c37.333 0 70.333 -5.66699 99 -17zM255.999 433.499c-34 -18.333 -62.667 -43.832 -86 -76.499
s-38.666 -69.334 -45.999 -110.001c-2.66699 -20 -4 -34 -4 -42c0 -26.667 4.66699 -51 14 -73s22.666 -40.333 39.999 -55l258 373c-19.333 7.33301 -41.333 11 -66 11c-39.333 0 -76 -9.16699 -110 -27.5zM391.499 71.5c34.333 18.333 63 43.832 86 76.499
s38.167 69.334 45.5 110.001c2.66699 18.667 4 32.667 4 42c0 46 -14.333 84.333 -43 115l-251 -366c14 -3.33301 30.333 -5 49 -5c38.667 0 75.167 9.16699 109.5 27.5z" />
    <glyph glyph-name="ugrave" unicode="&#xf9;" 
d="M227 735h92l82 -142h-85zM483 0l-82.998 -0.000976562l13 69l-9 -3c-22 -27.333 -47.667 -48.166 -77 -62.499s-60 -21.5 -92 -21.5c-56.667 0 -100.834 16.167 -132.501 48.5s-47.5 74.833 -47.5 127.5c0 17.333 1.33301 33.666 4 48.999l52 298h83l-53 -304
c-2.66699 -17.333 -4 -29.333 -4 -36c0 -33.333 9.66699 -59.666 29 -78.999s46.666 -29 81.999 -29c29.333 0 57.5 6.83301 84.5 20.5s50 32.5 69 56.5s31.167 50.667 36.5 80l52 291h83z" />
    <glyph glyph-name="uacute" unicode="&#xfa;" 
d="M307 593l132 142h96l-139 -142h-89zM483 0l-82.998 -0.000976562l13 69l-9 -3c-22 -27.333 -47.667 -48.166 -77 -62.499s-60 -21.5 -92 -21.5c-56.667 0 -100.834 16.167 -132.501 48.5s-47.5 74.833 -47.5 127.5c0 17.333 1.33301 33.666 4 48.999l52 298h83l-53 -304
c-2.66699 -17.333 -4 -29.333 -4 -36c0 -33.333 9.66699 -59.666 29 -78.999s46.666 -29 81.999 -29c29.333 0 57.5 6.83301 84.5 20.5s50 32.5 69 56.5s31.167 50.667 36.5 80l52 291h83z" />
    <glyph glyph-name="ucircumflex" unicode="&#xfb;" 
d="M334 735h93l89 -142h-79l-59 86h-10l-91 -86h-82zM483 0l-82.998 -0.000976562l13 69l-9 -3c-22 -27.333 -47.667 -48.166 -77 -62.499s-60 -21.5 -92 -21.5c-56.667 0 -100.834 16.167 -132.501 48.5s-47.5 74.833 -47.5 127.5c0 17.333 1.33301 33.666 4 48.999l52 298
h83l-53 -304c-2.66699 -17.333 -4 -29.333 -4 -36c0 -33.333 9.66699 -59.666 29 -78.999s46.666 -29 81.999 -29c29.333 0 57.5 6.83301 84.5 20.5s50 32.5 69 56.5s31.167 50.667 36.5 80l52 291h83z" />
    <glyph glyph-name="udieresis" unicode="&#xfc;" 
d="M205 614.5c-9.33301 9 -14 20.833 -14 35.5c0 17.333 5.66699 31.5 17 42.5s25.666 16.5 42.999 16.5c14.667 0 26.667 -4.33301 36 -13s14 -20 14 -34c0 -17.333 -5.66699 -31.833 -17 -43.5s-25.333 -17.5 -42 -17.5c-15.333 0 -27.666 4.5 -36.999 13.5zM444 615
c-9.33301 9.33301 -14 21.3311 -14 35.998c0 4.66699 0.333008 8 1 10c3.33301 14.667 10.333 26.334 21 35.001s23.334 13 38.001 13c15.333 0 27.666 -4.5 36.999 -13.5s14 -20.5 14 -34.5c0 -17.333 -5.66699 -31.666 -17 -42.999s-25.333 -17 -42 -17
c-16 0 -28.667 4.66699 -38 14zM483 -0.00195312l-82.998 -0.000976562l13 69l-9 -3c-22 -27.333 -47.667 -48.166 -77 -62.499s-60 -21.5 -92 -21.5c-56.667 0 -100.834 16.167 -132.501 48.5s-47.5 74.833 -47.5 127.5c0 17.333 1.33301 33.666 4 48.999l52 298h83
l-53 -304c-2.66699 -17.333 -4 -29.333 -4 -36c0 -33.333 9.66699 -59.666 29 -78.999s46.666 -29 81.999 -29c29.333 0 57.5 6.83301 84.5 20.5s50 32.5 69 56.5s31.167 50.667 36.5 80l52 291h83z" />
    <glyph glyph-name="yacute" unicode="&#xfd;" horiz-adv-x="533" 
d="M288 593l133 142h96l-140 -142h-89zM-33 -207l9.00195 71c20.667 -9.33301 41 -14 61 -14c20.667 0 39 5.33301 55 16s29.667 24 41 40s25 37.333 41 64l20 33l-135 502h85l103 -395h9l219 395h90l-291 -516c-28.667 -50 -52.334 -88.667 -71.001 -116
s-41 -50.333 -67 -69s-55.667 -28 -89 -28c-28.667 0 -55.334 5.66699 -80.001 17z" />
    <glyph glyph-name="ydieresis" unicode="&#xff;" horiz-adv-x="533" 
d="M186 614.5c-9.33301 9 -14 20.833 -14 35.5c0 17.333 5.66699 31.5 17 42.5s25.666 16.5 42.999 16.5c14.667 0 26.667 -4.33301 36 -13s14 -20 14 -34c0 -5.33301 -0.333008 -9.33301 -1 -12c-2 -14.667 -8.33301 -26.5 -19 -35.5s-23.667 -13.5 -39 -13.5
s-27.666 4.5 -36.999 13.5zM426 614.5c-9.33301 9 -14 20.833 -14 35.5c0 17.333 5.66699 31.5 17 42.5s25.666 16.5 42.999 16.5c14.667 0 26.667 -4.33301 36 -13s14 -20 14 -34c0 -17.333 -5.66699 -31.833 -17 -43.5s-25.333 -17.5 -42 -17.5
c-15.333 0 -27.666 4.5 -36.999 13.5zM-33 -207l9.00195 71c20.667 -9.33301 41 -14 61 -14c20.667 0 39 5.33301 55 16s29.667 24 41 40s25 37.333 41 64l20 33l-135 502h85l103 -395h9l219 395h90l-291 -516c-28.667 -50 -52.334 -88.667 -71.001 -116
s-41 -50.333 -67 -69s-55.667 -28 -89 -28c-28.667 0 -55.334 5.66699 -80.001 17z" />
    <glyph glyph-name="Amacron" unicode="&#x100;" horiz-adv-x="713" 
d="M311 868h310l-12 -66h-310zM375 705h124l140 -705h-87l-32 158h-359l-88 -158h-88zM507 233l-78 392h-9l-219 -392h306z" />
    <glyph glyph-name="amacron" unicode="&#x101;" horiz-adv-x="670" 
d="M248 668h310l-13 -66h-309zM152 8c-33.333 18.667 -59.167 44.834 -77.5 78.501s-27.5 72.167 -27.5 115.5c0 16 1.66699 34.667 5 56c8.66699 51.333 27.5 97.166 56.5 137.499s64.833 72 107.5 95s88.667 34.5 138 34.5c80.667 0 139 -35 175 -105l11 3l15 82h83
l-90 -505h-83l15 83l-8 -3c-57.333 -66.667 -125.333 -100 -204 -100c-44 0 -82.667 9.33301 -116 28zM384.999 81.5c32.667 17.667 60 41.8311 82 72.498s36.333 65.334 43 104.001c2.66699 12.667 4 26.334 4 41.001c0 45.333 -13.833 81.833 -41.5 109.5
s-64.5 41.5 -110.5 41.5c-36.667 0 -71.334 -8.66699 -104.001 -26s-60 -41.5 -82 -72.5s-36.333 -65.833 -43 -104.5c-2.66699 -12.667 -4 -26 -4 -40c0 -45.333 13.833 -82 41.5 -110s64.5 -42 110.5 -42c36.667 0 71.334 8.83301 104.001 26.5z" />
    <glyph glyph-name="Abreve" unicode="&#x102;" horiz-adv-x="713" 
d="M357.5 808.5c-25 20.333 -37.498 45.833 -37.498 76.5c0 4.66699 0.666992 11 2 19l82 -5c-0.666992 -3.33301 -1 -8 -1 -14c0 -28.667 17.667 -43 53 -43c22.667 0 41.667 5.66699 57 17s24.666 26.333 27.999 45l80 -5c-6 -36 -24.333 -65.167 -55 -87.5
s-67.334 -33.5 -110.001 -33.5c-40.667 0 -73.5 10.167 -98.5 30.5zM375.002 705h124l140 -705h-87l-32 158h-359l-88 -158h-88zM507.002 233l-78 392h-9l-219 -392h306z" />
    <glyph glyph-name="abreve" unicode="&#x103;" horiz-adv-x="670" 
d="M311 632c-21.333 20.667 -32.002 47.334 -32.002 80.001c0 11.333 0.666992 20 2 26l69 -5c-1.33301 -9.33301 -2 -16 -2 -20c0 -16 4 -28.5 12 -37.5s20 -13.5 36 -13.5c20.667 0 38.667 7.16699 54 21.5s25 32.5 29 54.5l68 -5
c-6.66699 -38.667 -24.167 -70.334 -52.5 -95.001s-61.166 -37 -98.499 -37c-35.333 0 -63.666 10.333 -84.999 31zM151.998 8c-33.333 18.667 -59.167 44.834 -77.5 78.501s-27.5 72.167 -27.5 115.5c0 16 1.66699 34.667 5 56c8.66699 51.333 27.5 97.166 56.5 137.499
s64.833 72 107.5 95s88.667 34.5 138 34.5c80.667 0 139 -35 175 -105l11 3l15 82h83l-90 -505h-83l15 83l-8 -3c-57.333 -66.667 -125.333 -100 -204 -100c-44 0 -82.667 9.33301 -116 28zM384.997 81.5c32.667 17.667 60 41.8311 82 72.498s36.333 65.334 43 104.001
c2.66699 12.667 4 26.334 4 41.001c0 45.333 -13.833 81.833 -41.5 109.5s-64.5 41.5 -110.5 41.5c-36.667 0 -71.334 -8.66699 -104.001 -26s-60 -41.5 -82 -72.5s-36.333 -65.833 -43 -104.5c-2.66699 -12.667 -4 -26 -4 -40c0 -45.333 13.833 -82 41.5 -110
s64.5 -42 110.5 -42c36.667 0 71.334 8.83301 104.001 26.5z" />
    <glyph glyph-name="Aogonek" unicode="&#x104;" horiz-adv-x="713" 
d="M521 -60c-24.667 -22 -37.001 -43.667 -37.001 -65c0 -18 11 -27 33 -27c18 0 39.667 7.33301 65 22l-4 -51c-11.333 -6 -23.666 -10.667 -36.999 -14s-25.666 -5 -36.999 -5c-20.667 0 -37.334 6 -50.001 18s-19 27.667 -19 47c0 51.333 38.667 98 116 140l-31 153h-359
l-88 -158h-88l390 705h124l140 -705h-16l1 -1c-44 -17.333 -78.333 -37 -103 -59zM506.999 233l-78 392h-9l-219 -392h306z" />
    <glyph glyph-name="aogonek" unicode="&#x105;" horiz-adv-x="670" 
d="M548 0h-10.001l1 -1c-40.667 -16.667 -73.167 -35 -97.5 -55s-38.166 -40.333 -41.499 -61c-0.666992 -2 -1 -5 -1 -9c0 -17.333 11 -26 33 -26c18 0 39.667 7.33301 65 22l-4 -51c-25.333 -12.667 -50 -19 -74 -19c-20.667 0 -37.334 6 -50.001 18s-19 27.667 -19 47
c0 24.667 9.66699 49 29 73s48.333 46.333 87 67l14 78l-8 -3c-57.333 -66.667 -125.333 -100 -204 -100c-44 0 -82.667 9.33301 -116 28s-59.166 44.834 -77.499 78.501s-27.5 72.167 -27.5 115.5c0 16 1.66699 34.667 5 56c8.66699 51.333 27.5 97.166 56.5 137.499
s64.833 72 107.5 95s88.667 34.5 138 34.5c80.667 0 139 -35 175 -105l11 3l15 82h83zM384.999 81.5c32.667 17.667 60 41.8311 82 72.498s36.333 65.334 43 104.001c2.66699 12.667 4 26.334 4 41.001c0 45.333 -13.833 81.833 -41.5 109.5s-64.5 41.5 -110.5 41.5
c-36.667 0 -71.334 -8.66699 -104.001 -26s-60 -41.5 -82 -72.5s-36.333 -65.833 -43 -104.5c-2.66699 -12.667 -4 -26 -4 -40c0 -45.333 13.833 -82 41.5 -110s64.5 -42 110.5 -42c36.667 0 71.334 8.83301 104.001 26.5z" />
    <glyph glyph-name="Cacute" unicode="&#x106;" horiz-adv-x="803" 
d="M592 914h105l-131 -113h-100zM210.5 13.5c-47 25.667 -83.168 61.501 -108.501 107.501s-38 99 -38 159c0 26.667 2.33301 52.667 7 78c12.667 71.333 39.334 135.166 80.001 191.499s91 100.5 151 132.5s124.667 48 194 48c52.667 0 100.834 -11.333 144.501 -34
s78.667 -53.667 105 -93s41.166 -83.333 44.499 -132l-89 -6c-2 35.333 -12.5 67.166 -31.5 95.499s-44 50.333 -75 66s-64.833 23.5 -101.5 23.5c-53.333 0 -103.666 -13 -150.999 -39s-87 -62 -119 -108s-53 -98 -63 -156c-4 -22 -6 -43 -6 -63
c0 -45.333 9.16699 -85.166 27.5 -119.499s44.166 -61.166 77.499 -80.499s72.666 -29 117.999 -29c38 0 75.833 8 113.5 24s71.334 38 101.001 66s52.5 59.333 68.5 94l85 -23c-20 -46 -49.167 -87.333 -87.5 -124s-82.333 -65.334 -132 -86.001s-100.167 -31 -151.5 -31
c-62 0 -116.5 12.833 -163.5 38.5z" />
    <glyph glyph-name="cacute" unicode="&#x107;" horiz-adv-x="612" 
d="M326 593l133 142h96l-140 -142h-89zM152.5 8c-33.667 18.667 -59.6641 44.668 -77.9971 78.001s-27.5 71.666 -27.5 114.999c0 21.333 1.66699 40.333 5 57c8.66699 51.333 27.667 97.166 57 137.499s65.666 72 108.999 95s89.666 34.5 138.999 34.5
c41.333 0 78.666 -8.16699 111.999 -24.5s59.166 -39 77.499 -68s27.5 -61.167 27.5 -96.5l-80 -5c-2.66699 36 -17 64.833 -43 86.5s-58 32.5 -96 32.5c-34.667 0 -67.667 -8.66699 -99 -26s-58 -41.5 -80 -72.5s-36.333 -65.833 -43 -104.5
c-2.66699 -13.333 -4 -27.333 -4 -42c0 -45.333 13.167 -81.666 39.5 -108.999s61.166 -41 104.499 -41c41.333 0 79.833 11.5 115.5 34.5s61.5 52.5 77.5 88.5l80 -16c-13.333 -35.333 -34.166 -66.833 -62.499 -94.5s-61.166 -49.167 -98.499 -64.5
s-75.666 -23 -114.999 -23c-44.667 0 -83.834 9.33301 -117.501 28z" />
    <glyph glyph-name="Ccircumflex" unicode="&#x108;" horiz-adv-x="803" 
d="M583 914l95 -113h-82l-64 62h-10l-86 -62h-86l135 113h98zM210.5 13.5c-47 25.667 -83.168 61.501 -108.501 107.501s-38 99 -38 159c0 26.667 2.33301 52.667 7 78c12.667 71.333 39.334 135.166 80.001 191.499s91 100.5 151 132.5s124.667 48 194 48
c52.667 0 100.834 -11.333 144.501 -34s78.667 -53.667 105 -93s41.166 -83.333 44.499 -132l-89 -6c-2 35.333 -12.5 67.166 -31.5 95.499s-44 50.333 -75 66s-64.833 23.5 -101.5 23.5c-53.333 0 -103.666 -13 -150.999 -39s-87 -62 -119 -108s-53 -98 -63 -156
c-4 -22 -6 -43 -6 -63c0 -45.333 9.16699 -85.166 27.5 -119.499s44.166 -61.166 77.499 -80.499s72.666 -29 117.999 -29c38 0 75.833 8 113.5 24s71.334 38 101.001 66s52.5 59.333 68.5 94l85 -23c-20 -46 -49.167 -87.333 -87.5 -124s-82.333 -65.334 -132 -86.001
s-100.167 -31 -151.5 -31c-62 0 -116.5 12.833 -163.5 38.5z" />
    <glyph glyph-name="ccircumflex" unicode="&#x109;" horiz-adv-x="612" 
d="M353 735h93l90 -142h-79l-59 86h-10l-91 -86h-83zM152.5 8c-33.667 18.667 -59.6641 44.668 -77.9971 78.001s-27.5 71.666 -27.5 114.999c0 21.333 1.66699 40.333 5 57c8.66699 51.333 27.667 97.166 57 137.499s65.666 72 108.999 95s89.666 34.5 138.999 34.5
c41.333 0 78.666 -8.16699 111.999 -24.5s59.166 -39 77.499 -68s27.5 -61.167 27.5 -96.5l-80 -5c-2.66699 36 -17 64.833 -43 86.5s-58 32.5 -96 32.5c-34.667 0 -67.667 -8.66699 -99 -26s-58 -41.5 -80 -72.5s-36.333 -65.833 -43 -104.5
c-2.66699 -13.333 -4 -27.333 -4 -42c0 -45.333 13.167 -81.666 39.5 -108.999s61.166 -41 104.499 -41c41.333 0 79.833 11.5 115.5 34.5s61.5 52.5 77.5 88.5l80 -16c-13.333 -35.333 -34.166 -66.833 -62.499 -94.5s-61.166 -49.167 -98.499 -64.5
s-75.666 -23 -114.999 -23c-44.667 0 -83.834 9.33301 -117.501 28z" />
    <glyph glyph-name="Cdotaccent" unicode="&#x10a;" horiz-adv-x="803" 
d="M480 817.5c-10 9.66699 -14.998 22.167 -14.998 37.5c0 19.333 6.16699 35.166 18.5 47.499s28.166 18.5 47.499 18.5c16 0 28.833 -4.66699 38.5 -14s14.5 -21.666 14.5 -36.999c0 -6 -0.333008 -10.333 -1 -13c-2.66699 -16 -9.83398 -29 -21.501 -39
s-25.5 -15 -41.5 -15c-16.667 0 -30 4.83301 -40 14.5zM210.502 13.5c-47 25.667 -83.168 61.501 -108.501 107.501s-38 99 -38 159c0 26.667 2.33301 52.667 7 78c12.667 71.333 39.334 135.166 80.001 191.499s91 100.5 151 132.5s124.667 48 194 48
c52.667 0 100.834 -11.333 144.501 -34s78.667 -53.667 105 -93s41.166 -83.333 44.499 -132l-89 -6c-2 35.333 -12.5 67.166 -31.5 95.499s-44 50.333 -75 66s-64.833 23.5 -101.5 23.5c-53.333 0 -103.666 -13 -150.999 -39s-87 -62 -119 -108s-53 -98 -63 -156
c-4 -22 -6 -43 -6 -63c0 -45.333 9.16699 -85.166 27.5 -119.499s44.166 -61.166 77.499 -80.499s72.666 -29 117.999 -29c38 0 75.833 8 113.5 24s71.334 38 101.001 66s52.5 59.333 68.5 94l85 -23c-20 -46 -49.167 -87.333 -87.5 -124s-82.333 -65.334 -132 -86.001
s-100.167 -31 -151.5 -31c-62 0 -116.5 12.833 -163.5 38.5z" />
    <glyph glyph-name="cdotaccent" unicode="&#x10b;" horiz-adv-x="612" 
d="M341.5 615.5c-9.66699 9.66699 -14.5 22.167 -14.5 37.5c0 19.333 6.16699 35.166 18.5 47.499s27.833 18.5 46.5 18.5c16.667 0 29.834 -4.66699 39.501 -14s14.5 -21.666 14.5 -36.999c0 -19.333 -6.16699 -35.333 -18.5 -48s-27.833 -19 -46.5 -19
c-16.667 0 -29.834 4.83301 -39.501 14.5zM152.5 8c-33.667 18.667 -59.6641 44.668 -77.9971 78.001s-27.5 71.666 -27.5 114.999c0 21.333 1.66699 40.333 5 57c8.66699 51.333 27.667 97.166 57 137.499s65.666 72 108.999 95s89.666 34.5 138.999 34.5
c41.333 0 78.666 -8.16699 111.999 -24.5s59.166 -39 77.499 -68s27.5 -61.167 27.5 -96.5l-80 -5c-2.66699 36 -17 64.833 -43 86.5s-58 32.5 -96 32.5c-34.667 0 -67.667 -8.66699 -99 -26s-58 -41.5 -80 -72.5s-36.333 -65.833 -43 -104.5
c-2.66699 -13.333 -4 -27.333 -4 -42c0 -45.333 13.167 -81.666 39.5 -108.999s61.166 -41 104.499 -41c41.333 0 79.833 11.5 115.5 34.5s61.5 52.5 77.5 88.5l80 -16c-13.333 -35.333 -34.166 -66.833 -62.499 -94.5s-61.166 -49.167 -98.499 -64.5
s-75.666 -23 -114.999 -23c-44.667 0 -83.834 9.33301 -117.501 28z" />
    <glyph glyph-name="Ccaron" unicode="&#x10c;" horiz-adv-x="803" 
d="M371 914h83l63 -62h11l85 62h87l-137 -113h-97zM210.5 13.5c-47 25.667 -83.168 61.501 -108.501 107.501s-38 99 -38 159c0 26.667 2.33301 52.667 7 78c12.667 71.333 39.334 135.166 80.001 191.499s91 100.5 151 132.5s124.667 48 194 48
c52.667 0 100.834 -11.333 144.501 -34s78.667 -53.667 105 -93s41.166 -83.333 44.499 -132l-89 -6c-2 35.333 -12.5 67.166 -31.5 95.499s-44 50.333 -75 66s-64.833 23.5 -101.5 23.5c-53.333 0 -103.666 -13 -150.999 -39s-87 -62 -119 -108s-53 -98 -63 -156
c-4 -22 -6 -43 -6 -63c0 -45.333 9.16699 -85.166 27.5 -119.499s44.166 -61.166 77.499 -80.499s72.666 -29 117.999 -29c38 0 75.833 8 113.5 24s71.334 38 101.001 66s52.5 59.333 68.5 94l85 -23c-20 -46 -49.167 -87.333 -87.5 -124s-82.333 -65.334 -132 -86.001
s-100.167 -31 -151.5 -31c-62 0 -116.5 12.833 -163.5 38.5z" />
    <glyph glyph-name="ccaron" unicode="&#x10d;" horiz-adv-x="612" 
d="M317 735l61 -85h10l89 85h83l-140 -142h-93l-88 142h78zM152.5 8c-33.667 18.667 -59.6641 44.668 -77.9971 78.001s-27.5 71.666 -27.5 114.999c0 21.333 1.66699 40.333 5 57c8.66699 51.333 27.667 97.166 57 137.499s65.666 72 108.999 95s89.666 34.5 138.999 34.5
c41.333 0 78.666 -8.16699 111.999 -24.5s59.166 -39 77.499 -68s27.5 -61.167 27.5 -96.5l-80 -5c-2.66699 36 -17 64.833 -43 86.5s-58 32.5 -96 32.5c-34.667 0 -67.667 -8.66699 -99 -26s-58 -41.5 -80 -72.5s-36.333 -65.833 -43 -104.5
c-2.66699 -13.333 -4 -27.333 -4 -42c0 -45.333 13.167 -81.666 39.5 -108.999s61.166 -41 104.499 -41c41.333 0 79.833 11.5 115.5 34.5s61.5 52.5 77.5 88.5l80 -16c-13.333 -35.333 -34.166 -66.833 -62.499 -94.5s-61.166 -49.167 -98.499 -64.5
s-75.666 -23 -114.999 -23c-44.667 0 -83.834 9.33301 -117.501 28z" />
    <glyph glyph-name="Dcaron" unicode="&#x10e;" horiz-adv-x="779" 
d="M332 901h83l64 -62h10l86 62h86l-136 -113h-97zM175 705l224.001 -0.00195312c71.333 0 133.5 -11.833 186.5 -35.5s93.833 -57.5 122.5 -101.5s43 -95.333 43 -154c0 -21.333 -2 -43.666 -6 -66.999c-12.667 -69.333 -40.334 -130.166 -83.001 -182.499
s-97 -92.833 -163 -121.5s-139.333 -43 -220 -43h-228zM289.001 79.998c62.667 0 120 11.333 172 34s95 55 129 97s56 91 66 147c3.33301 20 5 37.333 5 52c0 67.333 -24.167 120 -72.5 158s-114.5 57 -198.5 57h-138l-95 -545h132z" />
    <glyph glyph-name="dcaron" unicode="&#x10f;" horiz-adv-x="674" 
d="M732 566l52.999 74.001c-13.333 1.33301 -24.333 6.33301 -33 15s-13 19.667 -13 33c0 16 5.83301 29.5 17.5 40.5s25.834 16.5 42.501 16.5c14.667 0 26.667 -4.5 36 -13.5s14 -20.5 14 -34.5c0 -4.66699 -0.333008 -8.33398 -1 -11.001
c-2.66699 -16 -8 -29.333 -16 -40l-66 -90zM153.499 8.50098c-33.667 19 -59.834 45.499 -78.501 79.499s-28 72.667 -28 116c0 14.667 1.66699 32.667 5 54c8.66699 50.667 27.834 96.334 57.501 137.001s66 72.5 109 95.5s88.5 34.5 136.5 34.5
c41.333 0 77 -8.66699 107 -26s51.333 -41 64 -71l12 2l54 305h83l-130 -735h-83l14 78l-9 -3c-23.333 -30.667 -52 -54.167 -86 -70.5s-71.333 -24.5 -112 -24.5c-43.333 0 -81.833 9.5 -115.5 28.5zM384.999 82c32.667 18 60.165 42.5 82.498 73.5s36.5 65.167 42.5 102.5
c2.66699 12.667 4 26 4 40c0 44.667 -13.833 81.167 -41.5 109.5s-64.5 42.5 -110.5 42.5c-36.667 0 -71.167 -9 -103.5 -27s-59.666 -42.5 -81.999 -73.5s-36.833 -65.167 -43.5 -102.5c-2.66699 -18.667 -4 -32 -4 -40c0 -44.667 14 -81.167 42 -109.5
s64.667 -42.5 110 -42.5c36.667 0 71.334 9 104.001 27z" />
    <glyph glyph-name="Dcroat" unicode="&#x110;" horiz-adv-x="825" 
d="M631.5 669.5c53 -23.667 93.6689 -57.333 122.002 -101s42.5 -94.834 42.5 -153.501c0 -21.333 -2 -44 -6 -68c-12 -69.333 -39.333 -130.166 -82 -182.499s-96.834 -92.833 -162.501 -121.5s-138.834 -43 -219.501 -43h-229l64 366h-111l14 75h111l46 264h224
c71.333 0 133.5 -11.833 186.5 -35.5zM707.002 411.001c0 66.667 -24.167 119 -72.5 157s-114.5 57 -198.5 57h-138l-32 -184h248l-14 -75h-248l-50 -286h132c62.667 0 120.167 11.333 172.5 34s95.5 55 129.5 97s56 91 66 147c3.33301 20 5 37.667 5 53z" />
    <glyph glyph-name="dcroat" unicode="&#x111;" horiz-adv-x="665" 
d="M743 610l-91 -0.000976562l-108 -610h-83l14 78l-9 -3c-23.333 -30.667 -52 -54.167 -86 -70.5s-71.333 -24.5 -112 -24.5c-43.333 0 -81.833 9.5 -115.5 28.5s-59.834 45.5 -78.501 79.5s-28 72.667 -28 116c0 14.667 1.66699 32.667 5 54
c8.66699 50.667 27.834 96.334 57.501 137.001s66 72.5 109 95.5s88.5 34.5 136.5 34.5c41.333 0 77 -8.66699 107 -26s51.333 -41 64 -71l12 2l32 180h-208l10 61h209l11 64h83l-11 -64h90zM513 297.999c0 44.667 -13.835 81.167 -41.502 109.5s-64.5 42.5 -110.5 42.5
c-36.667 0 -71.167 -9 -103.5 -27s-59.666 -42.5 -81.999 -73.5s-36.833 -65.167 -43.5 -102.5c-2.66699 -18.667 -4 -32 -4 -40c0 -44.667 14 -81.167 42 -109.5s64.667 -42.5 110 -42.5c36.667 0 71.334 9 104.001 27s60.167 42.5 82.5 73.5s36.5 65.167 42.5 102.5
c2.66699 12.667 4 26 4 40z" />
    <glyph glyph-name="Emacron" unicode="&#x112;" horiz-adv-x="639" 
d="M293 868h310l-12 -66h-310zM175 705h484l-14 -80h-393l-39 -220h353l-14 -80h-353l-42 -245h402l-15 -80h-493z" />
    <glyph glyph-name="emacron" unicode="&#x113;" horiz-adv-x="635" 
d="M237 668h310l-12 -66h-310zM158.5 9c-35 19.333 -62.1689 46.168 -81.502 80.501s-29 73.833 -29 118.5c0 16 1.66699 35 5 57c8.66699 50 27.834 94.667 57.501 134s66.5 70.166 110.5 92.499s91.333 33.5 142 33.5c45.333 0 85.166 -9.33301 119.499 -28
s60.833 -44.5 79.5 -77.5s28 -71.167 28 -114.5c0 -15.333 -1.66699 -33 -5 -53c-2 -12 -4.33301 -22 -7 -30h-447c-2.66699 -50.667 9.83301 -91.167 37.5 -121.5s66.5 -45.5 116.5 -45.5c38.667 0 75.334 9.16699 110.001 27.5s63 42.833 85 73.5l64 -40
c-28 -43.333 -65.167 -76.833 -111.5 -100.5s-97.166 -35.5 -152.499 -35.5c-46 0 -86.5 9.66699 -121.5 29zM504.998 301.002c1.33301 45.333 -11.5 81.5 -38.5 108.5s-63.833 40.5 -110.5 40.5c-47.333 0 -90.5 -14.333 -129.5 -43s-66.167 -66 -81.5 -112z" />
    <glyph glyph-name="Ebreve" unicode="&#x114;" horiz-adv-x="639" 
d="M339.5 808c-25 20 -37.499 45.333 -37.499 76c0 4 0.666992 10.667 2 20l81 -5c-0.666992 -3.33301 -1 -8 -1 -14c0 -28.667 17.667 -43 53 -43c22.667 0 41.834 5.66699 57.501 17s25.167 26.333 28.5 45l80 -5c-6.66699 -36 -25.334 -65.167 -56.001 -87.5
s-67.334 -33.5 -110.001 -33.5c-40 0 -72.5 10 -97.5 30zM175.001 705h484l-14 -80h-393l-39 -220h353l-14 -80h-353l-42 -245h402l-15 -80h-493z" />
    <glyph glyph-name="ebreve" unicode="&#x115;" horiz-adv-x="635" 
d="M300.5 631.5c-21 20.333 -31.498 46.834 -31.498 79.501c0 12 0.666992 21 2 27l68 -5c-1.33301 -9.33301 -2 -16 -2 -20c0 -16 4.16699 -28.5 12.5 -37.5s20.166 -13.5 35.499 -13.5c20.667 0 38.667 7.16699 54 21.5s25 32.5 29 54.5l69 -5
c-6.66699 -38.667 -24.334 -70.334 -53.001 -95.001s-61.667 -37 -99 -37c-35.333 0 -63.5 10.167 -84.5 30.5zM158.502 9.00098c-35 19.333 -62.1689 46.168 -81.502 80.501s-29 73.833 -29 118.5c0 16 1.66699 35 5 57c8.66699 50 27.834 94.667 57.501 134
s66.5 70.166 110.5 92.499s91.333 33.5 142 33.5c45.333 0 85.166 -9.33301 119.499 -28s60.833 -44.5 79.5 -77.5s28 -71.167 28 -114.5c0 -15.333 -1.66699 -33 -5 -53c-2 -12 -4.33301 -22 -7 -30h-447c-2.66699 -50.667 9.83301 -91.167 37.5 -121.5
s66.5 -45.5 116.5 -45.5c38.667 0 75.334 9.16699 110.001 27.5s63 42.833 85 73.5l64 -40c-28 -43.333 -65.167 -76.833 -111.5 -100.5s-97.166 -35.5 -152.499 -35.5c-46 0 -86.5 9.66699 -121.5 29zM505 301.003c1.33301 45.333 -11.5 81.5 -38.5 108.5
s-63.833 40.5 -110.5 40.5c-47.333 0 -90.5 -14.333 -129.5 -43s-66.167 -66 -81.5 -112z" />
    <glyph glyph-name="Edotaccent" unicode="&#x116;" horiz-adv-x="639" 
d="M399.5 804c-9.66699 9.33301 -14.499 21.666 -14.499 36.999c0 20 6.16699 36.167 18.5 48.5s27.5 18.5 45.5 18.5c16.667 0 30 -4.66699 40 -14s15 -21.666 15 -36.999c0 -19.333 -6.33301 -35.333 -19 -48s-28 -19 -46 -19c-16.667 0 -29.834 4.66699 -39.501 14z
M175.001 705h484l-14 -80h-393l-39 -220h353l-14 -80h-353l-42 -245h402l-15 -80h-493z" />
    <glyph glyph-name="edotaccent" unicode="&#x117;" horiz-adv-x="635" 
d="M345 615.5c-10 9.66699 -15.002 22.499 -15.002 38.499c0 19.333 6.33301 35 19 47s28.334 18 47.001 18c16.667 0 29.834 -4.83301 39.501 -14.5s14.5 -22.167 14.5 -37.5c0 -19.333 -6.33301 -35.166 -19 -47.499s-28 -18.5 -46 -18.5c-16.667 0 -30 4.83301 -40 14.5z
M158.498 8.99902c-35 19.333 -62.1689 46.168 -81.502 80.501s-29 73.833 -29 118.5c0 16 1.66699 35 5 57c8.66699 50 27.834 94.667 57.501 134s66.5 70.166 110.5 92.499s91.333 33.5 142 33.5c45.333 0 85.166 -9.33301 119.499 -28s60.833 -44.5 79.5 -77.5
s28 -71.167 28 -114.5c0 -15.333 -1.66699 -33 -5 -53c-2 -12 -4.33301 -22 -7 -30h-447c-2.66699 -50.667 9.83301 -91.167 37.5 -121.5s66.5 -45.5 116.5 -45.5c38.667 0 75.334 9.16699 110.001 27.5s63 42.833 85 73.5l64 -40
c-28 -43.333 -65.167 -76.833 -111.5 -100.5s-97.166 -35.5 -152.499 -35.5c-46 0 -86.5 9.66699 -121.5 29zM504.996 301.001c1.33301 45.333 -11.5 81.5 -38.5 108.5s-63.833 40.5 -110.5 40.5c-47.333 0 -90.5 -14.333 -129.5 -43s-66.167 -66 -81.5 -112z" />
    <glyph glyph-name="Eogonek" unicode="&#x118;" horiz-adv-x="639" 
d="M252 625l-39.001 -219.999h353l-14 -80h-353l-42 -245h402l-15 -80h-28l1 -1c-44 -17.333 -78.333 -37 -103 -59s-37 -43.667 -37 -65c0 -18 11 -27 33 -27c17.333 0 39 7.33301 65 22l-4 -51c-11.333 -6 -23.666 -10.667 -36.999 -14s-25.666 -5 -36.999 -5
c-20.667 0 -37.334 6 -50.001 18s-19 27.667 -19 47c0 23.333 9 46.666 27 69.999s44.667 45 80 65h-384l124 705h484l-14 -80h-393z" />
    <glyph glyph-name="eogonek" unicode="&#x119;" horiz-adv-x="635" 
d="M482.5 497c34.333 -18.667 60.835 -44.5 79.502 -77.5s28 -71.167 28 -114.5c0 -15.333 -1.66699 -33 -5 -53c-2 -12 -4.33301 -22 -7 -30h-447c-2.66699 -50.667 9.83301 -91.167 37.5 -121.5s66.5 -45.5 116.5 -45.5c38.667 0 75.334 9.16699 110.001 27.5
s63 42.833 85 73.5l64 -40c-20.667 -32 -46.334 -58.667 -77.001 -80s-65 -36.666 -103 -45.999c-37.333 -16.667 -66.5 -35.167 -87.5 -55.5s-31.5 -40.166 -31.5 -59.499c0 -18 11 -27 33 -27c18 0 39.667 7.33301 65 22l-4 -51c-25.333 -12.667 -50 -19 -74 -19
c-20.667 0 -37.334 6 -50.001 18s-19 27.667 -19 47c0 41.333 25 79.666 75 114.999c-44.667 1.33301 -83.834 11.833 -117.501 31.5s-59.667 46.5 -78 80.5s-27.5 73 -27.5 117c0 16 1.66699 34.667 5 56c8.66699 50 27.834 94.667 57.501 134s66.5 70.166 110.5 92.499
s91.333 33.5 142 33.5c45.333 0 85.166 -9.33301 119.499 -28zM466.502 409.5c-27 27 -63.833 40.5 -110.5 40.5c-47.333 0 -90.5 -14.333 -129.5 -43s-66.167 -66 -81.5 -112l360 6c1.33301 45.333 -11.5 81.5 -38.5 108.5z" />
    <glyph glyph-name="Ecaron" unicode="&#x11a;" horiz-adv-x="639" 
d="M290 901h83l63 -62h11l85 62h87l-136 -113h-97zM175 705h484l-14 -80h-393l-39 -220h353l-14 -80h-353l-42 -245h402l-15 -80h-493z" />
    <glyph glyph-name="ecaron" unicode="&#x11b;" horiz-adv-x="635" 
d="M321 735l61 -85h9l90 85h83l-140 -142h-93l-89 142h79zM158.5 9c-35 19.333 -62.1689 46.168 -81.502 80.501s-29 73.833 -29 118.5c0 16 1.66699 35 5 57c8.66699 50 27.834 94.667 57.501 134s66.5 70.166 110.5 92.499s91.333 33.5 142 33.5
c45.333 0 85.166 -9.33301 119.499 -28s60.833 -44.5 79.5 -77.5s28 -71.167 28 -114.5c0 -15.333 -1.66699 -33 -5 -53c-2 -12 -4.33301 -22 -7 -30h-447c-2.66699 -50.667 9.83301 -91.167 37.5 -121.5s66.5 -45.5 116.5 -45.5c38.667 0 75.334 9.16699 110.001 27.5
s63 42.833 85 73.5l64 -40c-28 -43.333 -65.167 -76.833 -111.5 -100.5s-97.166 -35.5 -152.499 -35.5c-46 0 -86.5 9.66699 -121.5 29zM504.998 301.002c1.33301 45.333 -11.5 81.5 -38.5 108.5s-63.833 40.5 -110.5 40.5c-47.333 0 -90.5 -14.333 -129.5 -43
s-66.167 -66 -81.5 -112z" />
    <glyph glyph-name="Gcircumflex" unicode="&#x11c;" horiz-adv-x="852" 
d="M596 901l96 -113h-83l-64 62h-9l-86 -62h-87l135 113h98zM217.5 14c-49 26 -86.834 62.335 -113.501 109.002s-40 100 -40 160c0 26 2.33301 51 7 75c12.667 71.333 40 135.166 82 191.499s94.333 100.5 157 132.5s130 48 202 48c48.667 0 94 -9 136 -27
s76.5 -42.833 103.5 -74.5s43.5 -66.834 49.5 -105.501l-87 -21c-4 28.667 -15.667 54.167 -35 76.5s-44 39.833 -74 52.5s-62.333 19 -97 19c-56.667 0 -109.667 -13 -159 -39s-90.666 -62 -123.999 -108s-55 -98 -65 -156c-3.33301 -17.333 -5 -37.333 -5 -60
c0 -45.333 9.66699 -85.5 29 -120.5s47 -62.333 83 -82s78 -29.5 126 -29.5c50.667 0 99 11.167 145 33.5s85 52.833 117 91.5s53 81.667 63 129l-351 -2l15 81l441 -3c-8.66699 -79.333 -33 -150 -73 -212s-91.5 -110.5 -154.5 -145.5s-131.833 -52.5 -206.5 -52.5
c-65.333 0 -122.5 13 -171.5 39z" />
    <glyph glyph-name="gcircumflex" unicode="&#x11d;" horiz-adv-x="666" 
d="M360 735h93l89 -142h-79l-59 86h-10l-91 -86h-82zM77 -204c-41.333 30.667 -65.6689 72.332 -73.002 124.999l85 25c6.66699 -39.333 23.334 -69.333 50.001 -90s61.667 -31 105 -31c56.667 0 105 17 145 51s65.333 79.333 76 136l11 65l-9 -2
c-56.667 -58.667 -122 -88 -196 -88c-44.667 0 -84 9.16699 -118 27.5s-60.167 43.833 -78.5 76.5s-27.5 70.334 -27.5 113.001c0 14.667 1.66699 32.667 5 54c8.66699 50.667 27.667 96.167 57 136.5s65.333 72 108 95s88.667 34.5 138 34.5
c78.667 0 136.334 -31 173.001 -93l12 2l13 72h82l-88 -499c-9.33301 -52 -28.166 -97.167 -56.499 -135.5s-64.333 -68 -108 -89s-91.834 -31.5 -144.501 -31.5c-66 0 -119.667 15.333 -161 46zM385.997 85.498c32.667 17 60 40.667 82 71s36 64.166 42 101.499
c2.66699 12.667 4 26.334 4 41.001c0 45.333 -13.833 81.833 -41.5 109.5s-64.5 41.5 -110.5 41.5c-36.667 0 -71.334 -8.66699 -104.001 -26s-60 -41.5 -82 -72.5s-36.333 -65.833 -43 -104.5c-2.66699 -17.333 -4 -30 -4 -38c0 -44 14 -79.833 42 -107.5
s65 -41.5 111 -41.5c36.667 0 71.334 8.5 104.001 25.5z" />
    <glyph glyph-name="Gbreve" unicode="&#x11e;" horiz-adv-x="852" 
d="M433.5 808c-25 20 -37.4971 45.333 -37.4971 76c0 4 0.666992 10.667 2 20l81 -5c-0.666992 -3.33301 -1 -8 -1 -14c0 -28.667 17.667 -43 53 -43c22.667 0 41.667 5.66699 57 17s24.666 26.333 27.999 45l81 -5c-6.66699 -36 -25.334 -65.167 -56.001 -87.5
s-67.334 -33.5 -110.001 -33.5c-40 0 -72.5 10 -97.5 30zM217.503 14c-49 26 -86.834 62.335 -113.501 109.002s-40 100 -40 160c0 26 2.33301 51 7 75c12.667 71.333 40 135.166 82 191.499s94.333 100.5 157 132.5s130 48 202 48c48.667 0 94 -9 136 -27
s76.5 -42.833 103.5 -74.5s43.5 -66.834 49.5 -105.501l-87 -21c-4 28.667 -15.667 54.167 -35 76.5s-44 39.833 -74 52.5s-62.333 19 -97 19c-56.667 0 -109.667 -13 -159 -39s-90.666 -62 -123.999 -108s-55 -98 -65 -156c-3.33301 -17.333 -5 -37.333 -5 -60
c0 -45.333 9.66699 -85.5 29 -120.5s47 -62.333 83 -82s78 -29.5 126 -29.5c50.667 0 99 11.167 145 33.5s85 52.833 117 91.5s53 81.667 63 129l-351 -2l15 81l441 -3c-8.66699 -79.333 -33 -150 -73 -212s-91.5 -110.5 -154.5 -145.5s-131.833 -52.5 -206.5 -52.5
c-65.333 0 -122.5 13 -171.5 39z" />
    <glyph glyph-name="gbreve" unicode="&#x11f;" horiz-adv-x="666" 
d="M303 632c-21.333 20.667 -32.002 47.334 -32.002 80.001c0 11.333 0.666992 20 2 26l69 -5c-1.33301 -9.33301 -2 -16 -2 -20c0 -16 4 -28.5 12 -37.5s20 -13.5 36 -13.5c20.667 0 38.667 7.16699 54 21.5s25 32.5 29 54.5l68 -5
c-6.66699 -38.667 -24.167 -70.334 -52.5 -95.001s-61.166 -37 -98.499 -37c-35.333 0 -63.666 10.333 -84.999 31zM76.998 -204c-41.333 30.667 -65.6689 72.332 -73.002 124.999l85 25c6.66699 -39.333 23.334 -69.333 50.001 -90s61.667 -31 105 -31
c56.667 0 105 17 145 51s65.333 79.333 76 136l11 65l-9 -2c-56.667 -58.667 -122 -88 -196 -88c-44.667 0 -84 9.16699 -118 27.5s-60.167 43.833 -78.5 76.5s-27.5 70.334 -27.5 113.001c0 14.667 1.66699 32.667 5 54c8.66699 50.667 27.667 96.167 57 136.5
s65.333 72 108 95s88.667 34.5 138 34.5c78.667 0 136.334 -31 173.001 -93l12 2l13 72h82l-88 -499c-9.33301 -52 -28.166 -97.167 -56.499 -135.5s-64.333 -68 -108 -89s-91.834 -31.5 -144.501 -31.5c-66 0 -119.667 15.333 -161 46zM385.995 85.498
c32.667 17 60 40.667 82 71s36 64.166 42 101.499c2.66699 12.667 4 26.334 4 41.001c0 45.333 -13.833 81.833 -41.5 109.5s-64.5 41.5 -110.5 41.5c-36.667 0 -71.334 -8.66699 -104.001 -26s-60 -41.5 -82 -72.5s-36.333 -65.833 -43 -104.5
c-2.66699 -17.333 -4 -30 -4 -38c0 -44 14 -79.833 42 -107.5s65 -41.5 111 -41.5c36.667 0 71.334 8.5 104.001 25.5z" />
    <glyph glyph-name="Gdotaccent" unicode="&#x120;" horiz-adv-x="852" 
d="M493.5 804c-9.66699 9.33301 -14.499 21.666 -14.499 36.999c0 20 6.16699 36.167 18.5 48.5s27.5 18.5 45.5 18.5c16.667 0 30 -4.66699 40 -14s15 -21.666 15 -36.999c0 -19.333 -6.33301 -35.333 -19 -48s-28 -19 -46 -19c-16.667 0 -29.834 4.66699 -39.501 14z
M217.501 14c-49 26 -86.834 62.335 -113.501 109.002s-40 100 -40 160c0 26 2.33301 51 7 75c12.667 71.333 40 135.166 82 191.499s94.333 100.5 157 132.5s130 48 202 48c48.667 0 94 -9 136 -27s76.5 -42.833 103.5 -74.5s43.5 -66.834 49.5 -105.501l-87 -21
c-4 28.667 -15.667 54.167 -35 76.5s-44 39.833 -74 52.5s-62.333 19 -97 19c-56.667 0 -109.667 -13 -159 -39s-90.666 -62 -123.999 -108s-55 -98 -65 -156c-3.33301 -17.333 -5 -37.333 -5 -60c0 -45.333 9.66699 -85.5 29 -120.5s47 -62.333 83 -82s78 -29.5 126 -29.5
c50.667 0 99 11.167 145 33.5s85 52.833 117 91.5s53 81.667 63 129l-351 -2l15 81l441 -3c-8.66699 -79.333 -33 -150 -73 -212s-91.5 -110.5 -154.5 -145.5s-131.833 -52.5 -206.5 -52.5c-65.333 0 -122.5 13 -171.5 39z" />
    <glyph glyph-name="gdotaccent" unicode="&#x121;" horiz-adv-x="666" 
d="M348 615.5c-10 9.66699 -15.001 22.167 -15.001 37.5c0 19.333 6.16699 35.166 18.5 47.499s27.833 18.5 46.5 18.5c16.667 0 29.834 -4.66699 39.501 -14s14.5 -21.666 14.5 -36.999c0 -19.333 -6.16699 -35.333 -18.5 -48s-27.5 -19 -45.5 -19
c-16.667 0 -30 4.83301 -40 14.5zM76.999 -204c-41.333 30.667 -65.6689 72.332 -73.002 124.999l85 25c6.66699 -39.333 23.334 -69.333 50.001 -90s61.667 -31 105 -31c56.667 0 105 17 145 51s65.333 79.333 76 136l11 65l-9 -2c-56.667 -58.667 -122 -88 -196 -88
c-44.667 0 -84 9.16699 -118 27.5s-60.167 43.833 -78.5 76.5s-27.5 70.334 -27.5 113.001c0 14.667 1.66699 32.667 5 54c8.66699 50.667 27.667 96.167 57 136.5s65.333 72 108 95s88.667 34.5 138 34.5c78.667 0 136.334 -31 173.001 -93l12 2l13 72h82l-88 -499
c-9.33301 -52 -28.166 -97.167 -56.499 -135.5s-64.333 -68 -108 -89s-91.834 -31.5 -144.501 -31.5c-66 0 -119.667 15.333 -161 46zM385.996 85.498c32.667 17 60 40.667 82 71s36 64.166 42 101.499c2.66699 12.667 4 26.334 4 41.001
c0 45.333 -13.833 81.833 -41.5 109.5s-64.5 41.5 -110.5 41.5c-36.667 0 -71.334 -8.66699 -104.001 -26s-60 -41.5 -82 -72.5s-36.333 -65.833 -43 -104.5c-2.66699 -17.333 -4 -30 -4 -38c0 -44 14 -79.833 42 -107.5s65 -41.5 111 -41.5
c36.667 0 71.334 8.5 104.001 25.5z" />
    <glyph glyph-name="Gcommaaccent" unicode="&#x122;" horiz-adv-x="852" 
d="M217.5 14c-49 26 -86.834 62.335 -113.501 109.002s-40 100 -40 160c0 26 2.33301 51 7 75c12.667 71.333 40 135.166 82 191.499s94.333 100.5 157 132.5s130 48 202 48c48.667 0 94 -9 136 -27s76.5 -42.833 103.5 -74.5s43.5 -66.834 49.5 -105.501l-87 -21
c-4 28.667 -15.667 54.167 -35 76.5s-44 39.833 -74 52.5s-62.333 19 -97 19c-56.667 0 -109.667 -13 -159 -39s-90.666 -62 -123.999 -108s-55 -98 -65 -156c-3.33301 -17.333 -5 -37.333 -5 -60c0 -45.333 9.66699 -85.5 29 -120.5s47 -62.333 83 -82s78 -29.5 126 -29.5
c50.667 0 99 11.167 145 33.5s85 52.833 117 91.5s53 81.667 63 129l-351 -2l15 81l441 -3c-8.66699 -79.333 -33 -150 -73 -212s-91.5 -110.5 -154.5 -145.5s-131.833 -52.5 -206.5 -52.5c-65.333 0 -122.5 13 -171.5 39zM302.999 -257.998l54 73.999
c-13.333 0.666992 -24.333 5.5 -33 14.5s-13 19.833 -13 32.5c0 16.667 5.66699 30.667 17 42s25.333 17 42 17c14.667 0 26.667 -4.5 36 -13.5s14 -20.167 14 -33.5c0 -6 -0.333008 -10.333 -1 -13c-2.66699 -15.333 -8 -28.666 -16 -39.999l-65 -90z" />
    <glyph glyph-name="gcommaaccent" unicode="&#x123;" horiz-adv-x="666" 
d="M452 763l-54.999 -74c14 -1.33301 25.333 -6.33301 34 -15s13 -19.667 13 -33c0 -16 -5.83301 -29.5 -17.5 -40.5s-25.834 -16.5 -42.501 -16.5c-15.333 0 -27.5 4.33301 -36.5 13s-13.5 20 -13.5 34c0 5.33301 0.333008 9.33301 1 12c2.66699 14 8 27.333 16 40l66 90z
M77.001 -204c-41.333 30.667 -65.6689 72.332 -73.002 124.999l85 25c6.66699 -39.333 23.334 -69.333 50.001 -90s61.667 -31 105 -31c56.667 0 105 17 145 51s65.333 79.333 76 136l11 65l-9 -2c-56.667 -58.667 -122 -88 -196 -88c-44.667 0 -84 9.16699 -118 27.5
s-60.167 43.833 -78.5 76.5s-27.5 70.334 -27.5 113.001c0 14.667 1.66699 32.667 5 54c8.66699 50.667 27.667 96.167 57 136.5s65.333 72 108 95s88.667 34.5 138 34.5c78.667 0 136.334 -31 173.001 -93l12 2l13 72h82l-88 -499
c-9.33301 -52 -28.166 -97.167 -56.499 -135.5s-64.333 -68 -108 -89s-91.834 -31.5 -144.501 -31.5c-66 0 -119.667 15.333 -161 46zM385.998 85.498c32.667 17 60 40.667 82 71s36 64.166 42 101.499c2.66699 12.667 4 26.334 4 41.001
c0 45.333 -13.833 81.833 -41.5 109.5s-64.5 41.5 -110.5 41.5c-36.667 0 -71.334 -8.66699 -104.001 -26s-60 -41.5 -82 -72.5s-36.333 -65.833 -43 -104.5c-2.66699 -17.333 -4 -30 -4 -38c0 -44 14 -79.833 42 -107.5s65 -41.5 111 -41.5
c36.667 0 71.334 8.5 104.001 25.5z" />
    <glyph glyph-name="Itilde" unicode="&#x128;" horiz-adv-x="281" 
d="M257.5 807c-11.667 6 -23.834 14.667 -36.501 26c-8 7.33301 -15.167 12.833 -21.5 16.5s-13.5 5.5 -21.5 5.5c-13.333 0 -26.5 -4.5 -39.5 -13.5s-24.5 -20.5 -34.5 -34.5l-40 37c12.667 20.667 29.334 36.834 50.001 48.501s42.667 17.5 66 17.5
c18 0 32.5 -2.83301 43.5 -8.5s23.5 -13.834 37.5 -24.501c8.66699 -8 16.5 -14 23.5 -18s15.167 -6 24.5 -6c14 0 27.833 4.5 41.5 13.5s25.167 20.833 34.5 35.5l41 -37c-14 -20.667 -31.5 -37 -52.5 -49s-43.833 -18 -68.5 -18c-20 0 -35.833 3 -47.5 9zM175 705h91
l-124 -705h-91z" />
    <glyph glyph-name="itilde" unicode="&#x129;" horiz-adv-x="235" 
d="M202.5 601.5c-11.667 5.66699 -24.168 14.167 -37.501 25.5c-9.33301 8 -17.166 13.833 -23.499 17.5s-13.833 5.5 -22.5 5.5c-13.333 0 -26.166 -3.5 -38.499 -10.5s-22.5 -16.167 -30.5 -27.5l-41 37c12.667 20.667 29.667 36.834 51 48.501s43.666 17.5 66.999 17.5
c17.333 0 31.333 -2.83301 42 -8.5s23 -13.834 37 -24.501c10.667 -8.66699 19.5 -15 26.5 -19s15.167 -6 24.5 -6c14 0 27.667 4 41 12s23.666 17.667 30.999 29l41 -38c-13.333 -20.667 -30.666 -37 -51.999 -49s-44.333 -18 -69 -18c-19.333 0 -34.833 2.83301 -46.5 8.5
zM120.999 505h83l-89 -505h-83z" />
    <glyph glyph-name="Imacron" unicode="&#x12a;" horiz-adv-x="281" 
d="M95 868h310l-13 -66h-310zM175 705h91l-124 -705h-91z" />
    <glyph glyph-name="imacron" unicode="&#x12b;" horiz-adv-x="235" 
d="M37 668h310l-12 -66h-310zM121 505h83l-89 -505h-83z" />
    <glyph glyph-name="Iogonek" unicode="&#x12e;" horiz-adv-x="281" 
d="M142 0h-18l1 -1c-40.667 -16.667 -73.167 -35 -97.5 -55s-38.166 -40.333 -41.499 -61c-0.666992 -2 -1 -5 -1 -9c0 -17.333 11 -26 33 -26c17.333 0 39 7.33301 65 22l-4 -51c-25.333 -12.667 -50 -19 -74 -19c-20.667 0 -37.334 6 -50.001 18s-19 27.667 -19 47
c0 24.667 9.66699 49 29 73s48.333 46.333 87 67l123 700h91z" />
    <glyph glyph-name="iogonek" unicode="&#x12f;" horiz-adv-x="253" 
d="M244 704c10 -10 15.001 -22.667 15.001 -38c0 -18.667 -6.33301 -34.167 -19 -46.5s-28 -18.5 -46 -18.5c-16.667 0 -30 4.83301 -40 14.5s-15 22.5 -15 38.5c0 19.333 6.16699 35 18.5 47s28.166 18 47.499 18c16 0 29 -5 39 -15zM130.001 505h82.999l-90 -505h-8l1 -1
c-44 -17.333 -78.333 -37 -103 -59s-37 -43.667 -37 -65c0 -18 11 -27 33 -27c17.333 0 39 7.33301 65 22l-4 -51c-11.333 -6 -23.666 -10.667 -36.999 -14s-25.666 -5 -36.999 -5c-20.667 0 -37.334 6 -50.001 18s-19 27.667 -19 47c0 24 9.5 47.833 28.5 71.5
s47.5 46.167 85.5 67.5z" />
    <glyph glyph-name="Idotaccent" unicode="&#x130;" horiz-adv-x="281" 
d="M201.5 804c-9.66699 9.33301 -14.499 21.666 -14.499 36.999c0 20 6.16699 36.167 18.5 48.5s27.5 18.5 45.5 18.5c16.667 0 30 -4.66699 40 -14s15 -21.666 15 -36.999c0 -19.333 -6.33301 -35.333 -19 -48s-28 -19 -46 -19c-16.667 0 -29.834 4.66699 -39.501 14z
M175.001 705h91l-124 -705h-91z" />
    <glyph glyph-name="dotlessi" unicode="&#x131;" horiz-adv-x="235" 
d="M121 505h83l-89 -505h-83z" />
    <glyph glyph-name="IJ" unicode="&#x132;" horiz-adv-x="716" 
d="M175 705h91l-124 -705h-91zM304.5 -14c-23 4 -44.167 9 -63.5 15l8 76c17.333 -4.66699 35.833 -8.66699 55.5 -12s35.834 -5 48.501 -5c43.333 0 81.166 14.167 113.499 42.5s52.5 65.833 60.5 112.5l87 490h91l-87 -496c-8 -45.333 -24 -85.333 -48 -120
s-53.5 -61.5 -88.5 -80.5s-72.833 -28.5 -113.5 -28.5c-19.333 0 -40.5 2 -63.5 6z" />
    <glyph glyph-name="ij" unicode="&#x133;" horiz-adv-x="517" 
d="M154 615.5c-10 9.66699 -14.999 22.5 -14.999 38.5c0 19.333 6.16699 35 18.5 47s28.166 18 47.499 18c16 0 29 -5 39 -15s15 -22.667 15 -38c0 -18.667 -6.33301 -34.167 -19 -46.5s-28 -18.5 -46 -18.5c-16.667 0 -30 4.83301 -40 14.5zM409.001 615.5
c-10 9.66699 -15.001 22.167 -15.001 37.5c0 19.333 6.16699 35.166 18.5 47.499s27.833 18.5 46.5 18.5c16.667 0 29.834 -4.66699 39.501 -14s14.5 -21.666 14.5 -36.999c0 -19.333 -6.16699 -35.333 -18.5 -48s-27.5 -19 -45.5 -19c-16.667 0 -30 4.83301 -40 14.5z
M130 505h83l-90 -505h-83zM120 -211l7 69.001c16 -5.33301 36.667 -8 62 -8c24 0 44.833 7.83301 62.5 23.5s28.5 35.5 32.5 59.5l102 572h83l-103 -577c-7.33301 -44.667 -26 -81.334 -56 -110.001s-64 -43 -102 -43c-34 0 -63.333 4.66699 -88 14z" />
    <glyph glyph-name="Kcommaaccent" unicode="&#x136;" horiz-adv-x="633" 
d="M175 705h91l-54 -308h9l346 308h116l-390 -341l273 -364h-113l-242 331h-11l-58 -331h-92zM219 -258l55 73.999c-13.333 0.666992 -24.333 5.5 -33 14.5s-13 19.833 -13 32.5c0 4.66699 0.333008 8 1 10c2 14.667 8.33301 26.5 19 35.5s23.667 13.5 39 13.5
c14.667 0 26.667 -4.5 36 -13.5s14 -20.167 14 -33.5c0 -6 -0.333008 -10.333 -1 -13c-2.66699 -13.333 -8 -26.666 -16 -39.999l-66 -90z" />
    <glyph glyph-name="kcommaaccent" unicode="&#x137;" horiz-adv-x="503" 
d="M162 735h83l-78 -446h9l254 216h112l-293 -242l207 -263h-109l-179 235h-10l-42 -235h-83zM145 -258l54 73.999c-13.333 0.666992 -24.333 5.5 -33 14.5s-13 20.167 -13 33.5c0 16.667 5.83301 30.5 17.5 41.5s25.5 16.5 41.5 16.5s28.5 -4.5 37.5 -13.5
s13.5 -20.5 13.5 -34.5c0 -5.33301 -0.333008 -9.33301 -1 -12c-2.66699 -13.333 -8 -26.666 -16 -39.999l-66 -90z" />
    <glyph glyph-name="Lacute" unicode="&#x139;" horiz-adv-x="572" 
d="M313 901h105l-129 -113h-100zM175 705h91l-109 -625h355l-15 -80h-446z" />
    <glyph glyph-name="lacute" unicode="&#x13a;" horiz-adv-x="236" 
d="M290 901h105l-129 -113h-101zM162 735h83l-130 -735h-83z" />
    <glyph glyph-name="Lcommaaccent" unicode="&#x13b;" horiz-adv-x="572" 
d="M175 705h91l-109 -625h355l-15 -80h-446zM207 -258l54 73.999c-13.333 0.666992 -24.333 5.5 -33 14.5s-13 20.167 -13 33.5c0 16.667 5.83301 30.5 17.5 41.5s25.5 16.5 41.5 16.5s28.5 -4.5 37.5 -13.5s13.5 -20.5 13.5 -34.5c0 -5.33301 -0.333008 -9.33301 -1 -12
c-2.66699 -13.333 -8 -26.666 -16 -39.999l-66 -90z" />
    <glyph glyph-name="lcommaaccent" unicode="&#x13c;" horiz-adv-x="236" 
d="M162 735h83l-130 -735h-83zM-13 -258l55 73.999c-13.333 0.666992 -24.333 5.5 -33 14.5s-13 19.833 -13 32.5c0 16.667 5.66699 30.667 17 42s25.333 17 42 17c14.667 0 26.667 -4.5 36 -13.5s14 -20.167 14 -33.5c0 -6 -0.333008 -10.333 -1 -13
c-2.66699 -15.333 -8 -28.666 -16 -39.999l-66 -90z" />
    <glyph glyph-name="Lcaron" unicode="&#x13d;" horiz-adv-x="572" 
d="M358 536l54.999 74c-14 1.33301 -25.333 6.33301 -34 15s-13 19.667 -13 33c0 16 5.83301 29.5 17.5 40.5s25.834 16.5 42.501 16.5c14.667 0 26.667 -4.33301 36 -13s14 -19.667 14 -33c0 -6 -0.333008 -10.333 -1 -13c-2.66699 -14 -8 -27.333 -16 -40l-66 -90z
M174.999 705h91l-109 -625h355l-15 -80h-446z" />
    <glyph glyph-name="lcaron" unicode="&#x13e;" horiz-adv-x="236" 
d="M301 566l54 74.001c-14 1.33301 -25.333 6.33301 -34 15s-13 19.667 -13 33c0 16 5.83301 29.5 17.5 40.5s25.834 16.5 42.501 16.5c15.333 0 27.666 -4.5 36.999 -13.5s14 -20.5 14 -34.5c0 -4.66699 -0.333008 -8.33398 -1 -11.001c-2.66699 -14 -8 -27.333 -16 -40
l-67 -90zM162 735.001h83l-130 -735h-83z" />
    <glyph glyph-name="Lslash" unicode="&#x141;" horiz-adv-x="616" 
d="M201 80h355l-14 -80h-446l43 246l-121 -66l13 79l122 67l67 379h91l-57 -324l305 167l-13 -79l-306 -167z" />
    <glyph glyph-name="lslash" unicode="&#x142;" horiz-adv-x="407" 
d="M437 470l-175 -101l-65 -369h-83l56 316l-165 -95l13 79l166 96l60 339h83l-51 -286l174 100z" />
    <glyph glyph-name="Nacute" unicode="&#x143;" horiz-adv-x="755" 
d="M569 901h105l-129 -113h-100zM175 705h130l230 -585h11l103 585h91l-125 -705h-129l-230 585h-11l-103 -585h-92z" />
    <glyph glyph-name="nacute" unicode="&#x144;" 
d="M332 593l133 142h95l-139 -142h-89zM122 505l83.001 0.000976562l-12 -69l9 3c22 28 47.667 49.167 77 63.5s60 21.5 92 21.5c56 0 100 -16.333 132 -49s48 -75.334 48 -128.001c0 -16.667 -1.33301 -32.667 -4 -48l-53 -299h-83l54 304c2 12 3 23.667 3 35
c0 34 -9.5 60.833 -28.5 80.5s-46.167 29.5 -81.5 29.5c-28.667 0 -56.834 -7 -84.501 -21s-51 -33 -70 -57s-30.833 -50.333 -35.5 -79l-52 -292h-83z" />
    <glyph glyph-name="Ncommaaccent" unicode="&#x145;" horiz-adv-x="755" 
d="M175 705h130l230 -585h11l103 585h91l-125 -705h-129l-230 585h-11l-103 -585h-92zM267 -258l53.999 74c-13.333 0.666992 -24.333 5.5 -33 14.5s-13 19.833 -13 32.5c0 16.667 5.83301 30.667 17.5 42s25.5 17 41.5 17c14.667 0 26.667 -4.5 36 -13.5
s14 -20.167 14 -33.5c0 -6 -0.333008 -10.333 -1 -13c-1.33301 -12.667 -6.66602 -26 -15.999 -40l-65 -90z" />
    <glyph glyph-name="ncommaaccent" unicode="&#x146;" 
d="M122 505l83.001 0.000976562l-12 -69l9 3c22 28 47.667 49.167 77 63.5s60 21.5 92 21.5c56 0 100 -16.333 132 -49s48 -75.334 48 -128.001c0 -16.667 -1.33301 -32.667 -4 -48l-53 -299h-83l54 304c2 12 3 23.667 3 35c0 34 -9.5 60.833 -28.5 80.5
s-46.167 29.5 -81.5 29.5c-28.667 0 -56.834 -7 -84.501 -21s-51 -33 -70 -57s-30.833 -50.333 -35.5 -79l-52 -292h-83zM179.001 -257.999l55 73.999c-13.333 0.666992 -24.333 5.5 -33 14.5s-13 19.833 -13 32.5c0 4.66699 0.333008 8 1 10c2 14.667 8.33301 26.5 19 35.5
s23.667 13.5 39 13.5c14.667 0 26.667 -4.5 36 -13.5s14 -20.167 14 -33.5c0 -6 -0.333008 -10.333 -1 -13c-2.66699 -15.333 -8 -28.666 -16 -39.999l-66 -90z" />
    <glyph glyph-name="Ncaron" unicode="&#x147;" horiz-adv-x="755" 
d="M349 901h83l63 -62h11l85 62h87l-136 -113h-98zM175 705h130l230 -585h11l103 585h91l-125 -705h-129l-230 585h-11l-103 -585h-92z" />
    <glyph glyph-name="ncaron" unicode="&#x148;" 
d="M323 735l61 -85h9l90 85h83l-140 -142h-93l-89 142h79zM122 505l83.001 0.000976562l-12 -69l9 3c22 28 47.667 49.167 77 63.5s60 21.5 92 21.5c56 0 100 -16.333 132 -49s48 -75.334 48 -128.001c0 -16.667 -1.33301 -32.667 -4 -48l-53 -299h-83l54 304
c2 12 3 23.667 3 35c0 34 -9.5 60.833 -28.5 80.5s-46.167 29.5 -81.5 29.5c-28.667 0 -56.834 -7 -84.501 -21s-51 -33 -70 -57s-30.833 -50.333 -35.5 -79l-52 -292h-83z" />
    <glyph glyph-name="Omacron" unicode="&#x14c;" horiz-adv-x="864" 
d="M386 868h310l-13 -66h-310zM216.5 13c-49 25.333 -86.834 61.167 -113.501 107.5s-40 99.833 -40 160.5c0 26 2.33301 51.667 7 77c12.667 72 39.834 136.167 81.501 192.5s93.834 100.333 156.501 132s130.334 47.5 203.001 47.5
c65.333 0 122.666 -12.833 171.999 -38.5s87.333 -61.667 114 -108s40 -99.833 40 -160.5c0 -26.667 -2.33301 -52 -7 -76c-12.667 -72 -40 -136.167 -82 -192.5s-94.333 -100.333 -157 -132s-130.334 -47.5 -203.001 -47.5c-65.333 0 -122.5 12.667 -171.5 38z
M550.499 94.001c49.667 26 91.167 62 124.5 108s55 98 65 156c3.33301 17.333 5 37.333 5 60c0 46 -9.66699 86.5 -29 121.5s-46.833 62.167 -82.5 81.5s-77.834 29 -126.501 29c-56.667 0 -109.667 -13 -159 -39s-90.666 -62 -123.999 -108s-55 -98 -65 -156
c-3.33301 -17.333 -5 -37.333 -5 -60c0 -46 9.66699 -86.5 29 -121.5s47 -62.167 83 -81.5s78 -29 126 -29c56 0 108.833 13 158.5 39z" />
    <glyph glyph-name="omacron" unicode="&#x14d;" horiz-adv-x="642" 
d="M240 668h310l-13 -66h-310zM155 8c-34.667 18.667 -61.499 44.668 -80.499 78.001s-28.5 71.666 -28.5 114.999c0 21.333 1.66699 40.333 5 57c9.33301 52 28.833 98.167 58.5 138.5s66.5 71.833 110.5 94.5s92 34 144 34c46.667 0 87.5 -9.33301 122.5 -28
s62 -44.834 81 -78.501s28.5 -72.5 28.5 -116.5c0 -15.333 -1.66699 -33.666 -5 -54.999c-9.33301 -52 -28.833 -98.167 -58.5 -138.5s-66.667 -71.833 -111 -94.5s-92.5 -34 -144.5 -34c-46.667 0 -87.334 9.33301 -122.001 28zM384.001 81.501
c32.667 17.667 60 41.832 82 72.499s36.333 65.334 43 104.001c2.66699 12.667 4 26.334 4 41.001c0 45.333 -13.833 81.833 -41.5 109.5s-64.5 41.5 -110.5 41.5c-36.667 0 -71.334 -8.66699 -104.001 -26s-60 -41.5 -82 -72.5s-36.333 -65.833 -43 -104.5
c-2.66699 -12.667 -4 -26.334 -4 -41.001c0 -45.333 13.833 -81.833 41.5 -109.5s64.5 -41.5 110.5 -41.5c36.667 0 71.334 8.83301 104.001 26.5z" />
    <glyph glyph-name="Obreve" unicode="&#x14e;" horiz-adv-x="864" 
d="M432.5 808c-25 20 -37.4971 45.333 -37.4971 76c0 4 0.666992 10.667 2 20l81 -5c-0.666992 -3.33301 -1 -8 -1 -14c0 -28.667 17.667 -43 53 -43c22.667 0 41.667 5.66699 57 17s24.666 26.333 27.999 45l81 -5c-6.66699 -36 -25.334 -65.167 -56.001 -87.5
s-67.334 -33.5 -110.001 -33.5c-40 0 -72.5 10 -97.5 30zM216.503 13c-49 25.333 -86.834 61.167 -113.501 107.5s-40 99.833 -40 160.5c0 26 2.33301 51.667 7 77c12.667 72 39.834 136.167 81.501 192.5s93.834 100.333 156.501 132s130.334 47.5 203.001 47.5
c65.333 0 122.666 -12.833 171.999 -38.5s87.333 -61.667 114 -108s40 -99.833 40 -160.5c0 -26.667 -2.33301 -52 -7 -76c-12.667 -72 -40 -136.167 -82 -192.5s-94.333 -100.333 -157 -132s-130.334 -47.5 -203.001 -47.5c-65.333 0 -122.5 12.667 -171.5 38z
M550.502 94.001c49.667 26 91.167 62 124.5 108s55 98 65 156c3.33301 17.333 5 37.333 5 60c0 46 -9.66699 86.5 -29 121.5s-46.833 62.167 -82.5 81.5s-77.834 29 -126.501 29c-56.667 0 -109.667 -13 -159 -39s-90.666 -62 -123.999 -108s-55 -98 -65 -156
c-3.33301 -17.333 -5 -37.333 -5 -60c0 -46 9.66699 -86.5 29 -121.5s47 -62.167 83 -81.5s78 -29 126 -29c56 0 108.833 13 158.5 39z" />
    <glyph glyph-name="obreve" unicode="&#x14f;" horiz-adv-x="642" 
d="M303 632c-21.333 20.667 -32.002 47.334 -32.002 80.001c0 11.333 0.666992 20 2 26l69 -5c-1.33301 -9.33301 -2 -16 -2 -20c0 -16 4 -28.5 12 -37.5s20 -13.5 36 -13.5c20.667 0 38.5 7.16699 53.5 21.5s24.833 32.5 29.5 54.5l68 -5
c-6.66699 -38.667 -24.167 -70.334 -52.5 -95.001s-61.166 -37 -98.499 -37c-35.333 0 -63.666 10.333 -84.999 31zM154.998 8c-34.667 18.667 -61.499 44.668 -80.499 78.001s-28.5 71.666 -28.5 114.999c0 21.333 1.66699 40.333 5 57
c9.33301 52 28.833 98.167 58.5 138.5s66.5 71.833 110.5 94.5s92 34 144 34c46.667 0 87.5 -9.33301 122.5 -28s62 -44.834 81 -78.501s28.5 -72.5 28.5 -116.5c0 -15.333 -1.66699 -33.666 -5 -54.999c-9.33301 -52 -28.833 -98.167 -58.5 -138.5
s-66.667 -71.833 -111 -94.5s-92.5 -34 -144.5 -34c-46.667 0 -87.334 9.33301 -122.001 28zM383.999 81.501c32.667 17.667 60 41.832 82 72.499s36.333 65.334 43 104.001c2.66699 12.667 4 26.334 4 41.001c0 45.333 -13.833 81.833 -41.5 109.5s-64.5 41.5 -110.5 41.5
c-36.667 0 -71.334 -8.66699 -104.001 -26s-60 -41.5 -82 -72.5s-36.333 -65.833 -43 -104.5c-2.66699 -12.667 -4 -26.334 -4 -41.001c0 -45.333 13.833 -81.833 41.5 -109.5s64.5 -41.5 110.5 -41.5c36.667 0 71.334 8.83301 104.001 26.5z" />
    <glyph glyph-name="Ohungarumlaut" unicode="&#x150;" horiz-adv-x="864" 
d="M511 902h102l-127 -113h-88zM673 902h101l-132 -113h-88zM216.5 13c-49 25.333 -86.834 61.167 -113.501 107.5s-40 99.833 -40 160.5c0 26 2.33301 51.667 7 77c12.667 72 39.834 136.167 81.501 192.5s93.834 100.333 156.501 132s130.334 47.5 203.001 47.5
c65.333 0 122.666 -12.833 171.999 -38.5s87.333 -61.667 114 -108s40 -99.833 40 -160.5c0 -26.667 -2.33301 -52 -7 -76c-12.667 -72 -40 -136.167 -82 -192.5s-94.333 -100.333 -157 -132s-130.334 -47.5 -203.001 -47.5c-65.333 0 -122.5 12.667 -171.5 38z
M550.499 94.001c49.667 26 91.167 62 124.5 108s55 98 65 156c3.33301 17.333 5 37.333 5 60c0 46 -9.66699 86.5 -29 121.5s-46.833 62.167 -82.5 81.5s-77.834 29 -126.501 29c-56.667 0 -109.667 -13 -159 -39s-90.666 -62 -123.999 -108s-55 -98 -65 -156
c-3.33301 -17.333 -5 -37.333 -5 -60c0 -46 9.66699 -86.5 29 -121.5s47 -62.167 83 -81.5s78 -29 126 -29c56 0 108.833 13 158.5 39z" />
    <glyph glyph-name="ohungarumlaut" unicode="&#x151;" horiz-adv-x="642" 
d="M387 730h92l-138 -137h-79zM422 593l132 137h90l-142 -137h-80zM155 8c-34.667 18.667 -61.499 44.668 -80.499 78.001s-28.5 71.666 -28.5 114.999c0 21.333 1.66699 40.333 5 57c9.33301 52 28.833 98.167 58.5 138.5s66.5 71.833 110.5 94.5s92 34 144 34
c46.667 0 87.5 -9.33301 122.5 -28s62 -44.834 81 -78.501s28.5 -72.5 28.5 -116.5c0 -15.333 -1.66699 -33.666 -5 -54.999c-9.33301 -52 -28.833 -98.167 -58.5 -138.5s-66.667 -71.833 -111 -94.5s-92.5 -34 -144.5 -34c-46.667 0 -87.334 9.33301 -122.001 28z
M384.001 81.501c32.667 17.667 60 41.832 82 72.499s36.333 65.334 43 104.001c2.66699 12.667 4 26.334 4 41.001c0 45.333 -13.833 81.833 -41.5 109.5s-64.5 41.5 -110.5 41.5c-36.667 0 -71.334 -8.66699 -104.001 -26s-60 -41.5 -82 -72.5s-36.333 -65.833 -43 -104.5
c-2.66699 -12.667 -4 -26.334 -4 -41.001c0 -45.333 13.833 -81.833 41.5 -109.5s64.5 -41.5 110.5 -41.5c36.667 0 71.334 8.83301 104.001 26.5z" />
    <glyph glyph-name="OE" unicode="&#x152;" horiz-adv-x="1045" 
d="M213.5 21c-47.667 24.667 -84.502 59.6699 -110.502 105.003s-39 97.666 -39 156.999c0 26 2.33301 51 7 75c12.667 70.667 39.334 133.667 80.001 189s91.334 98.166 152.001 128.499s126 45.5 196 45.5c46.667 0 88 -5.66699 124 -17l450 1l-14 -80h-360l-40 -229h319
l-14 -76h-319l-42 -240h370l-15 -80l-454 -1c-17.333 -4.66699 -37.333 -8.33398 -60 -11.001s-44 -4 -64 -4c-63.333 0 -118.833 12.333 -166.5 37zM451.498 70.0029c23.667 3.33301 42.8311 7.66602 57.498 12.999l101 540c-11.333 5.33301 -27.166 9.5 -47.499 12.5
s-40.833 4.5 -61.5 4.5c-55.333 0 -107.166 -12.333 -155.499 -37s-88.833 -59.167 -121.5 -103.5s-54 -95.166 -64 -152.499c-4 -20.667 -6 -40.667 -6 -60c0 -44 9.33301 -82.833 28 -116.5s45 -59.667 79 -78s73.667 -27.5 119 -27.5c24 0 47.833 1.66699 71.5 5z" />
    <glyph glyph-name="oe" unicode="&#x153;" horiz-adv-x="1094" 
d="M941 497.5c34.667 -18.333 61.3311 -43.998 79.998 -76.998s28 -71.167 28 -114.5c0 -14.667 -1.66699 -32.667 -5 -54l-6 -30h-447c-3.33301 -50.667 9 -91.167 37 -121.5s67 -45.5 117 -45.5c38.667 0 75.334 9.16699 110.001 27.5s62.667 42.833 84 73.5l64 -40
c-27.333 -43.333 -64.166 -76.833 -110.499 -100.5s-97.166 -35.5 -152.499 -35.5c-49.333 0 -92.333 10.833 -129 32.5s-64 51.834 -82 90.501c-29.333 -38.667 -65.833 -68.834 -109.5 -90.501s-90.834 -32.5 -141.501 -32.5c-46.667 0 -87.5 9.16699 -122.5 27.5
s-61.833 44.166 -80.5 77.499s-28 72 -28 116c0 21.333 1.66699 40.333 5 57c8.66699 52 27.834 98.167 57.501 138.5s66.667 71.833 111 94.5s92.166 34 143.499 34c50 0 93.167 -10.5 129.5 -31.5s63.5 -50.5 81.5 -88.5c28.667 37.333 64.667 66.666 108 87.999
s89.333 32 138 32c45.333 0 85.333 -9.16699 120 -27.5zM384.497 81.502c32.333 17.667 59.668 41.833 82.001 72.5s36.833 65.334 43.5 104.001c2.66699 18.667 4 32 4 40c0 46 -13.833 82.833 -41.5 110.5s-64.834 41.5 -111.501 41.5
c-36.667 0 -71.334 -8.66699 -104.001 -26s-60 -41.5 -82 -72.5s-36.333 -65.833 -43 -104.5c-2.66699 -12.667 -4 -26.334 -4 -41.001c0 -45.333 13.833 -81.833 41.5 -109.5s64.834 -41.5 111.501 -41.5c36.667 0 71.167 8.83301 103.5 26.5zM925.499 409.501
c-27 27 -63.833 40.5 -110.5 40.5c-47.333 0 -90.333 -14.333 -129 -43s-65.667 -66 -81 -112l360 6c0.666992 45.333 -12.5 81.5 -39.5 108.5z" />
    <glyph glyph-name="Racute" unicode="&#x154;" horiz-adv-x="709" 
d="M539 901h105l-130 -113h-100zM175 705l305 0.000976562c68 0 121.833 -16.167 161.5 -48.5s59.5 -75.833 59.5 -130.5c0 -8.66699 -1.33301 -22.334 -4 -41.001c-6.66699 -38.667 -22.167 -73 -46.5 -103s-54.833 -53.833 -91.5 -71.5s-76.667 -27.5 -120 -29.5h-16
l206 -281h-112l-196 276h-131l-48 -276h-91zM418 356.001c50.667 0 93.333 12.667 128 38s55.667 59.333 63 102c1.33301 6 2 14.333 2 25c0 32.667 -12.167 58.167 -36.5 76.5s-58.833 27.5 -103.5 27.5h-219l-47 -269h213z" />
    <glyph glyph-name="racute" unicode="&#x155;" horiz-adv-x="394" 
d="M233 593l133 142h96l-140 -142h-89zM122 505h81.001l-13 -68l9 2c15.333 22.667 36.5 41 63.5 55s54.167 21 81.5 21c12 0 23.667 -1.5 35 -4.5s20 -6.5 26 -10.5l-8 -74c-21.333 9.33301 -44.333 14 -69 14c-39.333 0 -74.333 -16 -105 -48s-50.334 -73 -59.001 -123
l-48 -269h-83z" />
    <glyph glyph-name="Rcommaaccent" unicode="&#x156;" horiz-adv-x="709" 
d="M175 705l305 0.000976562c68 0 121.833 -16.167 161.5 -48.5s59.5 -75.833 59.5 -130.5c0 -8.66699 -1.33301 -22.334 -4 -41.001c-6.66699 -38.667 -22.167 -73 -46.5 -103s-54.833 -53.833 -91.5 -71.5s-76.667 -27.5 -120 -29.5h-16l206 -281h-112l-196 276h-131
l-48 -276h-91zM418 356.001c50.667 0 93.333 12.667 128 38s55.667 59.333 63 102c1.33301 6 2 14.333 2 25c0 32.667 -12.167 58.167 -36.5 76.5s-58.833 27.5 -103.5 27.5h-219l-47 -269h213zM263.999 -257.999l54 73.999c-13.333 0.666992 -24.333 5.5 -33 14.5
s-13 19.833 -13 32.5c0 16.667 5.66699 30.667 17 42s25.333 17 42 17c14.667 0 26.667 -4.5 36 -13.5s14 -20.167 14 -33.5c0 -6 -0.333008 -10.333 -1 -13c-2.66699 -15.333 -8 -28.666 -16 -39.999l-66 -90z" />
    <glyph glyph-name="rcommaaccent" unicode="&#x157;" horiz-adv-x="394" 
d="M122 505h81.001l-13 -68l9 2c15.333 22.667 36.5 41 63.5 55s54.167 21 81.5 21c12 0 23.667 -1.5 35 -4.5s20 -6.5 26 -10.5l-8 -74c-21.333 9.33301 -44.333 14 -69 14c-39.333 0 -74.333 -16 -105 -48s-50.334 -73 -59.001 -123l-48 -269h-83zM-7.99902 -258
l54 73.999c-13.333 0.666992 -24.333 5.5 -33 14.5s-13 20.167 -13 33.5c0 16.667 5.83301 30.5 17.5 41.5s25.5 16.5 41.5 16.5s28.5 -4.5 37.5 -13.5s13.5 -20.5 13.5 -34.5c0 -5.33301 -0.333008 -9.33301 -1 -12c-2.66699 -13.333 -8 -26.666 -16 -39.999l-66 -90z" />
    <glyph glyph-name="Rcaron" unicode="&#x158;" horiz-adv-x="709" 
d="M318 901h83l63 -62h11l85 62h87l-136 -113h-97zM175 705l305 0.000976562c68 0 121.833 -16.167 161.5 -48.5s59.5 -75.833 59.5 -130.5c0 -8.66699 -1.33301 -22.334 -4 -41.001c-6.66699 -38.667 -22.167 -73 -46.5 -103s-54.833 -53.833 -91.5 -71.5
s-76.667 -27.5 -120 -29.5h-16l206 -281h-112l-196 276h-131l-48 -276h-91zM418 356.001c50.667 0 93.333 12.667 128 38s55.667 59.333 63 102c1.33301 6 2 14.333 2 25c0 32.667 -12.167 58.167 -36.5 76.5s-58.833 27.5 -103.5 27.5h-219l-47 -269h213z" />
    <glyph glyph-name="rcaron" unicode="&#x159;" horiz-adv-x="394" 
d="M224 735l61 -85h9l90 85h83l-140 -142h-93l-88 142h78zM122 505h81.001l-13 -68l9 2c15.333 22.667 36.5 41 63.5 55s54.167 21 81.5 21c12 0 23.667 -1.5 35 -4.5s20 -6.5 26 -10.5l-8 -74c-21.333 9.33301 -44.333 14 -69 14c-39.333 0 -74.333 -16 -105 -48
s-50.334 -73 -59.001 -123l-48 -269h-83z" />
    <glyph glyph-name="Sacute" unicode="&#x15a;" horiz-adv-x="686" 
d="M515 901h105l-129 -113h-101zM118.5 31c-46.333 37.333 -69.4971 88.332 -69.4971 152.999c0 16.667 1.33301 32.667 4 48l90 -6c-2 -12.667 -3 -24.667 -3 -36c0 -43.333 15.167 -76.666 45.5 -99.999s74.166 -35 131.499 -35c58.667 0 106.5 12 143.5 36
s59.167 57 66.5 99c1.33301 10.667 2 17.667 2 21c0 23.333 -7.83301 41.666 -23.5 54.999s-34.834 23 -57.501 29s-55 12.667 -97 20c-72.667 10.667 -130.667 28.167 -174 52.5s-65 64.166 -65 119.499c0 7.33301 1.33301 20.333 4 39
c11.333 62.667 43.166 112.334 95.499 149.001s119.833 55 202.5 55c77.333 0 137.666 -17.167 180.999 -51.5s65 -81.5 65 -141.5c0 -14 -1.66699 -30.333 -5 -49l-88 5c2.66699 11.333 4 23.666 4 36.999c0 38.667 -13.833 68.334 -41.5 89.001s-67.167 31 -118.5 31
c-57.333 0 -104 -11.833 -140 -35.5s-57.667 -55.5 -65 -95.5c-1.33301 -9.33301 -2 -16 -2 -20c0 -22.667 7.66699 -40.5 23 -53.5s34.333 -22.5 57 -28.5s53.667 -12.333 93 -19c50 -8 91.833 -17.333 125.5 -28s62 -27.667 85 -51s34.5 -55 34.5 -95
c0 -7.33301 -1.33301 -20.333 -4 -39c-11.333 -65.333 -44 -116.666 -98 -153.999s-123 -56 -207 -56c-83.333 0 -148.166 18.667 -194.499 56z" />
    <glyph glyph-name="sacute" unicode="&#x15b;" horiz-adv-x="545" 
d="M281 593l132 142h96l-140 -142h-88zM90 21c-35.333 27.333 -53 65.3359 -53 114.003c0 8.66699 1.33301 21.667 4 39l79 -6c-1.33301 -9.33301 -2 -16.333 -2 -21c0 -30.667 11.167 -54.5 33.5 -71.5s54.166 -25.5 95.499 -25.5c39.333 0 72.333 8.16699 99 24.5
s42.334 38.5 47.001 66.5c0.666992 3.33301 1 7.66602 1 12.999c0 20 -8.66699 33.667 -26 41s-44.333 13.666 -81 18.999l-20 3c-54.667 5.33301 -99 17.166 -133 35.499s-51 48.833 -51 91.5c0 9.33301 1 19 3 29c8.66699 47.333 33.334 84.5 74.001 111.5
s91 40.5 151 40.5c57.333 0 103 -13 137 -39s51 -60.667 51 -104c0 -9.33301 -1 -19.666 -3 -30.999l-80 6c1.33301 8 2 14 2 18c0 25.333 -9.83301 45 -29.5 59s-46.834 21 -81.501 21c-38 0 -70.333 -8.33301 -97 -25s-42.334 -38.667 -47.001 -66
c-0.666992 -2.66699 -1 -7 -1 -13c0 -14.667 5.5 -25.667 16.5 -33s23 -12.333 36 -15s37.5 -6.33398 73.5 -11.001c55.333 -6 100 -18.333 134 -37s51 -50 51 -94c0 -8.66699 -1 -18.667 -3 -30c-8.66699 -48 -33 -85.167 -73 -111.5s-92 -39.5 -156 -39.5
c-65.333 0 -115.666 13.667 -150.999 41z" />
    <glyph glyph-name="Scircumflex" unicode="&#x15c;" horiz-adv-x="686" 
d="M506 901l97 -113h-83l-64 62h-10l-85 -62h-87l135 113h97zM118.5 31c-46.333 37.333 -69.4971 88.332 -69.4971 152.999c0 16.667 1.33301 32.667 4 48l90 -6c-2 -12.667 -3 -24.667 -3 -36c0 -43.333 15.167 -76.666 45.5 -99.999s74.166 -35 131.499 -35
c58.667 0 106.5 12 143.5 36s59.167 57 66.5 99c1.33301 10.667 2 17.667 2 21c0 23.333 -7.83301 41.666 -23.5 54.999s-34.834 23 -57.501 29s-55 12.667 -97 20c-72.667 10.667 -130.667 28.167 -174 52.5s-65 64.166 -65 119.499c0 7.33301 1.33301 20.333 4 39
c11.333 62.667 43.166 112.334 95.499 149.001s119.833 55 202.5 55c77.333 0 137.666 -17.167 180.999 -51.5s65 -81.5 65 -141.5c0 -14 -1.66699 -30.333 -5 -49l-88 5c2.66699 11.333 4 23.666 4 36.999c0 38.667 -13.833 68.334 -41.5 89.001s-67.167 31 -118.5 31
c-57.333 0 -104 -11.833 -140 -35.5s-57.667 -55.5 -65 -95.5c-1.33301 -9.33301 -2 -16 -2 -20c0 -22.667 7.66699 -40.5 23 -53.5s34.333 -22.5 57 -28.5s53.667 -12.333 93 -19c50 -8 91.833 -17.333 125.5 -28s62 -27.667 85 -51s34.5 -55 34.5 -95
c0 -7.33301 -1.33301 -20.333 -4 -39c-11.333 -65.333 -44 -116.666 -98 -153.999s-123 -56 -207 -56c-83.333 0 -148.166 18.667 -194.499 56z" />
    <glyph glyph-name="scircumflex" unicode="&#x15d;" horiz-adv-x="545" 
d="M308 735h93l89 -142h-79l-59 86h-10l-91 -86h-83zM90 21c-35.333 27.333 -53 65.3359 -53 114.003c0 8.66699 1.33301 21.667 4 39l79 -6c-1.33301 -9.33301 -2 -16.333 -2 -21c0 -30.667 11.167 -54.5 33.5 -71.5s54.166 -25.5 95.499 -25.5
c39.333 0 72.333 8.16699 99 24.5s42.334 38.5 47.001 66.5c0.666992 3.33301 1 7.66602 1 12.999c0 20 -8.66699 33.667 -26 41s-44.333 13.666 -81 18.999l-20 3c-54.667 5.33301 -99 17.166 -133 35.499s-51 48.833 -51 91.5c0 9.33301 1 19 3 29
c8.66699 47.333 33.334 84.5 74.001 111.5s91 40.5 151 40.5c57.333 0 103 -13 137 -39s51 -60.667 51 -104c0 -9.33301 -1 -19.666 -3 -30.999l-80 6c1.33301 8 2 14 2 18c0 25.333 -9.83301 45 -29.5 59s-46.834 21 -81.501 21c-38 0 -70.333 -8.33301 -97 -25
s-42.334 -38.667 -47.001 -66c-0.666992 -2.66699 -1 -7 -1 -13c0 -14.667 5.5 -25.667 16.5 -33s23 -12.333 36 -15s37.5 -6.33398 73.5 -11.001c55.333 -6 100 -18.333 134 -37s51 -50 51 -94c0 -8.66699 -1 -18.667 -3 -30c-8.66699 -48 -33 -85.167 -73 -111.5
s-92 -39.5 -156 -39.5c-65.333 0 -115.666 13.667 -150.999 41z" />
    <glyph glyph-name="Scedilla" unicode="&#x15e;" horiz-adv-x="686" 
d="M567 493c2.66699 11.333 4.00195 23.6641 4.00195 36.9971c0 38.667 -13.833 68.334 -41.5 89.001s-67.167 31 -118.5 31c-57.333 0 -104 -11.833 -140 -35.5s-57.667 -55.5 -65 -95.5c-1.33301 -9.33301 -2 -16 -2 -20c0 -22.667 7.66699 -40.5 23 -53.5
s34.333 -22.5 57 -28.5s53.667 -12.333 93 -19c50 -8 91.833 -17.333 125.5 -28s62 -27.667 85 -51s34.5 -55 34.5 -95c0 -7.33301 -1.33301 -20.333 -4 -39c-11.333 -63.333 -42.666 -113.666 -93.999 -150.999s-117.666 -57 -198.999 -59l-9 -24
c26.667 0 48.667 -7.66699 66 -23s26 -34.666 26 -57.999c0 -29.333 -11.167 -53.666 -33.5 -72.999s-50.166 -29 -83.499 -29c-28 0 -51.333 7.16699 -70 21.5s-28.334 32.166 -29.001 53.499l55 7c0 -12 3.83301 -21.5 11.5 -28.5s17.5 -10.5 29.5 -10.5
c18 0 33.5 5.83301 46.5 17.5s19.5 25.834 19.5 42.501c0 11.333 -4.83301 20.333 -14.5 27s-22.834 10 -39.501 10h-54l22 69c-69.333 6.66699 -123.166 28.167 -161.499 64.5s-57.5 83.5 -57.5 141.5c0 17.333 1.33301 33.666 4 48.999l90 -6
c-2 -12.667 -3 -24.667 -3 -36c0 -43.333 15.167 -76.666 45.5 -99.999s74.166 -35 131.499 -35c58.667 0 106.5 12 143.5 36s59.167 57 66.5 99c1.33301 10.667 2 17.667 2 21c0 23.333 -7.83301 41.666 -23.5 54.999s-34.834 23 -57.501 29s-55 12.667 -97 20
c-72.667 10.667 -130.667 28.167 -174 52.5s-65 64.166 -65 119.499c0 7.33301 1.33301 20.333 4 39c11.333 62.667 43.166 112.334 95.499 149.001s119.833 55 202.5 55c77.333 0 137.666 -17.167 180.999 -51.5s65 -81.5 65 -141.5c0 -14 -1.66699 -30.333 -5 -49z" />
    <glyph glyph-name="scedilla" unicode="&#x15f;" horiz-adv-x="545" 
d="M416 357c1.33301 8 2.00391 14.002 2.00391 18.002c0 25.333 -9.83301 45 -29.5 59s-46.834 21 -81.501 21c-38 0 -70.333 -8.33301 -97 -25s-42.334 -38.667 -47.001 -66c-0.666992 -2.66699 -1 -7 -1 -13c0 -14.667 5.5 -25.667 16.5 -33s23 -12.333 36 -15
s37.5 -6.33398 73.5 -11.001c55.333 -6 100 -18.333 134 -37s51 -50 51 -94c0 -8.66699 -1 -18.667 -3 -30c-8.66699 -48 -32.667 -85 -72 -111s-90.333 -39.333 -153 -40l-11 -29c26.667 0 48.5 -7.66699 65.5 -23s25.5 -34.666 25.5 -57.999
c0 -29.333 -11 -53.666 -33 -72.999s-49.667 -29 -83 -29c-28 0 -51.333 7.16699 -70 21.5s-28.334 32.166 -29.001 53.499l54 7c0 -12 3.83301 -21.5 11.5 -28.5s17.5 -10.5 29.5 -10.5c16 0 30.167 5 42.5 15s20.166 22.333 23.499 37
c2 13.333 -1.83301 24.166 -11.5 32.499s-23.834 12.5 -42.501 12.5h-54l24 76c-48 6.66699 -84.833 23.167 -110.5 49.5s-38.5 60.5 -38.5 102.5c0 12.667 1 25.334 3 38.001l79 -6c-1.33301 -9.33301 -2 -16.333 -2 -21c0 -30.667 11.167 -54.5 33.5 -71.5
s54.166 -25.5 95.499 -25.5c39.333 0 72.333 8.16699 99 24.5s42.334 38.5 47.001 66.5c0.666992 3.33301 1 7.66602 1 12.999c0 20 -8.66699 33.667 -26 41s-44.333 13.666 -81 18.999l-20 3c-54.667 5.33301 -99 17.166 -133 35.499s-51 48.833 -51 91.5
c0 9.33301 1 19 3 29c8.66699 47.333 33.334 84.5 74.001 111.5s91 40.5 151 40.5c57.333 0 103 -13 137 -39s51 -60.667 51 -104c0 -9.33301 -1 -19.666 -3 -30.999z" />
    <glyph glyph-name="Scaron" unicode="&#x160;" horiz-adv-x="686" 
d="M295 901h82l64 -62h10l86 62h86l-135 -113h-98zM118.5 31c-46.333 37.333 -69.4971 88.332 -69.4971 152.999c0 16.667 1.33301 32.667 4 48l90 -6c-2 -12.667 -3 -24.667 -3 -36c0 -43.333 15.167 -76.666 45.5 -99.999s74.166 -35 131.499 -35
c58.667 0 106.5 12 143.5 36s59.167 57 66.5 99c1.33301 10.667 2 17.667 2 21c0 23.333 -7.83301 41.666 -23.5 54.999s-34.834 23 -57.501 29s-55 12.667 -97 20c-72.667 10.667 -130.667 28.167 -174 52.5s-65 64.166 -65 119.499c0 7.33301 1.33301 20.333 4 39
c11.333 62.667 43.166 112.334 95.499 149.001s119.833 55 202.5 55c77.333 0 137.666 -17.167 180.999 -51.5s65 -81.5 65 -141.5c0 -14 -1.66699 -30.333 -5 -49l-88 5c2.66699 11.333 4 23.666 4 36.999c0 38.667 -13.833 68.334 -41.5 89.001s-67.167 31 -118.5 31
c-57.333 0 -104 -11.833 -140 -35.5s-57.667 -55.5 -65 -95.5c-1.33301 -9.33301 -2 -16 -2 -20c0 -22.667 7.66699 -40.5 23 -53.5s34.333 -22.5 57 -28.5s53.667 -12.333 93 -19c50 -8 91.833 -17.333 125.5 -28s62 -27.667 85 -51s34.5 -55 34.5 -95
c0 -7.33301 -1.33301 -20.333 -4 -39c-11.333 -65.333 -44 -116.666 -98 -153.999s-123 -56 -207 -56c-83.333 0 -148.166 18.667 -194.499 56z" />
    <glyph glyph-name="scaron" unicode="&#x161;" horiz-adv-x="545" 
d="M271 735l61 -85h10l89 85h84l-140 -142h-93l-89 142h78zM90 21c-35.333 27.333 -53 65.3359 -53 114.003c0 8.66699 1.33301 21.667 4 39l79 -6c-1.33301 -9.33301 -2 -16.333 -2 -21c0 -30.667 11.167 -54.5 33.5 -71.5s54.166 -25.5 95.499 -25.5
c39.333 0 72.333 8.16699 99 24.5s42.334 38.5 47.001 66.5c0.666992 3.33301 1 7.66602 1 12.999c0 20 -8.66699 33.667 -26 41s-44.333 13.666 -81 18.999l-20 3c-54.667 5.33301 -99 17.166 -133 35.499s-51 48.833 -51 91.5c0 9.33301 1 19 3 29
c8.66699 47.333 33.334 84.5 74.001 111.5s91 40.5 151 40.5c57.333 0 103 -13 137 -39s51 -60.667 51 -104c0 -9.33301 -1 -19.666 -3 -30.999l-80 6c1.33301 8 2 14 2 18c0 25.333 -9.83301 45 -29.5 59s-46.834 21 -81.501 21c-38 0 -70.333 -8.33301 -97 -25
s-42.334 -38.667 -47.001 -66c-0.666992 -2.66699 -1 -7 -1 -13c0 -14.667 5.5 -25.667 16.5 -33s23 -12.333 36 -15s37.5 -6.33398 73.5 -11.001c55.333 -6 100 -18.333 134 -37s51 -50 51 -94c0 -8.66699 -1 -18.667 -3 -30c-8.66699 -48 -33 -85.167 -73 -111.5
s-92 -39.5 -156 -39.5c-65.333 0 -115.666 13.667 -150.999 41z" />
    <glyph glyph-name="uni0162" unicode="&#x162;" horiz-adv-x="582" 
d="M312 625h-234l14 80h559l-14 -80h-234l-111 -625h-91zM161 -258l55 73.999c-13.333 0.666992 -24.333 5.5 -33 14.5s-13 19.833 -13 32.5c0 4.66699 0.333008 8 1 10c2 14.667 8.33301 26.5 19 35.5s23.667 13.5 39 13.5c14.667 0 26.667 -4.5 36 -13.5
s14 -20.167 14 -33.5c0 -6 -0.333008 -10.333 -1 -13c-2.66699 -13.333 -8 -26.666 -16 -39.999l-66 -90z" />
    <glyph glyph-name="uni0163" unicode="&#x163;" horiz-adv-x="391" 
d="M129.5 13.5c-21.667 21.667 -32.5 50.5 -32.5 86.5c0 11.333 1 22.333 3 33l55 306h-82l12 66h81l47 163h66l-29 -163h129l-12 -66h-129l-55 -308c-1.33301 -9.33301 -2 -16.333 -2 -21c0 -18.667 5.16699 -33.167 15.5 -43.5s25.5 -15.5 45.5 -15.5
c20.667 0 42 3.33301 64 10l-7 -68c-24.667 -8 -51.667 -12 -81 -12c-37.333 0 -66.833 10.833 -88.5 32.5zM118 -258l54.001 74c-13.333 0.666992 -24.333 5.5 -33 14.5s-13 19.833 -13 32.5c0 16.667 5.83301 30.667 17.5 42s25.5 17 41.5 17
c15.333 0 27.666 -4.5 36.999 -13.5s14 -20.833 14 -35.5c0 -4.66699 -0.333008 -8.33398 -1 -11.001c-2.66699 -13.333 -8 -26.666 -16 -39.999l-66 -90z" />
    <glyph glyph-name="Tcaron" unicode="&#x164;" horiz-adv-x="582" 
d="M243 901h83l64 -62h10l86 62h86l-135 -113h-98zM312 625h-234l14 80h559l-14 -80h-234l-111 -625h-91z" />
    <glyph glyph-name="tcaron" unicode="&#x165;" horiz-adv-x="391" 
d="M309 560l53 74c-13.333 1.33301 -24.333 6.5 -33 15.5s-13 19.833 -13 32.5c0 16 5.83301 29.667 17.5 41s25.5 17 41.5 17c15.333 0 27.666 -4.5 36.999 -13.5s14 -20.5 14 -34.5c0 -5.33301 -0.333008 -9.33301 -1 -12c-1.33301 -13.333 -6.66602 -26.333 -15.999 -39
l-66 -90zM129.5 13.5c-21.667 21.667 -32.5 50.5 -32.5 86.5c0 11.333 1 22.333 3 33l55 306h-82l12 66h81l47 163h66l-29 -163h129l-12 -66h-129l-55 -308c-1.33301 -9.33301 -2 -16.333 -2 -21c0 -18.667 5.16699 -33.167 15.5 -43.5s25.5 -15.5 45.5 -15.5
c20.667 0 42 3.33301 64 10l-7 -68c-24.667 -8 -51.667 -12 -81 -12c-37.333 0 -66.833 10.833 -88.5 32.5z" />
    <glyph glyph-name="Utilde" unicode="&#x168;" horiz-adv-x="757" 
d="M496.5 807c-11.667 6 -23.833 14.668 -36.5 26.001c-8 7.33301 -15 12.833 -21 16.5s-13 5.5 -21 5.5c-13.333 0 -26.5 -4.33301 -39.5 -13s-24.833 -20.334 -35.5 -35.001l-40 37c12.667 20.667 29.5 36.834 50.5 48.501s43.167 17.5 66.5 17.5
c17.333 0 31.666 -2.83301 42.999 -8.5s23.333 -13.834 36 -24.501c9.33301 -8 17.5 -14 24.5 -18s15.167 -6 24.5 -6c14 0 27.833 4.5 41.5 13.5s25.167 20.833 34.5 35.5l41 -37c-13.333 -20.667 -30.666 -37 -51.999 -49s-44.333 -18 -69 -18c-20 0 -35.833 3 -47.5 9z
M206.001 5.00098c-37.333 20 -66.333 48.168 -87 84.501s-31 77.833 -31 124.5c0 19.333 2 39.333 6 60l76 431h91l-78 -437c-2.66699 -14 -4 -29.333 -4 -46c0 -50.667 14.5 -91.167 43.5 -121.5s68.167 -45.5 117.5 -45.5c38.667 0 75 9.5 109 28.5s62.667 45.167 86 78.5
s38.666 70.666 45.999 111.999l75 431h91l-77 -437c-10 -56.667 -31 -107.167 -63 -151.5s-71.5 -79 -118.5 -104s-97.833 -37.5 -152.5 -37.5c-49.333 0 -92.666 10 -129.999 30z" />
    <glyph glyph-name="utilde" unicode="&#x169;" 
d="M378 602c-12 6 -24.001 14.333 -36.001 25c-9.33301 8 -17.333 13.833 -24 17.5s-14.334 5.5 -23.001 5.5c-13.333 0 -26.166 -3.5 -38.499 -10.5s-22.5 -16.167 -30.5 -27.5l-40 37c12.667 20 29.667 36 51 48s43.333 18 66 18c18 0 32.5 -2.83301 43.5 -8.5
s23.167 -14.167 36.5 -25.5c10.667 -8 19.334 -14 26.001 -18s14.667 -6 24 -6c14.667 0 28.5 4 41.5 12s23.167 17.667 30.5 29l41 -38c-13.333 -20.667 -30.5 -37 -51.5 -49s-44.167 -18 -69.5 -18c-19.333 0 -35 3 -47 9zM482.999 0l-82.998 -0.000976562l13 69l-9 -3
c-22 -27.333 -47.667 -48.166 -77 -62.499s-60 -21.5 -92 -21.5c-56.667 0 -100.834 16.167 -132.501 48.5s-47.5 74.833 -47.5 127.5c0 17.333 1.33301 33.666 4 48.999l52 298h83l-53 -304c-2.66699 -17.333 -4 -29.333 -4 -36c0 -33.333 9.66699 -59.666 29 -78.999
s46.666 -29 81.999 -29c29.333 0 57.5 6.83301 84.5 20.5s50 32.5 69 56.5s31.167 50.667 36.5 80l52 291h83z" />
    <glyph glyph-name="Umacron" unicode="&#x16a;" horiz-adv-x="757" 
d="M334 868h310l-12 -66h-310zM206 5c-37.333 20 -66.333 48.168 -87 84.501s-31 77.833 -31 124.5c0 19.333 2 39.333 6 60l76 431h91l-78 -437c-2.66699 -14 -4 -29.333 -4 -46c0 -50.667 14.5 -91.167 43.5 -121.5s68.167 -45.5 117.5 -45.5c38.667 0 75 9.5 109 28.5
s62.667 45.167 86 78.5s38.666 70.666 45.999 111.999l75 431h91l-77 -437c-10 -56.667 -31 -107.167 -63 -151.5s-71.5 -79 -118.5 -104s-97.833 -37.5 -152.5 -37.5c-49.333 0 -92.666 10 -129.999 30z" />
    <glyph glyph-name="umacron" unicode="&#x16b;" 
d="M214 668h310l-12 -66h-310zM483 0l-82.998 -0.000976562l13 69l-9 -3c-22 -27.333 -47.667 -48.166 -77 -62.499s-60 -21.5 -92 -21.5c-56.667 0 -100.834 16.167 -132.501 48.5s-47.5 74.833 -47.5 127.5c0 17.333 1.33301 33.666 4 48.999l52 298h83l-53 -304
c-2.66699 -17.333 -4 -29.333 -4 -36c0 -33.333 9.66699 -59.666 29 -78.999s46.666 -29 81.999 -29c29.333 0 57.5 6.83301 84.5 20.5s50 32.5 69 56.5s31.167 50.667 36.5 80l52 291h83z" />
    <glyph glyph-name="Ubreve" unicode="&#x16c;" horiz-adv-x="757" 
d="M380.5 808c-25 20 -37.498 45.333 -37.498 76c0 4 0.666992 10.667 2 20l81 -5c-0.666992 -3.33301 -1 -8 -1 -14c0 -28.667 18 -43 54 -43c22.667 0 41.667 5.66699 57 17s24.666 26.333 27.999 45l80 -5c-6.66699 -36 -25.334 -65.167 -56.001 -87.5
s-67 -33.5 -109 -33.5c-40.667 0 -73.5 10 -98.5 30zM206.002 5c-37.333 20 -66.333 48.168 -87 84.501s-31 77.833 -31 124.5c0 19.333 2 39.333 6 60l76 431h91l-78 -437c-2.66699 -14 -4 -29.333 -4 -46c0 -50.667 14.5 -91.167 43.5 -121.5s68.167 -45.5 117.5 -45.5
c38.667 0 75 9.5 109 28.5s62.667 45.167 86 78.5s38.666 70.666 45.999 111.999l75 431h91l-77 -437c-10 -56.667 -31 -107.167 -63 -151.5s-71.5 -79 -118.5 -104s-97.833 -37.5 -152.5 -37.5c-49.333 0 -92.666 10 -129.999 30z" />
    <glyph glyph-name="ubreve" unicode="&#x16d;" 
d="M277 632.5c-21.333 21 -32.002 47.834 -32.002 80.501c0 4.66699 0.666992 13 2 25l69 -5c-1.33301 -9.33301 -2 -16 -2 -20c0 -16 4 -28.5 12 -37.5s20 -13.5 36 -13.5c20.667 0 38.667 7.16699 54 21.5s25 32.5 29 54.5l68 -5
c-6.66699 -38.667 -24.167 -70.334 -52.5 -95.001s-61.166 -37 -98.499 -37c-35.333 0 -63.666 10.5 -84.999 31.5zM482.998 0.000976562l-82.998 -0.000976562l13 69l-9 -3c-22 -27.333 -47.667 -48.166 -77 -62.499s-60 -21.5 -92 -21.5
c-56.667 0 -100.834 16.167 -132.501 48.5s-47.5 74.833 -47.5 127.5c0 17.333 1.33301 33.666 4 48.999l52 298h83l-53 -304c-2.66699 -17.333 -4 -29.333 -4 -36c0 -33.333 9.66699 -59.666 29 -78.999s46.666 -29 81.999 -29c29.333 0 57.5 6.83301 84.5 20.5
s50 32.5 69 56.5s31.167 50.667 36.5 80l52 291h83z" />
    <glyph glyph-name="Uring" unicode="&#x16e;" horiz-adv-x="757" 
d="M412 791.5c-16.667 15 -24.999 34.833 -24.999 59.5c0 30 11 55.167 33 75.5s48.333 30.5 79 30.5c26.667 0 48 -7.5 64 -22.5s24 -34.5 24 -58.5c0 -30 -10.667 -55.333 -32 -76s-47.333 -31 -78 -31c-26.667 0 -48.334 7.5 -65.001 22.5zM522.501 829.5
c14.333 13.667 21.5 30.167 21.5 49.5c0 11.333 -3.66699 20.5 -11 27.5s-17.333 10.5 -30 10.5c-19.333 0 -36 -6.66699 -50 -20s-21 -30 -21 -50c0 -11.333 3.66699 -20.5 11 -27.5s17.333 -10.5 30 -10.5c18.667 0 35.167 6.83301 49.5 20.5zM206.001 5
c-37.333 20 -66.333 48.168 -87 84.501s-31 77.833 -31 124.5c0 19.333 2 39.333 6 60l76 431h91l-78 -437c-2.66699 -14 -4 -29.333 -4 -46c0 -50.667 14.5 -91.167 43.5 -121.5s68.167 -45.5 117.5 -45.5c38.667 0 75 9.5 109 28.5s62.667 45.167 86 78.5
s38.666 70.666 45.999 111.999l75 431h91l-77 -437c-10 -56.667 -31 -107.167 -63 -151.5s-71.5 -79 -118.5 -104s-97.833 -37.5 -152.5 -37.5c-49.333 0 -92.666 10 -129.999 30z" />
    <glyph glyph-name="uring" unicode="&#x16f;" 
d="M288.5 612.5c-17.667 16.333 -26.498 37.833 -26.498 64.5c0 34 12 62.333 36 85s53.333 34 88 34c29.333 0 52.666 -8.16699 69.999 -24.5s26 -37.833 26 -64.5c0 -33.333 -11.833 -61.5 -35.5 -84.5s-52.834 -34.5 -87.501 -34.5c-29.333 0 -52.833 8.16699 -70.5 24.5
zM414.002 652c16.667 16 24.999 35.333 24.999 58c0 14 -4.5 25.167 -13.5 33.5s-21.167 12.5 -36.5 12.5c-20.667 0 -38.667 -6.5 -54 -19.5s-24.666 -29.833 -27.999 -50.5c-0.666992 -2.66699 -1 -6.66699 -1 -12c0 -14 4.5 -25.167 13.5 -33.5s21.167 -12.5 36.5 -12.5
c22 0 41.333 8 58 24zM483.001 0l-82.998 -0.000976562l13 69l-9 -3c-22 -27.333 -47.667 -48.166 -77 -62.499s-60 -21.5 -92 -21.5c-56.667 0 -100.834 16.167 -132.501 48.5s-47.5 74.833 -47.5 127.5c0 17.333 1.33301 33.666 4 48.999l52 298h83l-53 -304
c-2.66699 -17.333 -4 -29.333 -4 -36c0 -33.333 9.66699 -59.666 29 -78.999s46.666 -29 81.999 -29c29.333 0 57.5 6.83301 84.5 20.5s50 32.5 69 56.5s31.167 50.667 36.5 80l52 291h83z" />
    <glyph glyph-name="Uhungarumlaut" unicode="&#x170;" horiz-adv-x="757" 
d="M459 902h102l-126 -113h-89zM621 902h101l-132 -113h-88zM206 5c-37.333 20 -66.333 48.168 -87 84.501s-31 77.833 -31 124.5c0 19.333 2 39.333 6 60l76 431h91l-78 -437c-2.66699 -14 -4 -29.333 -4 -46c0 -50.667 14.5 -91.167 43.5 -121.5s68.167 -45.5 117.5 -45.5
c38.667 0 75 9.5 109 28.5s62.667 45.167 86 78.5s38.666 70.666 45.999 111.999l75 431h91l-77 -437c-10 -56.667 -31 -107.167 -63 -151.5s-71.5 -79 -118.5 -104s-97.833 -37.5 -152.5 -37.5c-49.333 0 -92.666 10 -129.999 30z" />
    <glyph glyph-name="uhungarumlaut" unicode="&#x171;" 
d="M361 730h92l-138 -137h-79zM397 593l131 137h90l-142 -137h-79zM483 0l-82.998 -0.000976562l13 69l-9 -3c-22 -27.333 -47.667 -48.166 -77 -62.499s-60 -21.5 -92 -21.5c-56.667 0 -100.834 16.167 -132.501 48.5s-47.5 74.833 -47.5 127.5
c0 17.333 1.33301 33.666 4 48.999l52 298h83l-53 -304c-2.66699 -17.333 -4 -29.333 -4 -36c0 -33.333 9.66699 -59.666 29 -78.999s46.666 -29 81.999 -29c29.333 0 57.5 6.83301 84.5 20.5s50 32.5 69 56.5s31.167 50.667 36.5 80l52 291h83z" />
    <glyph glyph-name="Uogonek" unicode="&#x172;" horiz-adv-x="757" 
d="M747 705l-76.999 -437.001c-12 -67.333 -39 -125.666 -81 -174.999s-93 -83.666 -153 -102.999c-34.667 -15.333 -62.334 -32.333 -83.001 -51s-32.667 -37.334 -36 -56.001c-0.666992 -2 -1 -5 -1 -9c0 -17.333 11 -26 33 -26c18 0 39.667 7.33301 65 22l-4 -51
c-25.333 -12.667 -50 -19 -74 -19c-20.667 0 -37.334 6 -50.001 18s-19 27.667 -19 47c0 38.667 22.667 75.334 68 110.001c-49.333 0 -92.666 10 -129.999 30s-66.166 48.167 -86.499 84.5s-30.5 77.833 -30.5 124.5c0 19.333 2 39.333 6 60l76 431h91l-78 -437
c-2.66699 -14 -4 -29.333 -4 -46c0 -50.667 14.5 -91.167 43.5 -121.5s68.167 -45.5 117.5 -45.5c38.667 0 75 9.5 109 28.5s62.667 45.167 86 78.5s38.666 70.666 45.999 111.999l75 431h91z" />
    <glyph glyph-name="uogonek" unicode="&#x173;" 
d="M483 0l-16 -0.00195312l1 -1c-44 -17.333 -78.333 -37 -103 -59s-37 -43.667 -37 -65c0 -18 11 -27 33 -27c18 0 39.667 7.33301 65 22l-4 -51c-11.333 -6 -23.666 -10.667 -36.999 -14s-25.666 -5 -36.999 -5c-20.667 0 -37.334 6 -50.001 18s-19 27.667 -19 47
c0 25.333 10.333 50.333 31 75s51.334 47.334 92.001 68.001l11 61l-9 -3c-22 -27.333 -47.667 -48.166 -77 -62.499s-60 -21.5 -92 -21.5c-56.667 0 -100.834 16.167 -132.501 48.5s-47.5 74.833 -47.5 127.5c0 17.333 1.33301 33.666 4 48.999l52 298h83l-53 -304
c-2.66699 -17.333 -4 -29.333 -4 -36c0 -33.333 9.66699 -59.666 29 -78.999s46.666 -29 81.999 -29c29.333 0 57.5 6.83301 84.5 20.5s50 32.5 69 56.5s31.167 50.667 36.5 80l52 291h83z" />
    <glyph glyph-name="Wcircumflex" unicode="&#x174;" horiz-adv-x="1088" 
d="M709 901l96 -113h-83l-64 62h-10l-85 -62h-87l135 113h98zM129 705h86l69 -628h10l271 628h118l48 -628h10l291 628h89l-329 -705h-140l-42 595h-10l-251 -595h-140z" />
    <glyph glyph-name="wcircumflex" unicode="&#x175;" horiz-adv-x="840" 
d="M460 735h93l90 -142h-80l-59 86h-9l-92 -86h-82zM67 505h81l66 -423h9l188 423h106l41 -424h9l213 424h83l-258 -505h-119l-33 409h-10l-178 -409h-118z" />
    <glyph glyph-name="Ycircumflex" unicode="&#x176;" horiz-adv-x="660" 
d="M494 901l96 -113h-82l-65 62h-9l-86 -62h-86l134 113h98zM287 258l-176 447h94l137 -360h9l260 360h100l-333 -447l-46 -258h-91z" />
    <glyph glyph-name="ycircumflex" unicode="&#x177;" horiz-adv-x="533" 
d="M315 735h93l90 -142h-80l-59 86h-9l-92 -86h-82zM-33 -207l9.00195 71c20.667 -9.33301 41 -14 61 -14c20.667 0 39 5.33301 55 16s29.667 24 41 40s25 37.333 41 64l20 33l-135 502h85l103 -395h9l219 395h90l-291 -516c-28.667 -50 -52.334 -88.667 -71.001 -116
s-41 -50.333 -67 -69s-55.667 -28 -89 -28c-28.667 0 -55.334 5.66699 -80.001 17z" />
    <glyph glyph-name="Ydieresis" unicode="&#x178;" horiz-adv-x="660" 
d="M275.5 804.5c-9.66699 9.66699 -14.498 22.499 -14.498 38.499c0 19.333 6.16699 35 18.5 47s27.833 18 46.5 18c16.667 0 30 -4.83301 40 -14.5s15 -22.167 15 -37.5c0 -19.333 -6.33301 -35.166 -19 -47.499s-28.334 -18.5 -47.001 -18.5
c-16.667 0 -29.834 4.83301 -39.501 14.5zM506.502 803.999c-9.66699 9.33301 -14.5 21.666 -14.5 36.999c0 20 6 36.167 18 48.5s27.667 18.5 47 18.5c16.667 0 29.834 -4.66699 39.501 -14s14.5 -21.666 14.5 -36.999c0 -19.333 -6.33301 -35.333 -19 -48s-28 -19 -46 -19
c-16.667 0 -29.834 4.66699 -39.501 14zM287.002 257.999l-176 447h94l137 -360h9l260 360h100l-333 -447l-46 -258h-91z" />
    <glyph glyph-name="Zacute" unicode="&#x179;" horiz-adv-x="656" 
d="M518 901h105l-129 -113h-100zM11 42l515 573l3 10h-404l14 80h538l-7 -41l-515 -574l-2 -10h424l-15 -80h-558z" />
    <glyph glyph-name="zacute" unicode="&#x17a;" horiz-adv-x="520" 
d="M290 593l132 142h96l-139 -142h-89zM-7 36l378 385l3 9h-300l13 75h436l-6 -36l-377 -384l-3 -10h319l-13 -75h-456z" />
    <glyph glyph-name="Zdotaccent" unicode="&#x17b;" horiz-adv-x="656" 
d="M407.5 804c-9.66699 9.33301 -14.499 21.666 -14.499 36.999c0 20 6.16699 36.167 18.5 48.5s27.5 18.5 45.5 18.5c16.667 0 30 -4.66699 40 -14s15 -21.666 15 -36.999c0 -19.333 -6.33301 -35.333 -19 -48s-28 -19 -46 -19c-16.667 0 -29.834 4.66699 -39.501 14z
M11.001 42l515 573l3 10h-404l14 80h538l-7 -41l-515 -574l-2 -10h424l-15 -80h-558z" />
    <glyph glyph-name="zdotaccent" unicode="&#x17c;" horiz-adv-x="520" 
d="M305 615.5c-10 9.66699 -15.001 22.167 -15.001 37.5c0 19.333 6.16699 35.166 18.5 47.499s27.833 18.5 46.5 18.5c16.667 0 29.834 -4.66699 39.501 -14s14.5 -21.666 14.5 -36.999c0 -19.333 -6.16699 -35.333 -18.5 -48s-27.5 -19 -45.5 -19
c-16.667 0 -30 4.83301 -40 14.5zM-7.00098 36l378 385l3 9h-300l13 75h436l-6 -36l-377 -384l-3 -10h319l-13 -75h-456z" />
    <glyph glyph-name="Zcaron" unicode="&#x17d;" horiz-adv-x="656" 
d="M298 901h83l63 -62h11l85 62h87l-136 -113h-97zM11 42l515 573l3 10h-404l14 80h538l-7 -41l-515 -574l-2 -10h424l-15 -80h-558z" />
    <glyph glyph-name="zcaron" unicode="&#x17e;" horiz-adv-x="520" 
d="M281 735l60 -85h10l90 85h83l-140 -142h-93l-89 142h79zM-7 36l378 385l3 9h-300l13 75h436l-6 -36l-377 -384l-3 -10h319l-13 -75h-456z" />
    <glyph glyph-name="AEacute" unicode="&#x1fc;" horiz-adv-x="930" 
d="M673 901h105l-130 -113h-100zM467 705h492l-14 -80h-327l-40 -224h288l-13 -75h-288l-43 -246h336l-14 -80h-428l25 142h-255l-99 -142h-103zM454 217l73 417h-8l-283 -417h218z" />
    <glyph glyph-name="aeacute" unicode="&#x1fd;" horiz-adv-x="952" 
d="M481 593l133 142h96l-140 -142h-89zM429 500c32 -18 53.335 -41.999 64.002 -71.999c59.333 64.667 128.666 97 207.999 97c62.667 0 112.667 -19.667 150 -59s56 -91 56 -155c0 -22 -1.66699 -41.667 -5 -59c-1.33301 -10 -3.33301 -19.667 -6 -29h-406
c-2.66699 -50.667 8.16602 -91.334 32.499 -122.001s58.166 -46 101.499 -46c32.667 0 64.167 8.83301 94.5 26.5s56.166 42.167 77.499 73.5l64 -40c-26 -40 -60.167 -72.5 -102.5 -97.5s-85.833 -37.5 -130.5 -37.5c-50 0 -92.5 13.333 -127.5 40
s-57.5 61.334 -67.5 104.001c-21.333 -43.333 -54.5 -77.5 -99.5 -102.5s-94.5 -37.5 -148.5 -37.5c-52 0 -93.333 11.667 -124 35s-46 54.666 -46 93.999c0 11.333 0.666992 20 2 26c8.66699 45.333 34.834 82 78.501 110s102.834 46 177.501 54l146 15l4 26
c1.33301 10.667 2 18 2 22c0 27.333 -10 48.5 -30 63.5s-48 22.5 -84 22.5c-37.333 0 -70 -9.66699 -98 -29s-44.333 -43.333 -49 -72l-83 5c6 33.333 20 63 42 89s49.5 46.167 82.5 60.5s68.833 21.5 107.5 21.5c46 0 85 -9 117 -27zM580.002 407.001
c-34 -28.667 -59 -66.333 -75 -113l318 6c1.33301 46 -9.5 82.5 -32.5 109.5s-55.167 40.5 -96.5 40.5c-42 0 -80 -14.333 -114 -43zM148.002 200.002c-28.667 -19.333 -45.666 -42.999 -50.999 -70.999c-0.666992 -2.66699 -1 -6.33398 -1 -11.001
c0 -20.667 9.16699 -36.834 27.5 -48.501s42.166 -17.5 71.499 -17.5c34 0 65.5 7 94.5 21s53.167 33 72.5 57s31.333 50 36 78l8 45l-140 -16c-50 -5.33301 -89.333 -17.666 -118 -36.999z" />
    <glyph glyph-name="Oslashacute" unicode="&#x1fe;" horiz-adv-x="845" 
d="M556 901h105l-129 -113h-100zM190 28c-40 26 -71.001 60.833 -93.001 104.5s-33 93.167 -33 148.5c0 26 2.33301 51.667 7 77c12.667 71.333 39.5 135.166 80.5 191.499s92.167 100.5 153.5 132.5s127 48 197 48c52.667 0 99.334 -9.33301 140.001 -28l110 158h87
l-133 -194c35.333 -26.667 62.833 -61 82.5 -103s29.5 -89 29.5 -141c0 -19.333 -2.33301 -44.333 -7 -75c-12.667 -71.333 -39.667 -135.166 -81 -191.499s-92.666 -100.5 -153.999 -132.5s-127 -48 -197 -48c-44.667 0 -86.334 7 -125.001 21l-93 -136h-87zM598.999 630
c-30.667 13.333 -64.333 20.001 -101 20.001c-54 0 -105 -13 -153 -39s-88.333 -62.167 -121 -108.5s-54 -98.166 -64 -155.499c-4 -22 -6 -42.667 -6 -62c0 -38.667 7 -73.834 21 -105.501s34 -57.834 60 -78.501zM536 94.001c48 26 88.333 62.002 121 108.002
s54 98 64 156c3.33301 17.333 5 37.666 5 60.999c0 36 -5.83301 68.667 -17.5 98s-28.5 54.666 -50.5 75.999l-360 -525c26 -8.66699 54.333 -13 85 -13c54 0 105 13 153 39z" />
    <glyph glyph-name="oslashacute" unicode="&#x1ff;" horiz-adv-x="648" 
d="M316 593l132 142h96l-139 -142h-89zM139 19c-29.333 19.333 -52 44.5 -68 75.5s-24 66.833 -24 107.5c0 15.333 1.66699 34 5 56c8.66699 51.333 28 97.333 58 138s67.333 72.334 112 95.001s93 34 145 34c37.333 0 70.333 -5.66699 99 -17l64 92h81l-87 -124
c24.667 -20 43.667 -44.667 57 -74s20 -62.333 20 -99c0 -21.333 -1.66699 -40 -5 -56c-8.66699 -51.333 -28 -97.333 -58 -138s-67.333 -72.334 -112 -95.001s-93 -34 -145 -34c-30 0 -57 3.66699 -81 11l-50 -71h-81zM432 450c-19.333 7.33301 -41.333 11.002 -66 11.002
c-39.333 0 -76 -9.16699 -110 -27.5s-62.667 -43.833 -86 -76.5s-38.666 -69.334 -45.999 -110.001c-2.66699 -18.667 -4 -32.334 -4 -41.001c0 -26.667 4.66699 -51 14 -73s22.666 -40.667 39.999 -56zM391.5 71.502c34.333 18.333 63 43.8311 86 76.498
s38.167 69.334 45.5 110.001c2.66699 18.667 4 32.334 4 41.001c0 46 -14 85 -42 117l-252 -367c14 -3.33301 30.333 -5 49 -5c38.667 0 75.167 9.16699 109.5 27.5z" />
    <glyph glyph-name="Scommaaccent" unicode="&#x218;" horiz-adv-x="686" 
d="M118.5 31c-46.333 37.333 -69.4971 88.332 -69.4971 152.999c0 16.667 1.33301 32.667 4 48l90 -6c-2 -12.667 -3 -24.667 -3 -36c0 -43.333 15.167 -76.666 45.5 -99.999s74.166 -35 131.499 -35c58.667 0 106.5 12 143.5 36s59.167 57 66.5 99
c1.33301 10.667 2 17.667 2 21c0 23.333 -7.83301 41.666 -23.5 54.999s-34.834 23 -57.501 29s-55 12.667 -97 20c-72.667 10.667 -130.667 28.167 -174 52.5s-65 64.166 -65 119.499c0 7.33301 1.33301 20.333 4 39c11.333 62.667 43.166 112.334 95.499 149.001
s119.833 55 202.5 55c77.333 0 137.666 -17.167 180.999 -51.5s65 -81.5 65 -141.5c0 -14 -1.66699 -30.333 -5 -49l-88 5c2.66699 11.333 4 23.666 4 36.999c0 38.667 -13.833 68.334 -41.5 89.001s-67.167 31 -118.5 31c-57.333 0 -104 -11.833 -140 -35.5
s-57.667 -55.5 -65 -95.5c-1.33301 -9.33301 -2 -16 -2 -20c0 -22.667 7.66699 -40.5 23 -53.5s34.333 -22.5 57 -28.5s53.667 -12.333 93 -19c50 -8 91.833 -17.333 125.5 -28s62 -27.667 85 -51s34.5 -55 34.5 -95c0 -7.33301 -1.33301 -20.333 -4 -39
c-11.333 -65.333 -44 -116.666 -98 -153.999s-123 -56 -207 -56c-83.333 0 -148.166 18.667 -194.499 56zM223.003 -258.001l54 73.999c-13.333 0.666992 -24.333 5.5 -33 14.5s-13 19.833 -13 32.5c0 16.667 5.66699 30.667 17 42s25.333 17 42 17
c14.667 0 26.667 -4.5 36 -13.5s14 -20.167 14 -33.5c0 -6 -0.333008 -10.333 -1 -13c-2.66699 -15.333 -8 -28.666 -16 -39.999l-66 -90z" />
    <glyph glyph-name="scommaaccent" unicode="&#x219;" horiz-adv-x="545" 
d="M90 21c-35.333 27.333 -53 65.3359 -53 114.003c0 8.66699 1.33301 21.667 4 39l79 -6c-1.33301 -9.33301 -2 -16.333 -2 -21c0 -30.667 11.167 -54.5 33.5 -71.5s54.166 -25.5 95.499 -25.5c39.333 0 72.333 8.16699 99 24.5s42.334 38.5 47.001 66.5
c0.666992 3.33301 1 7.66602 1 12.999c0 20 -8.66699 33.667 -26 41s-44.333 13.666 -81 18.999l-20 3c-54.667 5.33301 -99 17.166 -133 35.499s-51 48.833 -51 91.5c0 9.33301 1 19 3 29c8.66699 47.333 33.334 84.5 74.001 111.5s91 40.5 151 40.5
c57.333 0 103 -13 137 -39s51 -60.667 51 -104c0 -9.33301 -1 -19.666 -3 -30.999l-80 6c1.33301 8 2 14 2 18c0 25.333 -9.83301 45 -29.5 59s-46.834 21 -81.501 21c-38 0 -70.333 -8.33301 -97 -25s-42.334 -38.667 -47.001 -66c-0.666992 -2.66699 -1 -7 -1 -13
c0 -14.667 5.5 -25.667 16.5 -33s23 -12.333 36 -15s37.5 -6.33398 73.5 -11.001c55.333 -6 100 -18.333 134 -37s51 -50 51 -94c0 -8.66699 -1 -18.667 -3 -30c-8.66699 -48 -33 -85.167 -73 -111.5s-92 -39.5 -156 -39.5c-65.333 0 -115.666 13.667 -150.999 41z
M140 -257.997l53.999 74c-13.333 0.666992 -24.333 5.5 -33 14.5s-13 19.833 -13 32.5c0 16.667 5.83301 30.667 17.5 42s25.5 17 41.5 17c14.667 0 26.667 -4.5 36 -13.5s14 -20.167 14 -33.5c0 -6 -0.333008 -10.333 -1 -13c-1.33301 -12.667 -6.66602 -26 -15.999 -40
l-65 -90z" />
    <glyph glyph-name="uni021A" unicode="&#x21a;" horiz-adv-x="582" 
d="M312 625h-234l14 80h559l-14 -80h-234l-111 -625h-91zM161 -258l55 73.999c-13.333 0.666992 -24.333 5.5 -33 14.5s-13 19.833 -13 32.5c0 4.66699 0.333008 8 1 10c2 14.667 8.33301 26.5 19 35.5s23.667 13.5 39 13.5c14.667 0 26.667 -4.5 36 -13.5
s14 -20.167 14 -33.5c0 -6 -0.333008 -10.333 -1 -13c-2.66699 -13.333 -8 -26.666 -16 -39.999l-66 -90z" />
    <glyph glyph-name="uni021B" unicode="&#x21b;" horiz-adv-x="391" 
d="M129.5 13.5c-21.667 21.667 -32.5 50.5 -32.5 86.5c0 11.333 1 22.333 3 33l55 306h-82l12 66h81l47 163h66l-29 -163h129l-12 -66h-129l-55 -308c-1.33301 -9.33301 -2 -16.333 -2 -21c0 -18.667 5.16699 -33.167 15.5 -43.5s25.5 -15.5 45.5 -15.5
c20.667 0 42 3.33301 64 10l-7 -68c-24.667 -8 -51.667 -12 -81 -12c-37.333 0 -66.833 10.833 -88.5 32.5zM118 -258l54.001 74c-13.333 0.666992 -24.333 5.5 -33 14.5s-13 19.833 -13 32.5c0 16.667 5.83301 30.667 17.5 42s25.5 17 41.5 17
c15.333 0 27.666 -4.5 36.999 -13.5s14 -20.833 14 -35.5c0 -4.66699 -0.333008 -8.33398 -1 -11.001c-2.66699 -13.333 -8 -26.666 -16 -39.999l-66 -90z" />
    <glyph glyph-name="circumflex" unicode="&#x2c6;" horiz-adv-x="423" 
d="M249 735h93l89 -142h-79l-60 86h-9l-91 -86h-82z" />
    <glyph glyph-name="caron" unicode="&#x2c7;" horiz-adv-x="423" 
d="M215 735l60 -85h10l90 85h84l-141 -142h-93l-88 142h78z" />
    <glyph glyph-name="breve" unicode="&#x2d8;" horiz-adv-x="368" 
d="M165.5 632.5c-21 21 -31.499 47.832 -31.499 80.499c0 4.66699 0.666992 13 2 25l69 -5c-1.33301 -9.33301 -2 -16 -2 -20c0 -16 4.16699 -28.5 12.5 -37.5s20.166 -13.5 35.499 -13.5c21.333 0 39.5 7.16699 54.5 21.5s24.5 32.5 28.5 54.5l68 -5
c-7.33301 -39.333 -25 -71.166 -53 -95.499s-61 -36.5 -99 -36.5c-35.333 0 -63.5 10.5 -84.5 31.5z" />
    <glyph glyph-name="dotaccent" unicode="&#x2d9;" horiz-adv-x="220" 
d="M137.5 615c-9.66699 9.33301 -14.499 21.666 -14.499 36.999c0 20 6.16699 36.167 18.5 48.5s27.5 18.5 45.5 18.5c16.667 0 30 -4.66699 40 -14s15 -21.666 15 -36.999c0 -19.333 -6.33301 -35.333 -19 -48s-28 -19 -46 -19c-16.667 0 -29.834 4.66699 -39.501 14z" />
    <glyph glyph-name="ring" unicode="&#x2da;" horiz-adv-x="319" 
d="M153.5 612.5c-17.667 16.333 -26.5 37.833 -26.5 64.5c0 34 11.833 62.333 35.5 85s52.834 34 87.501 34c29.333 0 52.666 -8.16699 69.999 -24.5s26 -37.5 26 -63.5c0 -34 -11.5 -62.5 -34.5 -85.5s-51.833 -34.5 -86.5 -34.5c-30 0 -53.833 8.16699 -71.5 24.5z
M278.5 652.5c16.333 16.333 24.5 35.833 24.5 58.5c0 14 -4.33301 25 -13 33s-20.667 12 -36 12c-22.667 0 -42.167 -7.83301 -58.5 -23.5s-24.5 -35.167 -24.5 -58.5c0 -14 4.33301 -25.167 13 -33.5s21 -12.5 37 -12.5c22 0 41.167 8.16699 57.5 24.5z" />
    <glyph glyph-name="ogonek" unicode="&#x2db;" horiz-adv-x="265" 
d="M2.5 -182c-12.333 12 -18.502 27.999 -18.502 47.999c0 30 14.5 59.333 43.5 88s71.833 54.334 128.5 77.001l16 -32c-40.667 -16.667 -73 -35 -97 -55s-38 -40.333 -42 -61c-1.33301 -11.333 0.666992 -20 6 -26s14.333 -9 27 -9c17.333 0 39 7.33301 65 22l-5 -51
c-11.333 -6 -23.666 -10.667 -36.999 -14s-25.666 -5 -36.999 -5c-20.667 0 -37.167 6 -49.5 18z" />
    <glyph glyph-name="tilde" unicode="&#x2dc;" horiz-adv-x="457" 
d="M312 602c-12 6 -24 14.332 -36 24.999c-9.33301 8 -17.333 13.833 -24 17.5s-14.334 5.5 -23.001 5.5c-13.333 0 -26.166 -3.5 -38.499 -10.5s-22.5 -16.167 -30.5 -27.5l-41 37c13.333 20.667 30.666 36.834 51.999 48.501s43.333 17.5 66 17.5
c18 0 32.5 -2.83301 43.5 -8.5s23.167 -14.167 36.5 -25.5c10.667 -8 19.334 -14 26.001 -18s14.667 -6 24 -6c14.667 0 28.5 4 41.5 12s23.167 17.667 30.5 29l41 -38c-13.333 -20.667 -30.5 -37 -51.5 -49s-44.167 -18 -69.5 -18c-19.333 0 -35 3 -47 9z" />
    <glyph glyph-name="hungarumlaut" unicode="&#x2dd;" horiz-adv-x="457" 
d="M235 730h92l-138 -137h-79zM270 593l131 137h91l-143 -137h-79z" />
    <glyph glyph-name="uni0401" unicode="&#x401;" horiz-adv-x="639" 
d="M283.5 804.5c-9.66699 9.66699 -14.498 22.499 -14.498 38.499c0 19.333 6.16699 35 18.5 47s27.833 18 46.5 18c16.667 0 30 -4.83301 40 -14.5s15 -22.167 15 -37.5c0 -19.333 -6.33301 -35.166 -19 -47.499s-28.334 -18.5 -47.001 -18.5
c-16.667 0 -29.834 4.83301 -39.501 14.5zM514.502 803.999c-9.66699 9.33301 -14.5 21.666 -14.5 36.999c0 20 6 36.167 18 48.5s27.667 18.5 47 18.5c16.667 0 29.834 -4.66699 39.501 -14s14.5 -21.666 14.5 -36.999c0 -19.333 -6.33301 -35.333 -19 -48s-28 -19 -46 -19
c-16.667 0 -29.834 4.66699 -39.501 14zM175.002 704.999h484l-14 -80h-393l-39 -220h353l-14 -80h-353l-42 -245h402l-15 -80h-493z" />
    <glyph glyph-name="uni0402" unicode="&#x402;" horiz-adv-x="691" 
d="M284 -6l7.99609 67.9971c18.667 -4.66699 39.667 -7 63 -7c46.667 0 85.834 13.167 117.501 39.5s51.834 64.833 60.501 115.5l12 62c2.66699 16 4 32.333 4 49c0 42.667 -11.5 74.834 -34.5 96.501s-56.833 32.5 -101.5 32.5c-36 0 -70 -7.66699 -102 -23
s-59.167 -37.5 -81.5 -66.5s-36.833 -63.5 -43.5 -103.5l-46 -257h-83l112 630h-90l13 75h265l-13 -75h-92l-38 -213l8 3c22.667 36.667 52.334 63.334 89.001 80.001s75.334 25 116.001 25c65.333 0 116 -17.167 152 -51.5s54 -82.5 54 -144.5c0 -20 -2 -41 -6 -63l-11 -64
c-13.333 -71.333 -41.833 -125.666 -85.5 -162.999s-97.167 -56 -160.5 -56c-34 0 -62.667 3.66699 -86 11z" />
    <glyph glyph-name="uni0403" unicode="&#x403;" horiz-adv-x="603" 
d="M477 901h105l-129 -113h-101zM174 705h473l-14 -80h-382l-110 -625h-91z" />
    <glyph glyph-name="uni0404" unicode="&#x404;" horiz-adv-x="822" 
d="M216 14c-48.667 26 -86.332 62.332 -112.999 108.999s-40 100 -40 160c0 26 2.33301 51 7 75c12.667 71.333 39.834 135.166 81.501 191.499s93.667 100.5 156 132.5s129.166 48 200.499 48c58 0 109.667 -12 155 -36s80.666 -56.5 105.999 -97.5
s37.666 -86.5 36.999 -136.5l-85 -5c-1.33301 36.667 -11.333 69.834 -30 99.501s-44 53 -76 70s-68 25.5 -108 25.5c-51.333 0 -100.333 -11 -147 -33s-86.667 -52.667 -120 -92s-57 -84 -71 -134l410 3l-14 -81l-411 -2l-1 -21c0 -46.667 9.83301 -87.667 29.5 -123
s47.5 -62.833 83.5 -82.5s78 -29.5 126 -29.5c42 0 83 8.66699 123 26s75 41 105 71s51.667 63 65 99l83 -18c-16 -48.667 -43.167 -92.667 -81.5 -132s-83.666 -70.166 -135.999 -92.499s-107.166 -33.5 -164.499 -33.5c-64.667 0 -121.334 13 -170.001 39z" />
    <glyph glyph-name="uni0405" unicode="&#x405;" horiz-adv-x="686" 
d="M118.5 31c-46.333 37.333 -69.4971 88.332 -69.4971 152.999c0 16.667 1.33301 32.667 4 48l90 -6c-2 -12.667 -3 -24.667 -3 -36c0 -43.333 15.167 -76.666 45.5 -99.999s74.166 -35 131.499 -35c58.667 0 106.5 12 143.5 36s59.167 57 66.5 99
c1.33301 10.667 2 17.667 2 21c0 23.333 -7.83301 41.666 -23.5 54.999s-34.834 23 -57.501 29s-55 12.667 -97 20c-72.667 10.667 -130.667 28.167 -174 52.5s-65 64.166 -65 119.499c0 7.33301 1.33301 20.333 4 39c11.333 62.667 43.166 112.334 95.499 149.001
s119.833 55 202.5 55c77.333 0 137.666 -17.167 180.999 -51.5s65 -81.5 65 -141.5c0 -14 -1.66699 -30.333 -5 -49l-88 5c2.66699 11.333 4 23.666 4 36.999c0 38.667 -13.833 68.334 -41.5 89.001s-67.167 31 -118.5 31c-57.333 0 -104 -11.833 -140 -35.5
s-57.667 -55.5 -65 -95.5c-1.33301 -9.33301 -2 -16 -2 -20c0 -22.667 7.66699 -40.5 23 -53.5s34.333 -22.5 57 -28.5s53.667 -12.333 93 -19c50 -8 91.833 -17.333 125.5 -28s62 -27.667 85 -51s34.5 -55 34.5 -95c0 -7.33301 -1.33301 -20.333 -4 -39
c-11.333 -65.333 -44 -116.666 -98 -153.999s-123 -56 -207 -56c-83.333 0 -148.166 18.667 -194.499 56z" />
    <glyph glyph-name="uni0406" unicode="&#x406;" horiz-adv-x="281" 
d="M174 705h92l-124 -705h-92z" />
    <glyph glyph-name="uni0407" unicode="&#x407;" horiz-adv-x="282" 
d="M86.5 804.5c-9.66699 9.66699 -14.5 22.167 -14.5 37.5c0 19.333 6.16699 35.166 18.5 47.499s27.833 18.5 46.5 18.5c16.667 0 29.834 -4.83301 39.501 -14.5s14.5 -22.167 14.5 -37.5c0 -19.333 -6.16699 -35.166 -18.5 -47.499s-27.833 -18.5 -46.5 -18.5
c-16.667 0 -29.834 4.83301 -39.501 14.5zM317 804.5c-10 9.66699 -15.001 22.167 -15.001 37.5c0 19.333 6.16699 35.166 18.5 47.499s27.833 18.5 46.5 18.5c16.667 0 29.834 -4.66699 39.501 -14s14.5 -21.666 14.5 -36.999c0 -19.333 -6.16699 -35.333 -18.5 -48
s-27.5 -19 -45.5 -19c-16.667 0 -30 4.83301 -40 14.5zM175.999 705h91l-125 -705h-91z" />
    <glyph glyph-name="uni0408" unicode="&#x408;" horiz-adv-x="478" 
d="M61.5 -14c-23 4 -44.1641 9 -63.4971 15l8 76c17.333 -4.66699 35.666 -8.66699 54.999 -12s35.666 -5 48.999 -5c43.333 0 81.166 14.167 113.499 42.5s52.5 65.833 60.5 112.5l87 490h91l-88 -496c-8 -45.333 -23.833 -85.333 -47.5 -120s-53 -61.5 -88 -80.5
s-72.833 -28.5 -113.5 -28.5c-19.333 0 -40.5 2 -63.5 6z" />
    <glyph glyph-name="uni0409" unicode="&#x409;" horiz-adv-x="1127" 
d="M-3 80c50 0 89.667 14.667 119 44s53 78 71 146l119 435h440l-52 -291h187c39.333 0 74 -7.33301 104 -22s53.333 -35 70 -61s25 -56 25 -90c0 -12 -1 -24.667 -3 -38c-6.66699 -39.333 -22.5 -74.333 -47.5 -105s-56.333 -54.667 -94 -72s-78.5 -26 -122.5 -26h-283
l111 625h-267l-111 -404c-20 -72.667 -53.333 -127.667 -100 -165s-105 -56 -175 -56zM807 80c44.667 0 84.168 12.499 118.501 37.499s55.166 56.167 62.499 93.5c1.33301 9.33301 2 16 2 20c0 30.667 -12 55.334 -36 74.001s-56.333 28 -97 28h-176l-44 -253h170z" />
    <glyph glyph-name="uni040A" unicode="&#x40a;" horiz-adv-x="1051" 
d="M174 705l91.001 0.000976562l-52 -295h315l53 295h91l-52 -295h187c38.667 0 73 -7.16699 103 -21.5s53.167 -34.5 69.5 -60.5s24.5 -55.667 24.5 -89c0 -12 -1 -24.667 -3 -38c-6.66699 -38.667 -22.334 -73.334 -47.001 -104.001s-55.5 -54.5 -92.5 -71.5
s-77.5 -25.5 -121.5 -25.5h-284l58 329h-315l-58 -329h-91zM734.001 80.001c44.667 0 83.832 12.168 117.499 36.501s53.834 55.166 60.501 92.499c1.33301 9.33301 2 16 2 20c0 30 -11.833 54.167 -35.5 72.5s-55.5 27.5 -95.5 27.5h-176l-44 -249h171z" />
    <glyph glyph-name="uni040B" unicode="&#x40b;" horiz-adv-x="691" 
d="M169 630l-90.002 -0.00195312l13 75h265l-13 -75h-92l-38 -213l8 3c22.667 36.667 52.334 63.334 89.001 80.001s75.334 25 116.001 25c65.333 0 116 -17.167 152 -51.5s54 -82.5 54 -144.5c0 -20 -2 -41 -6 -63l-47 -263h-83l48 269c2.66699 16 4 32.333 4 49
c0 42.667 -11.5 74.834 -34.5 96.501s-56.833 32.5 -101.5 32.5c-36 0 -70 -7.66699 -102 -23s-59.167 -37.5 -81.5 -66.5s-36.833 -63.5 -43.5 -103.5l-46 -257h-83z" />
    <glyph glyph-name="uni040C" unicode="&#x40c;" horiz-adv-x="633" 
d="M523 901h105l-129 -113h-101zM175 705h91l-54 -308h9l346 308h116l-390 -341l273 -364h-113l-242 331h-11l-58 -331h-92z" />
    <glyph glyph-name="uni040E" unicode="&#x40e;" horiz-adv-x="671" 
d="M344.5 808.5c-25 20.333 -37.499 45.833 -37.499 76.5c0 4.66699 0.666992 11 2 19l81 -5c-0.666992 -3.33301 -1 -8 -1 -14c0 -28.667 18 -43 54 -43c22.667 0 41.667 5.66699 57 17s24.666 26.333 27.999 45l80 -5c-6 -36 -24.5 -65.167 -55.5 -87.5
s-67.5 -33.5 -109.5 -33.5c-40.667 0 -73.5 10.167 -98.5 30.5zM54.001 -16c-16.667 2.66699 -29.667 6 -39 10l10 78c18 -7.33301 40.667 -11 68 -11c35.333 0 67.5 10.5 96.5 31.5s62.5 60.5 100.5 118.5l19 27l-193 467h95l153 -373h10l251 373h97l-338 -506
c-40 -60 -73.833 -105.333 -101.5 -136s-55 -52.167 -82 -64.5s-58.5 -18.5 -94.5 -18.5c-18 0 -35.333 1.33301 -52 4z" />
    <glyph glyph-name="uni040F" unicode="&#x40f;" horiz-adv-x="752" 
d="M285 0h-235l124 705h91l-109 -625h380l110 625h91l-124 -705h-237l-26 -150h-91z" />
    <glyph glyph-name="uni0410" unicode="&#x410;" horiz-adv-x="713" 
d="M375 705h124l140 -705h-87l-32 158h-359l-88 -158h-88zM507 233l-78 392h-9l-219 -392h306z" />
    <glyph glyph-name="uni0411" unicode="&#x411;" horiz-adv-x="676" 
d="M174 705h490l-14 -79h-399l-33 -192h196c69.333 0 123 -15.5 161 -46.5s57 -74.167 57 -129.5c0 -16.667 -1.33301 -32 -4 -46c-12 -66 -44 -117.833 -96 -155.5s-117.667 -56.5 -197 -56.5h-285zM329 80c56.667 0 103.833 13 141.5 39s60.167 60.667 67.5 104
c1.33301 5.33301 2 13.333 2 24c0 33.333 -13.333 59.5 -40 78.5s-63.667 28.5 -111 28.5h-185l-48 -274h173z" />
    <glyph glyph-name="uni0412" unicode="&#x412;" horiz-adv-x="697" 
d="M175 705l304 0.000976562c38 0 71.667 -6.83301 101 -20.5s52.166 -32.667 68.499 -57s24.5 -52.5 24.5 -84.5c0 -10.667 -1 -21.667 -3 -33c-5.33301 -32 -19.666 -61.167 -42.999 -87.5s-50.333 -44.166 -81 -53.499l-8 -10c30 -8.66699 54 -25.334 72 -50.001
s27 -53.334 27 -86.001c0 -10.667 -1 -21 -3 -31c-6 -36.667 -22 -69.5 -48 -98.5s-58.667 -51.833 -98 -68.5s-82.333 -25 -129 -25h-309zM415 402.001c42 0 78.833 11 110.5 33s50.5 50 56.5 84c0.666992 3.33301 1 8.66602 1 15.999
c0 26.667 -11.167 48.334 -33.5 65.001s-52.5 25 -90.5 25h-208l-39 -223h203zM356 80.001c31.333 0 60.833 5.5 88.5 16.5s50.667 26.333 69 46s29.5 41.5 33.5 65.5c1.33301 8 2 13.667 2 17c0 29.333 -13.333 52.833 -40 70.5s-62 26.5 -106 26.5h-205l-42 -242h200z" />
    <glyph glyph-name="uni0413" unicode="&#x413;" horiz-adv-x="597" 
d="M174 705h473l-14 -80h-382l-110 -625h-91z" />
    <glyph glyph-name="uni0414" unicode="&#x414;" horiz-adv-x="839" 
d="M-10 80l67 2.00098c36 24 66.667 54.167 92 90.5s46 81.166 62 134.499l123 398h449l-110 -625h107l-41 -230h-83l27 150h-626l-26 -150h-82zM582 80.001l95.999 545h-276l-108 -341c-14 -45.333 -31.667 -83.5 -53 -114.5s-46.666 -58.167 -75.999 -81.5l-2 -8h419z" />
    <glyph glyph-name="uni0415" unicode="&#x415;" horiz-adv-x="639" 
d="M175 705h484l-14 -80h-393l-39 -220h353l-14 -80h-353l-42 -245h402l-15 -80h-493z" />
    <glyph glyph-name="uni0416" unicode="&#x416;" horiz-adv-x="989" 
d="M382 364l-262 341h112l232 -311h10l55 311h91l-55 -311h9l342 311h115l-384 -341l267 -364h-112l-236 334h-11l-59 -334h-91l59 334h-9l-355 -334h-116z" />
    <glyph glyph-name="uni0417" unicode="&#x417;" horiz-adv-x="648" 
d="M161.5 2.5c-37 18.333 -65.501 43.834 -85.501 76.501s-30 70 -30 112c0 17.333 1.33301 33.666 4 48.999l88 -5c-2 -12 -3 -24 -3 -36c0 -43.333 14.167 -78.166 42.5 -104.499s67.5 -39.5 117.5 -39.5c34 0 66 6.16699 96 18.5s55.167 29.5 75.5 51.5
s32.833 46.667 37.5 74c1.33301 9.33301 2 16 2 20c0 32 -13.333 58 -40 78s-62 30 -106 30h-91l14 80h91c41.333 0 78 12 110 36s51 54 57 90c1.33301 8 2 14.333 2 19c0 29.333 -12.833 53 -38.5 71s-58.834 27 -99.501 27c-35.333 0 -67.666 -7 -96.999 -21
s-53.666 -33.333 -72.999 -58s-31.666 -52.334 -36.999 -83.001l-89 6c8 46 26 86.833 54 122.5s63.167 63.5 105.5 83.5s89.166 30 140.499 30c43.333 0 82 -7.16699 116 -21.5s60.5 -34.333 79.5 -60s28.5 -55.167 28.5 -88.5c0 -10 -1 -20.667 -3 -32
c-6.66699 -38 -22.834 -70.667 -48.501 -98s-57.5 -45.666 -95.5 -54.999l-8 -10c35.333 -6.66699 63.666 -23.834 84.999 -51.501s32 -60.5 32 -98.5c0 -11.333 -1 -23 -3 -35c-6.66699 -39.333 -24.167 -74.5 -52.5 -105.5s-64.166 -55.333 -107.499 -73
s-89.666 -26.5 -138.999 -26.5c-50.667 0 -94.5 9.16699 -131.5 27.5z" />
    <glyph glyph-name="uni0418" unicode="&#x418;" horiz-adv-x="755" 
d="M523 0l104 585h-9l-437 -585h-131l124 705h91l-103 -585h9l437 585h131l-125 -705h-91z" />
    <glyph glyph-name="uni0419" unicode="&#x419;" horiz-adv-x="755" 
d="M398.5 808c-25 20 -37.4971 45.333 -37.4971 76c0 4 0.666992 10.667 2 20l81 -5c-0.666992 -3.33301 -1 -8 -1 -14c0 -28.667 17.667 -43 53 -43c22.667 0 41.667 5.66699 57 17s24.666 26.333 27.999 45l81 -5c-6.66699 -36 -25.334 -65.167 -56.001 -87.5
s-67.334 -33.5 -110.001 -33.5c-40 0 -72.5 10 -97.5 30zM266.003 705l-103 -585h9l437 585h131l-125 -705h-91l104 586h-9l-437 -586h-132l125 705h91z" />
    <glyph glyph-name="uni041A" unicode="&#x41a;" horiz-adv-x="633" 
d="M175 705h91l-54 -308h9l346 308h116l-390 -341l273 -364h-113l-242 331h-11l-58 -331h-92z" />
    <glyph glyph-name="uni041B" unicode="&#x41b;" horiz-adv-x="760" 
d="M-3 80c50 0 89.667 14.667 119 44s53 78 71 146l119 435h440l-125 -705h-91l111 625h-267l-111 -404c-20 -72.667 -53.333 -127.667 -100 -165s-105 -56 -175 -56z" />
    <glyph glyph-name="uni041C" unicode="&#x41c;" horiz-adv-x="953" 
d="M174 705h143l131 -578h10l335 578h144l-124 -705h-91l104 590h-9l-342 -590h-87l-133 589h-10l-104 -589h-91z" />
    <glyph glyph-name="uni041D" unicode="&#x41d;" horiz-adv-x="752" 
d="M174 705h91l-52 -297h381l52 297h91l-124 -705h-91l58 328h-381l-58 -328h-91z" />
    <glyph glyph-name="uni041E" unicode="&#x41e;" horiz-adv-x="864" 
d="M216.5 13c-49 25.333 -86.834 61.167 -113.501 107.5s-40 99.833 -40 160.5c0 26 2.33301 51.667 7 77c12.667 72 39.834 136.167 81.501 192.5s93.834 100.333 156.501 132s130.334 47.5 203.001 47.5c65.333 0 122.666 -12.833 171.999 -38.5s87.333 -61.667 114 -108
s40 -99.833 40 -160.5c0 -26.667 -2.33301 -52 -7 -76c-12.667 -72 -40 -136.167 -82 -192.5s-94.333 -100.333 -157 -132s-130.334 -47.5 -203.001 -47.5c-65.333 0 -122.5 12.667 -171.5 38zM550.499 94.001c49.667 26 91.167 62 124.5 108s55 98 65 156
c3.33301 17.333 5 37.333 5 60c0 46 -9.66699 86.5 -29 121.5s-46.833 62.167 -82.5 81.5s-77.834 29 -126.501 29c-56.667 0 -109.667 -13 -159 -39s-90.666 -62 -123.999 -108s-55 -98 -65 -156c-3.33301 -17.333 -5 -37.333 -5 -60c0 -46 9.66699 -86.5 29 -121.5
s47 -62.167 83 -81.5s78 -29 126 -29c56 0 108.833 13 158.5 39z" />
    <glyph glyph-name="uni041F" unicode="&#x41f;" horiz-adv-x="749" 
d="M174 705h561l-125 -705h-91l112 630h-379l-111 -630h-91z" />
    <glyph glyph-name="uni0420" unicode="&#x420;" horiz-adv-x="671" 
d="M175 705l277.998 -0.000976562c68.667 0 122.834 -15.833 162.501 -47.5s59.5 -75.167 59.5 -130.5c0 -15.333 -1.33301 -29.666 -4 -42.999c-12.667 -64.667 -45.167 -116 -97.5 -154s-116.166 -57 -191.499 -57h-195l-48 -273h-89zM390.998 353.999
c51.333 0 94.168 12.667 128.501 38s55.166 59.666 62.499 102.999c1.33301 6 2 14.333 2 25c0 32.667 -12 58.334 -36 77.001s-58.333 28 -103 28h-195l-48 -271h189z" />
    <glyph glyph-name="uni0421" unicode="&#x421;" horiz-adv-x="803" 
d="M210.5 13.5c-47 25.667 -83.168 61.501 -108.501 107.501s-38 99 -38 159c0 26.667 2.33301 52.667 7 78c12.667 71.333 39.334 135.166 80.001 191.499s91 100.5 151 132.5s124.667 48 194 48c52.667 0 100.834 -11.333 144.501 -34s78.667 -53.667 105 -93
s41.166 -83.333 44.499 -132l-89 -6c-2 35.333 -12.5 67.166 -31.5 95.499s-44 50.333 -75 66s-64.833 23.5 -101.5 23.5c-53.333 0 -103.666 -13 -150.999 -39s-87 -62 -119 -108s-53 -98 -63 -156c-4 -22 -6 -43 -6 -63c0 -45.333 9.16699 -85.166 27.5 -119.499
s44.166 -61.166 77.499 -80.499s72.666 -29 117.999 -29c38 0 75.833 8 113.5 24s71.334 38 101.001 66s52.5 59.333 68.5 94l85 -23c-20 -46 -49.167 -87.333 -87.5 -124s-82.333 -65.334 -132 -86.001s-100.167 -31 -151.5 -31c-62 0 -116.5 12.833 -163.5 38.5z" />
    <glyph glyph-name="uni0422" unicode="&#x422;" horiz-adv-x="582" 
d="M312 625h-234l14 80h559l-14 -80h-234l-111 -625h-91z" />
    <glyph glyph-name="uni0423" unicode="&#x423;" horiz-adv-x="671" 
d="M54 -16c-16.667 2.66699 -29.667 6 -39 10l10 78c18 -7.33301 40.667 -11 68 -11c35.333 0 67.5 10.5 96.5 31.5s62.5 60.5 100.5 118.5l19 27l-193 467h95l153 -373h10l251 373h97l-338 -506c-40 -60 -73.833 -105.333 -101.5 -136s-55 -52.167 -82 -64.5
s-58.5 -18.5 -94.5 -18.5c-18 0 -35.333 1.33301 -52 4z" />
    <glyph glyph-name="uni0424" unicode="&#x424;" horiz-adv-x="831" 
d="M337 53c-57.333 2 -107.332 14.333 -149.999 37s-75.334 53 -98.001 91s-34 80.333 -34 127c0 15.333 1.66699 33 5 53c10 54 32.167 103.333 66.5 148s78.5 80.5 132.5 107.5s114 41.5 180 43.5l16 75h91l-16 -75c58 -0.666992 108.333 -12 151 -34
s75.167 -52.167 97.5 -90.5s33.5 -81.5 33.5 -129.5c0 -16 -1.66699 -34.667 -5 -56c-10 -54.667 -32.333 -104.5 -67 -149.5s-79 -80.667 -133 -107s-113.667 -39.833 -179 -40.5l-18 -83h-91zM430.001 579c-46.667 -1.33301 -90.1689 -12.501 -130.502 -33.501
s-73.666 -48.667 -99.999 -83s-43.166 -71.5 -50.499 -111.5c-2 -12 -3 -23.333 -3 -34c0 -33.333 8 -63.666 24 -90.999s39 -49.333 69 -66s65.667 -25.667 107 -27zM566.999 163.999c40 20.667 73.333 48.502 100 83.502s43.667 73.167 51 114.5
c2 13.333 3 25.666 3 36.999c0 33.333 -8 63.666 -24 90.999s-39.167 49 -69.5 65s-65.833 24 -106.5 24l-84 -446c46.667 0 90 10.333 130 31z" />
    <glyph glyph-name="uni0425" unicode="&#x425;" horiz-adv-x="711" 
d="M314 373l-184 332h101l146 -279h10l251 279h105l-310 -332l193 -373h-100l-157 313h-10l-262 -313h-104z" />
    <glyph glyph-name="uni0426" unicode="&#x426;" horiz-adv-x="800" 
d="M635 0h-585l124 705h91l-110 -626h381l111 626h91l-111 -626h113l-40 -230h-91z" />
    <glyph glyph-name="uni0427" unicode="&#x427;" horiz-adv-x="700" 
d="M527 315c-24.667 -28 -56.332 -50.001 -94.999 -66.001s-77.334 -24 -116.001 -24c-65.333 0 -117.833 16.833 -157.5 50.5s-59.5 81.5 -59.5 143.5c0 21.333 1.66699 40.333 5 57l40 229h91l-40 -224c-2.66699 -14 -4 -29.333 -4 -46
c0 -45.333 13.333 -79.166 40 -101.499s63 -33.5 109 -33.5c34.667 0 71.167 10.5 109.5 31.5s68.833 47.167 91.5 78.5l53 295h91l-124 -705h-91z" />
    <glyph glyph-name="uni0428" unicode="&#x428;" horiz-adv-x="991" 
d="M174 705h91l-109 -625h264l110 625h91l-110 -625h264l110 625h91l-125 -705h-801z" />
    <glyph glyph-name="uni0429" unicode="&#x429;" horiz-adv-x="1046" 
d="M881 0h-831l124 705h91l-109 -625h264l110 625h91l-110 -625h264l110 625h91l-110 -625h121l-41 -230h-91z" />
    <glyph glyph-name="uni042A" unicode="&#x42a;" horiz-adv-x="745" 
d="M225 628l-128.997 0.000976562l14 77h220l-43 -247h202c43.333 0 81.166 -8.5 113.499 -25.5s57.166 -40.167 74.499 -69.5s26 -62.333 26 -99c0 -14.667 -1.33301 -28.334 -4 -41.001c-7.33301 -41.333 -24.333 -79 -51 -113s-60.334 -60.833 -101.001 -80.5
s-85 -29.5 -133 -29.5h-300zM408.003 80.001c33.333 0 64.501 6.66895 93.501 20.002s53 31.666 72 54.999s31.167 49.666 36.5 78.999c1.33301 10.667 2 18.667 2 24c0 35.333 -13.333 64 -40 86s-62.334 33 -107.001 33h-191l-52 -297h186z" />
    </font>
</defs>
</svg>
