<?xml version="1.0" encoding="utf-8"?>
<!-- Generator: Adobe Illustrator 25.2.0, SVG Export Plug-In . SVG Version: 6.00 Build 0)  -->
<svg version="1.1" id="Layer_1" xmlns="http://www.w3.org/2000/svg" xmlns:xlink="http://www.w3.org/1999/xlink" x="0px" y="0px"
	 viewBox="0 0 319 41" style="enable-background:new 0 0 319 41;" xml:space="preserve">
<style type="text/css">
	.st0{fill:#FFFFFF;}
</style>
<path class="st0" d="M0,20.6c0-3.4,0.7-6.4,2.1-8.9C3.6,9.1,5.5,7,7.7,5.3c2.3-1.7,4.9-3,7.7-3.8c2.9-0.9,5.7-1.3,8.5-1.3
	s5.6,0.4,8.5,1.3c2.9,0.8,5.4,2.1,7.7,3.8c2.3,1.7,4.1,3.8,5.6,6.4c1.5,2.6,2.2,5.5,2.2,8.9c0,3.4-0.7,6.3-2.2,8.9
	c-1.4,2.6-3.3,4.7-5.6,6.4c-2.3,1.7-4.9,3-7.7,3.8c-2.9,0.9-5.7,1.3-8.5,1.3s-5.6-0.4-8.5-1.3c-2.9-0.9-5.4-2.1-7.7-3.8
	c-2.3-1.7-4.1-3.8-5.6-6.4C0.7,27,0,24,0,20.6z M5.9,20.3c0,2.6,0.4,5,1.2,7.3s2,4.4,3.5,6.1c1.5,1.8,3.4,3.2,5.7,4.2
	c2.3,1,4.8,1.5,7.8,1.5c2.9,0,5.5-0.5,7.8-1.5c2.3-1,4.1-2.4,5.6-4.1c1.5-1.7,2.7-3.7,3.5-6c0.8-2.3,1.2-4.6,1.2-7.1
	c0-2.6-0.4-5-1.2-7.3c-0.8-2.4-2-4.4-3.5-6.2c-1.5-1.8-3.4-3.2-5.7-4.3c-2.3-1.1-4.8-1.6-7.8-1.5c-2.9,0-5.5,0.6-7.8,1.6
	c-2.3,1-4.1,2.4-5.7,4.1C9,8.9,7.8,10.9,7,13.2C6.2,15.5,5.9,17.8,5.9,20.3z"/>
<path class="st0" d="M100.8,34.2h0.6V0.9h1.7v39.4h-4.5L66.9,2.6h-1.7v37.7h-1.7V0.9h9.3L100.8,34.2z"/>
<path class="st0" d="M129.8,12.1H152l-1,1.7h-21.2v24.8h30.9l-1,1.7h-35.6V0.9h34.3l-1,1.7h-27.7V12.1z"/>
<path class="st0" d="M181.4,7.6c0,1.3,0.4,2.3,1.3,2.9c0.9,0.7,2.1,1.2,3.5,1.6c1.4,0.4,3.1,0.7,4.9,0.9c1.8,0.2,3.7,0.4,5.6,0.7
	c1.9,0.3,3.8,0.7,5.6,1.2c1.8,0.5,3.5,1.2,4.9,2.2c1.5,0.9,2.6,2.2,3.5,3.8c0.9,1.6,1.4,3.6,1.4,6c0,2.7-0.7,5-2,6.9
	c-1.3,1.8-3.1,3.3-5.2,4.4c-2.2,1.1-4.7,1.8-7.4,2.2c-2.8,0.4-5.6,0.5-8.5,0.3c-2.9-0.2-5.7-0.7-8.4-1.5c-2.7-0.8-5.2-1.9-7.3-3.2
	l1.6-2.8c2.1,1.8,4.4,3.2,6.8,4.2s4.8,1.6,7.1,1.8c2.4,0.2,4.6,0.1,6.8-0.3c2.2-0.5,4.1-1.3,5.7-2.3c1.6-1.1,2.9-2.5,3.9-4.1
	c1-1.7,1.5-3.5,1.5-5.6c0-2.3-0.4-4.2-1.4-5.6c-0.9-1.5-2-2.6-3.5-3.5c-1.5-0.9-3.1-1.5-5-1.9c-1.8-0.5-3.7-0.8-5.7-1
	c-1.9-0.3-3.8-0.5-5.6-0.7c-1.8-0.2-3.5-0.6-5-1c-1.4-0.5-2.6-1.1-3.5-2c-0.9-0.8-1.3-2-1.3-3.5c0-1.4,0.6-2.6,1.7-3.7
	c1.2-1.1,2.7-1.9,4.6-2.5c1.9-0.6,4-1.1,6.4-1.3c2.4-0.2,4.7-0.2,7.1,0.1c2.4,0.2,4.8,0.7,7,1.4c2.3,0.7,4.3,1.7,5.9,2.9l-1.7,2.9
	c-1.3-1.6-2.9-2.9-4.7-3.8s-3.6-1.5-5.5-1.8c-1.9-0.3-3.7-0.4-5.6-0.2c-1.8,0.2-3.4,0.6-4.8,1.1c-1.4,0.5-2.6,1.2-3.5,2.1
	C181.8,5.7,181.4,6.6,181.4,7.6z"/>
<path class="st0" d="M257.2,12.1l16.3,28.1H267l-15.2-26.4h-13.3v26.4h-5.6V0.9h5.6v11.3h16.4l6.6-11.3h2.2L257.2,12.1z"/>
<path class="st0" d="M317,0.9h2l-13.7,23.7v15.6h-5.6V25.4L285.6,0.9h6.5l12.4,21.5L317,0.9z"/>
</svg>
